<?xml version="1.0" encoding="UTF-8"?>
<svg width="182px" height="173px" viewBox="0 0 182 173" version="1.1" xmlns="http://www.w3.org/2000/svg" xmlns:xlink="http://www.w3.org/1999/xlink">
    <!-- Generator: Sketch 50.2 (55047) - http://www.bohemiancoding.com/sketch -->
    <title>10mm-blockstart-public</title>
    <desc>Created with Sketch.</desc>
    <defs>
        <linearGradient x1="50%" y1="0%" x2="50%" y2="100%" id="linearGradient-1">
            <stop stop-color="#80F3E4" offset="0%"></stop>
            <stop stop-color="#4A54E2" offset="100%"></stop>
        </linearGradient>
    </defs>
    <g id="Landing-Page--Milestones" stroke="none" stroke-width="1" fill="none" fill-rule="evenodd">
        <g id="Milestones" transform="translate(-772.000000, -2979.000000)">
            <g id="5MM-Copy" transform="translate(140.000000, 2919.000000)">
                <g id="10mm-blockstart-public" transform="translate(632.000000, 60.000000)">
                    <g id="icons8-crowdfunding" fill="url(#linearGradient-1)" fill-rule="nonzero">
                        <path d="M43.3333333,0 C33.752602,0 26,7.73769315 26,17.3 C26,26.8623068 33.752602,34.6 43.3333333,34.6 C44.0781293,34.6 44.7890647,34.4310569 45.5,34.3296875 L52.5416667,43.790625 C41.5729167,54.7382812 34.6666667,69.7744119 34.6666667,86.5 C34.6666667,88.0543012 34.8359353,89.5748068 34.9375,91.0953125 L30.0625,92.1765625 C26.8802127,88.7300824 22.4114627,86.5 17.3333333,86.5 C7.752602,86.5 0,94.2376932 0,103.8 C0,113.362307 7.752602,121.1 17.3333333,121.1 C25.119796,121.1 31.653648,115.964062 33.8541667,108.935937 L38.7291667,107.854687 C42.3515647,117.450781 48.377602,125.898051 56.0625,132.453125 L52.5416667,138.4 C52.372398,138.4 52.1692687,138.4 52,138.4 C42.4192687,138.4 34.6666667,146.137693 34.6666667,155.7 C34.6666667,165.262307 42.4192687,173 52,173 C61.5807313,173 69.3333333,165.262307 69.3333333,155.7 C69.3333333,152.760349 68.4531293,150.023438 67.1666667,147.590625 L70.9583333,141.914062 C78.40625,145.191599 86.6666667,147.05 95.3333333,147.05 C110.398435,147.05 124.007815,141.508594 134.604167,132.453125 L147.604167,143.535938 C147.367185,144.650974 147.333333,145.867381 147.333333,147.05 C147.333333,156.612307 155.085935,164.35 164.666667,164.35 C174.247398,164.35 182,156.612307 182,147.05 C182,137.487693 174.247398,129.75 164.666667,129.75 C162.669269,129.75 160.773435,130.223051 158.979167,130.83125 L146.25,119.478125 C152.445315,109.983401 156,98.6978494 156,86.5 C156,72.8492187 151.463546,60.4148438 143.8125,50.278125 L160.333333,34.059375 C161.721352,34.4310569 163.177083,34.6 164.666667,34.6 C174.247398,34.6 182,26.8623068 182,17.3 C182,7.73769315 174.247398,0 164.666667,0 C155.085935,0 147.333333,7.73769315 147.333333,17.3 C147.333333,18.7867188 147.502602,20.2396506 147.875,21.625 L131.625,38.1140625 C121.46875,30.4777387 109.010417,25.95 95.3333333,25.95 C84.872398,25.95 74.9531293,28.5855512 66.3541667,33.2484375 L59.3125,24.0578125 C60.1927127,21.9966819 60.6666667,19.6990256 60.6666667,17.3 C60.6666667,7.73769315 52.9140647,0 43.3333333,0 Z M90.7291667,43.25 L102.104167,43.25 L102.104167,53.2515625 C106.572917,54.1300825 117.372398,57.8130881 117.8125,74.3359375 L104.541667,74.3359375 C104.541667,70.6867188 103.864583,63.5234375 96.4166667,63.5234375 C95.0625,63.5234375 88.5625,63.8275369 88.5625,71.3625 C88.5625,84.3037131 117.8125,79.9787131 117.8125,102.448438 C117.8125,104.982619 117.473963,116.606057 102.104167,120.01875 L102.104167,129.75 L90.7291667,129.75 L90.7291667,120.289063 C73.3281293,117.383207 72.8541667,102.71875 72.8541667,99.2046875 L86.125,99.2046875 C86.125,101.367188 86.2265647,110.2875 95.875,110.2875 C103.864583,110.2875 104.541667,103.563474 104.541667,102.448438 C104.541667,87.4460938 75.2916667,94.9810569 75.2916667,71.3625 C75.2916667,58.3199262 85.5156293,54.603125 90.7291667,53.521875 L90.7291667,43.25 Z" id="Shape"></path>
                    </g>
                    <g id="Group-8" transform="translate(33.000000, 26.000000)">
                        <circle id="Combined-Shape" fill="#282757" cx="61.5" cy="61.5" r="51.5"></circle>
                        <path d="M63.0663902,83.4292525 L80.7515405,73.3591761 L80.7515405,53.412808 L63.0663902,63.6233344 L63.0663902,83.4292525 Z M59.7846097,83.3254373 L59.7846097,63.6630499 L42.2817805,53.5577868 L42.2817805,73.3591761 L59.7846097,83.3254373 Z M79.1550145,50.5450891 L66.3481706,43.2527623 L66.3481706,39.4855796 L84,49.5425364 L84,75.1808455 L61.5,88 L39,75.1808455 L39,49.5425364 L56.6851504,39.4665953 L56.6851504,43.2527623 L43.7518817,50.6170764 L61.3911053,60.8010869 L79.1550145,50.5450891 Z M59.6934491,32 L63.3398719,32 L63.3398719,51.5210985 L59.6934491,51.5210985 L59.6934491,32 Z" id="Combined-Shape" fill="url(#linearGradient-1)"></path>
                    </g>
                </g>
            </g>
        </g>
    </g>
</svg>