<?xml version="1.0" encoding="UTF-8"?>
<svg width="120px" height="120px" viewBox="0 0 120 120" version="1.1" xmlns="http://www.w3.org/2000/svg" xmlns:xlink="http://www.w3.org/1999/xlink">
    <!-- Generator: Sketch 50.2 (55047) - http://www.bohemiancoding.com/sketch -->
    <title>2MM-icon</title>
    <desc>Created with Sketch.</desc>
    <defs></defs>
    <g id="Landing-Page---Token-Sale" stroke="none" stroke-width="1" fill="none" fill-rule="evenodd">
        <g id="Desktop-HD" transform="translate(-1080.000000, -4127.000000)">
            <g id="Funding-Goals" transform="translate(-60.000000, 4010.000000)">
                <g id="Group-39" transform="translate(276.000000, 117.000000)">
                    <g id="2MM---Payment-" transform="translate(817.000000, 0.000000)">
                        <g id="2MM-icon" transform="translate(47.000000, 0.000000)">
                            <circle id="Oval-3-Copy-3" fill="#4D5EE2" cx="60" cy="60" r="60"></circle>
                            <g id="icons8-coins" transform="translate(39.000000, 39.000000)" fill="#FFFFFF" fill-rule="nonzero">
                                <path d="M29.195122,0 C22.1204272,0 16.3902439,3.1628057 16.3902439,7.06829268 C16.3902439,10.9737813 22.1204272,14.1365854 29.195122,14.1365854 C36.2698167,14.1365854 42,10.9737813 42,7.06829268 C42,3.1628057 36.2698167,0 29.195122,0 Z M42,9.16829268 C42,13.0737813 36.2698167,16.2365854 29.195122,16.2365854 C22.139635,16.2365854 16.4222557,13.1057931 16.3902439,9.2195122 C16.3902439,10.704878 16.3902439,11.9853659 16.3902439,11.9853659 C16.3902439,13.656402 17.4594516,15.1801833 19.2073171,16.3902439 C20.9807923,16.8768293 22.5557931,17.5426829 23.8682927,18.3878049 C25.494513,18.803963 27.2871959,19.0536585 29.195122,19.0536585 C36.2698167,19.0536585 42,15.8908545 42,11.9853659 L42,9.16829268 Z M42,14.0853659 C42,17.9908545 36.2698167,21.1536585 29.195122,21.1536585 C28.3371959,21.1536585 27.498476,21.089635 26.6853659,21 C27.3320118,21.8963415 27.7801833,22.8759142 27.9658537,23.9195122 C28.3756098,23.945122 28.7789638,23.9707317 29.195122,23.9707317 C36.2698167,23.9707317 42,20.8079276 42,16.902439 L42,14.0853659 Z M12.804878,18.0292683 C5.73018334,18.0292683 0,21.192074 0,25.097561 C0,29.0030496 5.73018334,32.1658537 12.804878,32.1658537 C19.8795728,32.1658537 25.6097561,29.0030496 25.6097561,25.097561 C25.6097561,21.192074 19.8795728,18.0292683 12.804878,18.0292683 Z M42,19.002439 C42,22.9079276 36.2698167,26.0707317 29.195122,26.0707317 C28.7853659,26.0707317 28.3692077,26.0387199 27.9658537,26.0195122 C27.9466459,26.1411589 27.9402439,26.3076215 27.9146341,26.4292683 C27.9978654,26.6789638 28.0682927,26.9222557 28.0682927,27.197561 L28.0682927,28.8365854 C28.439635,28.8557931 28.8109756,28.8878049 29.195122,28.8878049 C36.2698167,28.8878049 42,25.7250008 42,21.8195122 L42,19.002439 Z M42,23.9195122 C42,27.8250008 36.2698167,30.9878049 29.195122,30.9878049 C28.7853659,30.9878049 28.3692077,30.9557931 27.9658537,30.9365854 C27.9466459,31.0582321 27.9402439,31.2246947 27.9146341,31.3463415 C27.9978654,31.589635 28.0682927,31.8393289 28.0682927,32.1146341 L28.0682927,33.7536585 C28.439635,33.7728663 28.8109756,33.804878 29.195122,33.804878 C36.2698167,33.804878 42,30.642074 42,26.7365854 L42,23.9195122 Z M25.6097561,27.197561 C25.6097561,31.1030496 19.8795728,34.2658537 12.804878,34.2658537 C5.74939106,34.2658537 0.0320117854,31.1350614 0,27.2487805 C0,28.7341463 0,30.0146341 0,30.0146341 C0,33.9201228 5.73018334,37.0829268 12.804878,37.0829268 C19.8795728,37.0829268 25.6097561,33.9201228 25.6097561,30.0146341 L25.6097561,27.197561 Z M25.6097561,32.1146341 C25.6097561,36.0201228 19.8795728,39.1829268 12.804878,39.1829268 C5.74939106,39.1829268 0.0320117854,36.0521346 0,32.1658537 C0,33.6512195 0,34.9317073 0,34.9317073 C0,38.8371959 5.73018334,42 12.804878,42 C19.8795728,42 25.6097561,38.8371959 25.6097561,34.9317073 L25.6097561,32.1146341 Z" id="Shape"></path>
                            </g>
                        </g>
                    </g>
                </g>
            </g>
        </g>
    </g>
</svg>