<?xml version="1.0" encoding="UTF-8"?>
<svg width="159px" height="141px" viewBox="0 0 159 141" version="1.1" xmlns="http://www.w3.org/2000/svg" xmlns:xlink="http://www.w3.org/1999/xlink">
    <!-- Generator: Sketch 50.2 (55047) - http://www.bohemiancoding.com/sketch -->
    <title>2mm-js-payment-sdk</title>
    <desc>Created with Sketch.</desc>
    <defs>
        <linearGradient x1="69.3959415%" y1="100%" x2="69.3959415%" y2="0%" id="linearGradient-1">
            <stop stop-color="#80F3E4" offset="0%"></stop>
            <stop stop-color="#4A54E2" offset="100%"></stop>
        </linearGradient>
        <linearGradient x1="50%" y1="-10.8915827%" x2="50%" y2="100%" id="linearGradient-2">
            <stop stop-color="#80F3E4" offset="0%"></stop>
            <stop stop-color="#4A54E2" offset="100%"></stop>
        </linearGradient>
        <linearGradient x1="67.0628548%" y1="105.803189%" x2="67.0628548%" y2="0%" id="linearGradient-3">
            <stop stop-color="#80F3E4" offset="0%"></stop>
            <stop stop-color="#4A54E2" offset="100%"></stop>
        </linearGradient>
    </defs>
    <g id="Landing-Page--Milestones" stroke="none" stroke-width="1" fill="none" fill-rule="evenodd">
        <g id="Milestones" transform="translate(-484.000000, -1800.000000)">
            <g id="2MM" transform="translate(484.000000, 1747.000000)">
                <g id="2mm-js-payment-sdk" transform="translate(0.000000, 53.000000)">
                    <g id="icons8-receive_cash" transform="translate(79.500000, 108.000000) scale(-1, 1) translate(-79.500000, -108.000000) translate(0.000000, 75.000000)" fill="#E5E7F5" fill-rule="nonzero">
                        <path d="M36.7905778,0.305349553 C34.1420445,0.545728206 31.1804978,1.26685186 27.737399,2.61295509 C19.0453857,6.05032738 0,14.9201846 0,14.9201846 L17.5284952,53.5725774 L26.581674,47.8035636 C31.5175812,44.654642 34.262431,44.1258188 40.6429943,47.4189626 C46.8309368,50.5919203 65.7559361,60.495394 70.4992224,62.8029996 C85.0902531,69.8700446 91.374506,63.5962374 98.4292422,59.5338917 C104.448646,56.0724834 147.114159,27.8764298 151.59259,24.7275082 C158.599174,19.7998104 160.742079,15.4009358 157.563836,11.2664759 C155.156076,8.14159644 149.666382,5.54554021 138.686995,12.0356777 C139.698257,7.49258084 136.231082,4.72826017 131.945266,4.72826017 C128.165084,4.72826017 123.710729,5.59361225 120.195396,9.15117079 C115.139102,2.51680486 109.914257,3.45427115 99.777588,9.72807217 C95.9251715,12.1318279 92.4820727,14.0788686 89.9539259,15.497086 C89.279753,15.8816869 88.7741248,16.1701376 88.2203384,16.4585883 C89.2075186,16.6749248 90.194705,16.8431892 91.3022716,16.8431892 C105.508061,16.8431892 116.728221,16.8431892 116.728221,29.1504188 C116.728221,38.5971774 105.796992,41.3374621 99.9702088,41.4576483 L73.5811556,41.4576483 C62.722155,41.4576483 52.2002439,30.1119211 52.2002439,30.1119211 C52.2002439,30.1119211 64.6483633,35.3040336 73.5811556,35.3040336 L99.777588,35.3040336 C99.8257463,35.3040336 110.564354,34.8713606 110.564354,29.1504188 C110.564354,23.9102343 107.675042,22.996804 91.3022716,22.996804 C80.6118158,22.996804 69.7287391,16.6508888 69.7287391,16.6508888 C69.7287391,16.6508888 58.9901311,8.71849782 55.6674188,6.65126478 C49.7684075,2.97352 44.7121077,-0.439816274 36.7905778,0.305349553 Z" id="Shape"></path>
                    </g>
                    <g id="cacheIcon" transform="translate(51.000000, 0.000000)">
                        <circle id="Oval" fill="#29263F" cx="35.5" cy="35.5" r="35.5"></circle>
                        <path d="M71,35.496208 C71,15.8921936 55.1061086,0 35.5,0 C15.8938914,0 0,15.8921936 0,35.496208 C0,55.1002223 71,55.1002223 71,35.496208 Z" id="Oval" fill="#36324F"></path>
                        <g id="Group" transform="translate(13.243164, 13.035156)">
                            <path d="M16.0166016,33.9000528 C17.9235464,34.9802815 20.126771,35.5975665 22.4715845,35.5975665 C26.1680126,35.5975665 29.6741305,34.0346985 32.1408556,31.3398438 L40.3535156,36.0868763 C27.4658767,36.8878219 19.353572,36.1588807 16.0166016,33.9000528 Z" id="Combined-Shape" fill="url(#linearGradient-1)"></path>
                            <path d="M22.4779689,0 C29.5608706,0 36.1096283,3.28850238 40.3535156,8.88408407 L32.1437878,13.6447239 C29.6779433,10.9421463 26.1730773,9.37479655 22.4779689,9.37479655 C15.2487263,9.37479655 9.36582038,15.2633406 9.36582038,22.4995117 C9.36582038,27.38946 12.2167535,31.335498 16.0252906,33.9218473 C19.3610696,36.1871502 27.470478,36.9181808 40.3535156,36.1149394 C38.8988941,38.0328634 37.1734912,39.6797465 35.2486102,41.0160689 C31.5576125,43.5784939 27.1331574,44.9990234 22.4779689,44.9990234 C10.0828919,44.9990234 0,34.90647 0,22.4995117 C0,10.0925553 10.0828919,0 22.4779689,0 Z" id="Path" fill="url(#linearGradient-2)"></path>
                            <path d="M16.0166016,11.1578653 C17.9235464,12.238094 20.126771,12.855379 22.4715845,12.855379 C26.1680126,12.855379 29.6741305,11.292511 32.1408556,8.59765625 L40.3535156,13.3446888 C27.4658767,14.1456344 19.353572,13.4166932 16.0166016,11.1578653 Z" id="Combined-Shape" fill="url(#linearGradient-3)" transform="translate(28.185059, 11.128418) scale(1, -1) translate(-28.185059, -11.128418) "></path>
                        </g>
                    </g>
                </g>
            </g>
        </g>
    </g>
</svg>