<?xml version="1.0" encoding="UTF-8"?>
<svg width="180px" height="111px" viewBox="0 0 180 111" version="1.1" xmlns="http://www.w3.org/2000/svg" xmlns:xlink="http://www.w3.org/1999/xlink">
    <!-- Generator: Sketch 50.2 (55047) - http://www.bohemiancoding.com/sketch -->
    <title>500k-wallet</title>
    <desc>Created with Sketch.</desc>
    <defs>
        <rect id="path-1" x="0" y="0" width="162.857143" height="111" rx="4.89795918"></rect>
        <linearGradient x1="69.3959415%" y1="100%" x2="69.3959415%" y2="0%" id="linearGradient-3">
            <stop stop-color="#80F3E4" offset="0%"></stop>
            <stop stop-color="#4A54E2" offset="100%"></stop>
        </linearGradient>
        <linearGradient x1="50%" y1="-10.8915827%" x2="50%" y2="100%" id="linearGradient-4">
            <stop stop-color="#80F3E4" offset="0%"></stop>
            <stop stop-color="#4A54E2" offset="100%"></stop>
        </linearGradient>
        <linearGradient x1="67.0628548%" y1="105.803189%" x2="67.0628548%" y2="0%" id="linearGradient-5">
            <stop stop-color="#80F3E4" offset="0%"></stop>
            <stop stop-color="#4A54E2" offset="100%"></stop>
        </linearGradient>
    </defs>
    <g id="Landing-Page--Milestones" stroke="none" stroke-width="1" fill="none" fill-rule="evenodd">
        <g id="Milestones" transform="translate(-531.000000, -1043.000000)">
            <g id="500k" transform="translate(531.000000, 975.000000)">
                <g id="500k-wallet" transform="translate(0.000000, 68.000000)">
                    <rect id="Rectangle-2" fill="#282757" x="13.4693878" y="0" width="162.857143" height="111" rx="4.89795918"></rect>
                    <g id="Rectangle-2">
                        <mask id="mask-2" fill="white">
                            <use xlink:href="#path-1"></use>
                        </mask>
                        <use id="Mask" fill="#3D3B80" xlink:href="#path-1"></use>
                        <path d="M2.71891353e-15,3.46389584e-14 L162.857143,111 L4.89795918,111 C2.19289102,111 -2.33325995e-15,108.807109 -2.66453526e-15,106.102041 L2.71891353e-15,3.46389584e-14 Z" fill="#282757" mask="url(#mask-2)"></path>
                    </g>
                    <path d="M145.657771,41.4725275 L177.55102,41.4725275 C178.903554,41.4725275 180,42.568973 180,43.9215071 L180,68.2982732 C180,69.6508072 178.903554,70.7472527 177.55102,70.7472527 L145.657771,70.7472527 C137.573779,70.7472527 131.020408,64.1938823 131.020408,56.1098901 C131.020408,48.0258979 137.573779,41.4725275 145.657771,41.4725275 Z M145.714286,63.4285714 C149.771888,63.4285714 153.061224,60.1518862 153.061224,56.1098901 C153.061224,52.067894 149.771888,48.7912088 145.714286,48.7912088 C141.656683,48.7912088 138.367347,52.067894 138.367347,56.1098901 C138.367347,60.1518862 141.656683,63.4285714 145.714286,63.4285714 Z" id="Combined-Shape" fill="#76D5E4"></path>
                    <path d="M131.020408,56.1098901 L180,56.1098901 L180,68.2982732 C180,69.6508072 178.903554,70.7472527 177.55102,70.7472527 L145.657771,70.7472527 C137.573779,70.7472527 131.020408,64.1938823 131.020408,56.1098901 Z M145.714286,63.4285714 C149.771888,63.4285714 153.061224,60.1518862 153.061224,56.1098901 C150.488481,56.1098901 141.508689,56.1098901 138.367347,56.1098901 C138.367347,60.1518862 141.656683,63.4285714 145.714286,63.4285714 Z" id="Combined-Shape" fill="#72C8E3"></path>
                    <g id="cacheIcon" transform="translate(49.000000, 25.000000)">
                        <circle id="Oval" fill="#F4F5FF" cx="30.5" cy="30.5" r="30.5"></circle>
                        <path d="M61,30.4967421 C61,13.6538565 47.3446849,0 30.5,0 C13.6553151,0 0,13.6538565 0,30.4967421 C0,47.3396276 61,47.3396276 61,30.4967421 Z" id="Oval" fill="#FFFFFF"></path>
                        <g id="Group" transform="translate(11.377930, 11.199219)">
                            <path d="M13.7607422,29.1253975 C15.3991033,30.0534813 17.2920145,30.5838247 19.3065726,30.5838247 C22.482377,30.5838247 25.4946755,29.241079 27.6139745,26.9257812 L34.6699219,31.0042177 C23.5974433,31.6923541 16.6277168,31.0660806 13.7607422,29.1253975 Z" id="Combined-Shape" fill="url(#linearGradient-3)"></path>
                            <path d="M19.3120578,0 C25.3973677,0 31.0237651,2.82533303 34.6699219,7.63280463 L27.6164937,11.7229318 C25.4979513,9.40099892 22.4867284,8.05440267 19.3120578,8.05440267 C13.1010184,8.05440267 8.04669075,13.1135743 8.04669075,19.3305664 C8.04669075,23.5317895 10.496084,26.9220476 13.7682074,29.1441224 C16.6341584,31.0903684 23.6013966,31.7184371 34.6699219,31.0283282 C33.4201766,32.6761221 31.9377882,34.0910498 30.2840172,35.2391578 C27.1128784,37.4406778 23.3115859,38.6611328 19.3120578,38.6611328 C8.66276631,38.6611328 0,29.9900657 0,19.3305664 C0,8.67106868 8.66276631,0 19.3120578,0 Z" id="Path" fill="url(#linearGradient-4)"></path>
                            <path d="M13.7607422,9.58633495 C15.3991033,10.5144188 17.2920145,11.0447622 19.3065726,11.0447622 C22.482377,11.0447622 25.4946755,9.7020165 27.6139745,7.38671875 L34.6699219,11.4651552 C23.5974433,12.1532916 16.6277168,11.5270181 13.7607422,9.58633495 Z" id="Combined-Shape" fill="url(#linearGradient-5)" transform="translate(24.215332, 9.561035) scale(1, -1) translate(-24.215332, -9.561035) "></path>
                        </g>
                    </g>
                </g>
            </g>
        </g>
    </g>
</svg>