<?xml version="1.0" encoding="UTF-8"?>
<svg width="120px" height="120px" viewBox="0 0 120 120" version="1.1" xmlns="http://www.w3.org/2000/svg" xmlns:xlink="http://www.w3.org/1999/xlink">
    <!-- Generator: Sketch 50.2 (55047) - http://www.bohemiancoding.com/sketch -->
    <title>5MM-icon</title>
    <desc>Created with Sketch.</desc>
    <defs></defs>
    <g id="Landing-Page---Token-Sale" stroke="none" stroke-width="1" fill="none" fill-rule="evenodd">
        <g id="Desktop-HD" transform="translate(-393.000000, -4440.000000)">
            <g id="Funding-Goals" transform="translate(-60.000000, 4010.000000)">
                <g id="Group-38" transform="translate(0.000000, 418.000000)">
                    <g id="5MM---SDKs" transform="translate(399.000000, 12.000000)">
                        <g id="5MM-icon" transform="translate(54.000000, 0.000000)">
                            <circle id="Oval-3-Copy-4" fill="#4D5EE2" cx="60" cy="60" r="60"></circle>
                            <g id="icons8-mac_os" transform="translate(46.000000, 17.000000)" fill="#FFFFFF" fill-rule="nonzero">
                                <path d="M28.9124648,24.7746401 C28.1246455,26.5063098 27.7487568,27.2827521 26.734375,28.8100962 C25.3235092,30.950421 23.3256399,33.6168867 20.854049,33.6322115 C18.6605114,33.6526442 18.0941058,32.2121401 15.1127489,32.2376806 C12.131392,32.2478963 11.5083455,33.6577521 9.30965909,33.6373194 C6.843217,33.6168867 4.95348077,31.2109382 3.53746482,29.080829 C-0.422229455,23.0991593 -0.839311409,16.0856367 1.60653409,12.356671 C3.33664773,9.71063669 6.07599432,8.15775208 8.65056818,8.15775208 C11.2663352,8.15775208 12.9140625,9.58293269 15.0818534,9.58293269 C17.1827056,9.58293269 18.4596943,8.15264423 21.4925433,8.15264423 C23.7787649,8.15264423 26.2040125,9.38882277 27.9341261,11.5291463 C22.2700636,14.6042672 23.1917614,22.6292074 28.9124648,24.7746401 Z M19.1908739,5.76201923 C20.2927909,4.36238046 21.1269535,2.38040931 20.8283022,0.362680615 C19.0261012,0.485276769 16.9252489,1.62439969 15.6946023,3.09555354 C14.5823864,4.43900208 13.6606886,6.43629808 14.0211296,8.36718815 C15.9829545,8.42848623 18.0117194,7.26893062 19.1908739,5.76201923 Z" id="Shape"></path>
                            </g>
                            <g id="icons8-android_os" transform="translate(25.000000, 57.000000)" fill="#FFFFFF">
                                <path d="M28.8647464,12.7551078 L28.8647464,20.9690502 C28.8647464,22.1286058 27.951498,23.0685096 26.8212897,23.0685096 C25.6961266,23.0685096 24.7828783,22.1286058 24.7828783,20.9690502 L24.7828783,12.7551078 C24.7828783,11.5955535 25.6910814,10.6556497 26.8212897,10.6556497 C27.951498,10.6556497 28.8647464,11.5955535 28.8647464,12.7551078 Z M2.17366504,10.6556497 C1.04850325,10.6556497 0.135253583,11.5955535 0.135253583,12.7551078 L0.135253583,20.9639423 C0.135253583,22.1234979 1.04850325,23.0685096 2.17366504,23.0685096 C3.30891992,23.0685096 4.21712304,22.1234979 4.21712304,20.9639423 L4.21712304,12.7551078 C4.21712304,11.5955535 3.30891992,10.6556497 2.17366504,10.6556497 Z M5.44824283,25.7145439 C5.44824283,26.6084732 6.16471354,27.3287266 7.04264388,27.3287266 L8.86409538,27.3287266 L8.86409538,31.9005405 C8.86409538,33.0600962 9.782389,34 10.9075521,34 C12.0377604,34 12.9510088,33.0600962 12.9510088,31.9005405 L12.9510088,27.3287266 L16.1297204,27.3287266 L16.1297204,31.9005405 C16.1297204,33.0600962 17.048014,34 18.1731771,34 C19.3033854,34 20.2166338,33.0600962 20.2166338,31.9005405 L20.2166338,27.3287266 L22.0380866,27.3287266 C22.9160156,27.3287266 23.6324876,26.6135824 23.6324876,25.7196518 L23.6324876,10.7169478 L5.44824283,10.7169478 L5.44824283,25.7145439 Z M23.5870765,9.38371362 L5.40787825,9.38371362 C5.64501921,6.58954392 7.51692708,4.20402677 10.1910814,2.94741554 L8.51090463,0.475059769 C8.40999317,0.332030923 8.435222,0.137921 8.561361,0.0459736231 C8.69254525,-0.0408653846 8.87923242,-9.70903045e-16 8.98518913,0.148136692 L10.7259115,2.71244023 C11.8763021,2.252704 13.1528317,1.997296 14.5,1.997296 C15.8471683,1.997296 17.1186527,2.252704 18.2740885,2.71244023 L20.0148109,0.148136692 C20.1207689,-9.70903045e-16 20.3074548,-0.0408653846 20.438639,0.0459736231 C20.5647793,0.137921 20.5900068,0.332030923 20.4890954,0.475059769 L18.8089199,2.94741554 C21.4780277,4.20402677 23.3549808,6.58954392 23.5870765,9.38371362 Z M11.6744792,5.81310162 C11.6744792,5.25120192 11.2203783,4.80168269 10.6653646,4.80168269 C10.1103522,4.80168269 9.65625,5.25630977 9.65625,5.81310162 C9.65625,6.38010785 10.1103522,6.83473623 10.6653646,6.83473623 C11.2203783,6.83473623 11.6744792,6.38010785 11.6744792,5.81310162 Z M19.4648438,5.81310162 C19.4648438,5.25120192 19.0157881,4.80168269 18.4607744,4.80168269 C17.905762,4.80168269 17.4567064,5.25630977 17.4567064,5.81310162 C17.4567064,6.38010785 17.905762,6.83473623 18.4607744,6.83473623 C19.0157881,6.83473623 19.4648438,6.38010785 19.4648438,5.81310162 Z" id="Shape"></path>
                            </g>
                            <g id="icons8-unity_filled" transform="translate(64.000000, 58.000000)" fill="#FFFFFF" fill-rule="nonzero">
                                <path d="M28.3009547,15.9870658 L30.243837,12.6960073 C30.321875,12.5318575 30.3326389,12.3434898 30.2734378,12.1739583 L26.4253472,1.15173611 C26.3069444,0.815364756 25.9544269,0.624305556 25.612674,0.707725867 L14.3025175,3.46328142 C14.0872398,3.51710087 13.9096352,3.67048611 13.8262156,3.8776908 L12.6233509,6.88888889 L8.95555556,6.88888889 C8.76449636,6.88888889 8.57881944,6.9696184 8.44965278,7.10954896 L0.182986111,16.0651045 C-0.0726564222,16.3422741 -0.0592010444,16.7728297 0.212586978,17.031163 L8.88289913,25.2978297 C9.009375,25.4216148 9.18159722,25.4888889 9.35651024,25.4888889 L13.309549,25.4888889 L14.5151045,28.500087 C14.6039064,28.7234378 14.803038,28.8822047 15.0371528,28.9225694 L27.065799,30.9892361 C27.1034722,30.9973092 27.143837,31 27.1815102,31 C27.5017361,31 27.784288,30.7793406 27.8542536,30.4591148 L30.2949656,19.278125 C30.3326389,19.1059028 30.303038,18.9256075 30.2088545,18.7722222 L28.3009547,15.9870658 Z M12.6233509,6.88888889 L22.3323786,5.11015642 L17.2222222,15.1555556 L5.62682309,15.1555556 L12.6233509,6.88888889 Z M13.3122398,25.4888889 L5.62682309,17.9111111 L17.2222222,17.9111111 L23.25,26.9823786 L13.3122398,25.4888889 Z M25.7552953,25.418924 L19.9777778,16.5333333 L25.0287325,6.4879342 L28.3009547,15.9897573 L25.7552953,25.418924 Z" id="Shape"></path>
                            </g>
                        </g>
                    </g>
                </g>
            </g>
        </g>
    </g>
</svg>