<?xml version="1.0" encoding="UTF-8"?>
<svg width="317px" height="84px" viewBox="0 0 317 84" version="1.1" xmlns="http://www.w3.org/2000/svg" xmlns:xlink="http://www.w3.org/1999/xlink">
    <!-- Generator: Sketch 50.2 (55047) - http://www.bohemiancoding.com/sketch -->
    <title>5mm-sdks-b2b</title>
    <desc>Created with Sketch.</desc>
    <defs></defs>
    <g id="Landing-Page--Milestones" stroke="none" stroke-width="1" fill="none" fill-rule="evenodd">
        <g id="Milestones" transform="translate(-733.000000, -2216.000000)">
            <g id="5MM" transform="translate(140.000000, 2134.000000)">
                <g id="5mm-sdks-b2b" transform="translate(593.000000, 82.000000)">
                    <g id="icons8-mac_os" transform="translate(0.000000, 3.000000)" fill-rule="nonzero">
                        <g id="Group-7" transform="translate(0.000000, 36.310345)">
                            <g id="icons8-market_square">
                                <polygon id="Shape" fill="#E3E4EF" points="99 18.4016227 49.5 0 0 18.4016227 0 26.2880325 49.5 44.6896552 99 26.2880325"></polygon>
                                <polygon id="Shape" fill="#F5F7FF" points="49.5 0 0 18.4016227 49.5 36.8032454 99 18.4016227"></polygon>
                            </g>
                        </g>
                        <path d="M74.25,40.9829708 C72.9431752,43.8901101 72.3196556,45.193607 70.6370117,47.7577231 C68.296685,51.3509156 64.9826442,55.8273971 60.8827999,55.8531246 C57.244187,55.8874271 56.3046404,53.4690986 51.3592027,53.5119762 C46.413765,53.5291264 45.3802631,55.8960022 41.7331094,55.8616997 C37.6418059,55.8273971 34.5071349,51.7882737 32.1582653,48.2122313 C25.5899736,38.1701618 24.8981232,26.3958102 28.9552613,20.1355962 C31.8251524,15.693415 36.3691464,13.0864213 40.6398176,13.0864213 C44.9788195,13.0864213 47.712049,15.4790246 51.3079535,15.4790246 C54.7928212,15.4790246 56.9110741,13.0778462 61.9419263,13.0778462 C65.7342823,13.0778462 69.7572529,15.1531515 72.6271439,18.7463418 C63.2316674,23.9088765 64.7605682,37.3812031 74.25,40.9829708 Z M58.1239458,9.06444798 C59.9517919,6.71472448 61.3354905,3.38737725 60.8400915,0 C57.8506228,0.205815293 54.3657552,2.11818294 52.3243738,4.58796646 C50.4794439,6.8433574 48.9505431,10.1964321 49.5484381,13.4380241 C52.802689,13.5409317 56.1679789,11.5942615 58.1239458,9.06444798 Z" id="Shape" fill="#62677A"></path>
                    </g>
                    <g id="Group-52" transform="translate(109.000000, 0.000000)">
                        <g id="Group-7" transform="translate(0.047139, 39.236246)" fill-rule="nonzero">
                            <g id="icons8-market_square">
                                <polygon id="Shape" fill="#E3E4EF" points="98.9032404 18.432134 49.4516202 0 0 18.432134 0 26.33162 49.4516202 44.763754 98.9032404 26.33162"></polygon>
                                <polygon id="Shape" fill="#F5F7FF" points="49.4516202 0 0 18.432134 49.4516202 36.864268 98.9032404 18.432134"></polygon>
                            </g>
                        </g>
                        <g id="icons8-android_os" transform="translate(22.525148, 0.067961)">
                            <path d="M6.68720773,37.6567485 C6.68720773,39.5509642 5.1892732,41.0882987 3.34360386,41.0882987 C1.49793453,41.0882987 0,39.5509642 0,37.6567485 L0,22.2147725 C0,20.3205568 1.49793453,18.7832223 3.34360386,18.7832223 C5.1892732,18.7832223 6.68720773,20.3205568 6.68720773,22.2147725 L6.68720773,37.6567485 Z" id="Shape" fill="#7CB342" fill-rule="nonzero"></path>
                            <path d="M55.0711225,37.6567485 C55.0711225,39.5509642 53.5731879,41.0882987 51.7275186,41.0882987 C49.8818493,41.0882987 48.3839147,39.5509642 48.3839147,37.6567485 L48.3839147,22.2147725 C48.3839147,20.3205568 49.8818493,18.7832223 51.7275186,18.7832223 C53.5731879,18.7832223 55.0711225,20.3205568 55.0711225,22.2147725 L55.0711225,37.6567485 Z" id="Shape" fill="#7CB342" fill-rule="nonzero"></path>
                            <path d="M24.38864,56.4399708 C24.38864,58.3341865 22.8025916,59.871521 20.8483535,59.871521 C18.8941154,59.871521 17.3080671,58.3341865 17.3080671,56.4399708 L17.3080671,40.9979948 C17.3080671,39.1037791 18.8941154,37.5664446 20.8483535,37.5664446 C22.8025916,37.5664446 24.38864,39.1037791 24.38864,40.9979948 L24.38864,56.4399708 Z" id="Shape" fill="#7CB342" fill-rule="nonzero"></path>
                            <path d="M38.1564206,56.4399708 C38.1564206,58.3341865 36.5703722,59.871521 34.6161341,59.871521 C32.661896,59.871521 31.0758477,58.3341865 31.0758477,56.4399708 L31.0758477,40.9979948 C31.0758477,39.1037791 32.661896,37.5664446 34.6161341,37.5664446 C36.5703722,37.5664446 38.1564206,39.1037791 38.1564206,40.9979948 L38.1564206,56.4399708 Z" id="Shape" fill="#7CB342" fill-rule="nonzero"></path>
                            <path d="M10.2274942,18.7832223 L10.2274942,44.3337287 C10.2274942,46.2143713 11.7606742,47.74069 13.6497711,47.74069 L41.0279862,47.74069 C42.9170831,47.74069 44.4502631,46.2143713 44.4502631,44.3337287 L44.4502631,18.7832223 L10.2274942,18.7832223 Z" id="Shape" fill="#7CB342" fill-rule="nonzero"></path>
                            <path d="M27.3388787,1.56526852 C17.072048,1.56526852 10.8178369,7.8055539 10.2274942,15.2613681 L44.4502631,15.2613681 C43.8582092,7.8055539 37.6057093,1.56526852 27.3388787,1.56526852 Z M20.4943249,11.1491142 C19.5497764,11.1491142 18.7831864,10.3821326 18.7831864,9.43710176 C18.7831864,8.49207089 19.5497764,7.72508931 20.4943249,7.72508931 C21.4388733,7.72508931 22.2054633,8.49207089 22.2054633,9.43710176 C22.2054633,10.3821326 21.4388733,11.1491142 20.4943249,11.1491142 Z M34.1834324,11.1491142 C33.2371729,11.1491142 32.472294,10.3821326 32.472294,9.43710176 C32.472294,8.49207089 33.2371729,7.72508931 34.1834324,7.72508931 C35.129692,7.72508931 35.8945709,8.49207089 35.8945709,9.43710176 C35.8945709,10.3821326 35.129692,11.1491142 34.1834324,11.1491142 Z" id="Shape" fill="#7CB342" fill-rule="nonzero"></path>
                            <path d="M37.7630554,0 L35.0094993,4.30448844" id="Shape" stroke="#7CB342" stroke-width="0.784" stroke-linecap="round"></path>
                            <path d="M17.3080671,0 L19.668258,3.52185418" id="Shape" stroke="#7CB342" stroke-width="0.784" stroke-linecap="round"></path>
                        </g>
                    </g>
                    <g id="Group-53" transform="translate(218.000000, 2.000000)" fill-rule="nonzero">
                        <g id="Group-7" transform="translate(0.096760, 37.181589)">
                            <g id="icons8-market_square">
                                <polygon id="Shape" fill="#E3E4EF" points="98.9032404 18.4546397 49.4516202 0 0 18.4546397 0 26.363771 49.4516202 44.8184106 98.9032404 26.363771"></polygon>
                                <polygon id="Shape" fill="#F5F7FF" points="49.4516202 0 0 18.4546397 49.4516202 36.9092794 98.9032404 18.4546397"></polygon>
                            </g>
                        </g>
                        <g id="icons8-unity_filled" transform="translate(14.145515, 0.206401)" fill="#000000">
                            <path d="M54.0422184,29.1239821 L57.752215,22.8588819 C57.9012311,22.5463943 57.9217851,22.1878037 57.8087388,21.8650713 L50.4606852,0.882361421 C50.2345912,0.242020261 49.5614476,-0.121694032 48.9088592,0.0371109846 L27.3117493,5.28278845 C26.9006694,5.38524309 26.5615278,5.67723848 26.4022354,6.07168851 L24.1053262,11.8040258 L17.1015522,11.8040258 C16.7367185,11.8040258 16.3821624,11.9577085 16.1355145,12.2240905 L0.35004679,29.2725423 C-0.138110906,29.8001827 -0.112417427,30.6198198 0.406570603,31.1116021 L16.9628124,46.8486345 C17.2043222,47.0842808 17.5331861,47.2123488 17.8671882,47.2123488 L25.4156436,47.2123488 L27.717691,52.9446861 C27.8872611,53.3698732 28.2675094,53.6721134 28.7145591,53.7489547 L51.6836485,57.6832128 C51.7555868,57.6985813 51.8326646,57.7037037 51.9046029,57.7037037 C52.5160846,57.7037037 53.0556266,57.2836403 53.1892283,56.6740349 L57.8498468,35.3890835 C57.9217851,35.0612287 57.8652613,34.7180053 57.6854149,34.4260099 L54.0422184,29.1239821 Z M24.1053262,11.8040258 L42.6450291,8.41790038 L32.8870199,27.5410583 L10.7452298,27.5410583 L24.1053262,11.8040258 Z M25.4207818,47.2123488 L10.7452298,32.7867357 L32.8870199,32.7867357 L44.3972568,50.0554653 L25.4207818,47.2123488 Z M49.1811993,47.0791584 L38.1488425,30.163897 L47.7938041,11.0407391 L54.0422184,29.1291058 L49.1811993,47.0791584 Z" id="Shape"></path>
                        </g>
                    </g>
                </g>
            </g>
        </g>
    </g>
</svg>