<?xml version="1.0" encoding="UTF-8"?>
<svg width="120px" height="120px" viewBox="0 0 120 120" version="1.1" xmlns="http://www.w3.org/2000/svg" xmlns:xlink="http://www.w3.org/1999/xlink">
    <!-- Generator: Sketch 50.2 (55047) - http://www.bohemiancoding.com/sketch -->
    <title>7.5MM-icon</title>
    <desc>Created with Sketch.</desc>
    <defs></defs>
    <g id="Landing-Page---Token-Sale" stroke="none" stroke-width="1" fill="none" fill-rule="evenodd">
        <g id="Desktop-HD" transform="translate(-660.000000, -4440.000000)">
            <g id="Funding-Goals" transform="translate(-60.000000, 4010.000000)">
                <g id="Group-38" transform="translate(0.000000, 418.000000)">
                    <g id="7.5MM---Cache-Dev-Fund" transform="translate(675.000000, 12.000000)">
                        <g id="7.5MM-icon" transform="translate(45.000000, 0.000000)">
                            <g id="icons8-rocket_filled" transform="translate(37.000000, 36.000000)"></g>
                            <circle id="Oval-3-Copy-5" fill="#4D5EE2" cx="60" cy="60" r="60"></circle>
                            <path d="M85.03125,36.96875 L83.96875,37 C83.664063,37.003906 76.5,37.15625 69.53125,40.625 C67.011719,41.882813 64.785156,43.496094 62.90625,45.375 C57.1875,51.09375 45.972656,65.332031 45.5,65.9375 L45.375,66.0625 L45.3125,66.25 C45.152344,66.773438 44.9375,68.808594 49.0625,72.9375 C52.21875,76.09375 54.175781,76.75 55.25,76.75 C55.492188,76.75 55.652344,76.71875 55.75,76.6875 L55.9375,76.625 L56.09375,76.5 C56.703125,76.019531 71.070313,64.648438 76.625,59.09375 C78.496094,57.21875 80.089844,54.988281 81.34375,52.46875 C84.796875,45.511719 84.992188,38.335938 85,38.03125 L85.03125,36.96875 Z M70,48 C72.210938,48 74,49.789063 74,52 C74,54.210938 72.210938,56 70,56 C67.789063,56 66,54.210938 66,52 C66,49.789063 67.789063,48 70,48 Z M45,56 C44.703125,56 44.410156,56.117188 44.21875,56.34375 L39.21875,62.34375 C39,62.609375 38.957031,62.984375 39.0625,63.3125 C39.167969,63.640625 39.414063,63.886719 39.75,63.96875 L43.6875,64.96875 L43.8125,64.84375 L43.90625,64.6875 C44.148438,64.378906 47.203125,60.496094 50.90625,56 L45,56 Z M44,69.59375 L43.15625,71 C42.589844,72 43.523438,73.710938 45.90625,76.09375 C47.851563,78.039063 49.304688,79 50.34375,79 C50.65625,79 50.859375,78.925781 51,78.84375 L52.40625,78 C50.96875,77.292969 49.398438,76.085938 47.65625,74.34375 C45.785156,72.46875 44.648438,70.90625 44,69.59375 Z M66,71.0625 C61.515625,74.761719 57.625,77.847656 57.3125,78.09375 L57.1875,78.1875 L57.03125,78.3125 L58.03125,82.25 C58.113281,82.585938 58.359375,82.832031 58.6875,82.9375 C58.789063,82.96875 58.894531,83 59,83 C59.230469,83 59.441406,82.933594 59.625,82.78125 L65.625,77.78125 C65.851563,77.589844 66,77.296875 66,77 L66,71.0625 Z M42.40625,74.21875 C40.773438,75.472656 39.296875,75.632813 37.96875,76.9375 C37.304688,77.589844 36.777344,78.515625 36.46875,79.78125 C36.160156,81.046875 36.03125,82.679688 36.03125,84.96875 L36.03125,85.96875 L37.03125,85.96875 C41.625,85.96875 43.871094,85.242188 45.21875,83.875 C46.566406,82.507813 46.789063,80.984375 47.8125,79.59375 L46.1875,78.40625 C44.890625,80.171875 44.601563,81.636719 43.78125,82.46875 C43.058594,83.203125 41.449219,83.742188 38.125,83.875 C38.175781,82.421875 38.246094,81.027344 38.4375,80.25 C38.6875,79.238281 38.992188,78.75 39.375,78.375 C40.136719,77.625 41.628906,77.289063 43.59375,75.78125 L42.40625,74.21875 Z" id="Shape" fill="#FFFFFF" fill-rule="nonzero"></path>
                        </g>
                    </g>
                </g>
            </g>
        </g>
    </g>
</svg>