<?xml version="1.0" encoding="UTF-8"?>
<svg width="45px" height="45px" viewBox="0 0 45 45" version="1.1" xmlns="http://www.w3.org/2000/svg" xmlns:xlink="http://www.w3.org/1999/xlink">
    <!-- Generator: Sketch 50.2 (55047) - http://www.bohemiancoding.com/sketch -->
    <title>bitcoin-logo</title>
    <desc>Created with Sketch.</desc>
    <defs></defs>
    <g id="Landing-Page---Token-Sale" stroke="none" stroke-width="1" fill="none" fill-rule="evenodd">
        <g id="Cache-Homepage" transform="translate(-674.000000, -1042.000000)" fill-rule="nonzero">
            <g id="Header">
                <g id="Group-14" transform="translate(428.000000, 1042.000000)">
                    <g id="Group-35" transform="translate(184.000000, 0.000000)">
                        <g id="bitcoin-logo" transform="translate(62.000000, 0.000000)">
                            <path d="M45,22.5 C45,34.9245 34.9245,45 22.5,45 C10.0755,45 0,34.9245 0,22.5 C0,10.0755 10.0755,0 22.5,0 C34.9245,0 45,10.0755 45,22.5 Z" id="Shape" fill="#FFC107"></path>
                            <path d="M14.625,33.75 L14.625,11.25 L23.848875,11.25 C26.560125,11.25 28.612125,11.773125 30.013875,12.819375 C31.415625,13.865625 32.11425,15.399 32.11425,17.416125 C32.11425,18.518625 31.833,19.490625 31.275,20.329875 C30.7125,21.169125 29.930625,21.7845 28.92825,22.176 C30.07125,22.46625 30.97125,23.045625 31.6305,23.925375 C32.290875,24.798375 32.625,25.866 32.625,27.136125 C32.625,29.298375 31.939875,30.9375 30.5685,32.049 C29.197125,33.1605 27.246375,33.7275 24.710625,33.75 L14.625,33.75 Z M19.125,20.25 L24.033375,20.25 C26.35425,20.210625 27.518625,19.323 27.518625,17.499375 C27.518625,16.480125 27.223875,15.7455 26.6355,15.29775 C26.047125,14.85 25.119,14.625 23.848875,14.625 L19.125,14.625 L19.125,20.25 Z M19.125,23.625 L19.125,30.375 L24.5745,30.375 C25.655625,30.375 28.125,29.847375 28.125,27.439875 C28.125,25.032375 26.868375,23.655375 24.75,23.625 L19.125,23.625 Z" id="Shape" fill="#FFF8E1"></path>
                            <polygon id="Shape" fill="#FFF8E1" points="18 7.875 21.375 7.875 21.375 13.5 18 13.5"></polygon>
                            <polygon id="Shape" fill="#FFF8E1" points="23.625 7.875 27 7.875 27 13.5 23.625 13.5"></polygon>
                            <polygon id="Shape" fill="#FFF8E1" points="18 31.5 21.375 31.5 21.375 37.125 18 37.125"></polygon>
                            <polygon id="Shape" fill="#FFF8E1" points="23.625 31.5 27 31.5 27 37.125 23.625 37.125"></polygon>
                        </g>
                    </g>
                </g>
            </g>
        </g>
    </g>
</svg>