<?xml version="1.0" encoding="UTF-8"?>
<svg width="101px" height="90px" viewBox="0 0 101 90" version="1.1" xmlns="http://www.w3.org/2000/svg" xmlns:xlink="http://www.w3.org/1999/xlink">
    <!-- Generator: Sketch 50.2 (55047) - http://www.bohemiancoding.com/sketch -->
    <title>cacheIcon-lvl2</title>
    <desc>Created with Sketch.</desc>
    <defs>
        <linearGradient x1="50%" y1="0%" x2="50%" y2="100%" id="linearGradient-1">
            <stop stop-color="#ACE8EE" offset="0%"></stop>
            <stop stop-color="#74CDD9" offset="100%"></stop>
        </linearGradient>
        <linearGradient x1="100%" y1="39.1686893%" x2="13.5058443%" y2="55.376647%" id="linearGradient-2">
            <stop stop-color="#ADE8EE" offset="0%"></stop>
            <stop stop-color="#74CDD9" offset="100%"></stop>
        </linearGradient>
    </defs>
    <g id="Landing-Page---Token-Sale" stroke="none" stroke-width="1" fill="none" fill-rule="evenodd">
        <g id="Desktop-HD" transform="translate(-536.000000, -711.000000)">
            <g id="Header">
                <g id="Group-22" transform="translate(197.000000, 669.000000)">
                    <g id="Group-20" transform="translate(264.333333, 0.000000)">
                        <g id="Group-19">
                            <g id="Group-16" transform="translate(17.000000, 42.000000)">
                                <g id="Group-17" transform="translate(58.000000, 0.000000)">
                                    <g id="cacheIcon-lvl2">
                                        <g id="cacheIcon-dark">
                                            <g id="cacheIcon">
                                                <circle id="Oval" fill="#19173F" cx="39.936" cy="39.936" r="39.936"></circle>
                                                <path d="M79.872,39.936 C79.872,17.8799562 61.9920438,0 39.936,0 C17.8799562,0 0,17.8799562 0,39.936 C0,61.9920438 79.872,61.9920438 79.872,39.936 Z" id="Oval" fill="#27254B"></path>
                                                <g id="Group" transform="translate(14.898000, 14.664000)">
                                                    <path d="M13.104,38.136127 C15.2492324,39.3513387 17.7277669,40.0457581 20.3655831,40.0457581 C24.5239085,40.0457581 28.4681429,38.2875977 31.2431045,35.256 L40.482,40.5962111 C25.9839507,41.497241 16.8579507,40.677213 13.104,38.136127 Z" id="Combined-Shape" fill="#3C7595"></path>
                                                    <path d="M18.018,38.136127 C20.1632324,39.3513387 22.6417669,40.0457581 25.2795831,40.0457581 C29.4379085,40.0457581 33.3821429,38.2875977 36.1571045,35.256 L45.396,40.5962111 C30.8979507,41.497241 21.7719507,40.677213 18.018,38.136127 Z" id="Combined-Shape" fill="url(#linearGradient-1)"></path>
                                                    <path d="M25.2867653,0 C33.2547303,0 40.621806,3.69942623 45.396,9.9942192 L36.160403,15.3497378 C33.3864323,12.3094522 29.443606,10.54625 25.2867653,10.54625 C17.1541728,10.54625 10.5361522,17.1706133 10.5361522,25.311 C10.5361522,30.8119851 13.7433315,35.2511113 18.0277748,38.1606449 C21.7803852,40.7090149 30.903127,41.5313935 45.396,40.6277808 C43.7596122,42.7853643 41.8186069,44.6380382 39.6531971,46.1413445 C35.5009807,49.0239643 30.5236556,50.622 25.2867653,50.622 C11.3428274,50.622 0,39.2683038 0,25.311 C0,11.3536983 11.3428274,0 25.2867653,0 Z" id="Path" fill="#3C7595"></path>
                                                    <path d="M25.2867653,0 C33.2547303,0 40.621806,3.69372604 45.396,9.97881979 L36.160403,15.3260865 C33.3864323,12.2904854 29.443606,10.53 25.2867653,10.53 C6.78584398,9.97881979 1.06660071,23.9894775 0,25.272 C0,11.3362042 11.3428274,0 25.2867653,0 Z" id="Path" fill="url(#linearGradient-2)"></path>
                                                </g>
                                            </g>
                                        </g>
                                        <g id="cacheIcon-dark" transform="translate(20.000000, 10.000000)">
                                            <g id="cacheIcon">
                                                <circle id="Oval" fill="#19173F" cx="39.936" cy="39.936" r="39.936"></circle>
                                                <path d="M79.872,39.936 C79.872,17.8799562 61.9920438,0 39.936,0 C17.8799562,0 0,17.8799562 0,39.936 C0,61.9920438 79.872,61.9920438 79.872,39.936 Z" id="Oval" fill="#27254B"></path>
                                                <g id="Group" transform="translate(14.898000, 14.664000)">
                                                    <path d="M13.104,38.136127 C15.2492324,39.3513387 17.7277669,40.0457581 20.3655831,40.0457581 C24.5239085,40.0457581 28.4681429,38.2875977 31.2431045,35.256 L40.482,40.5962111 C25.9839507,41.497241 16.8579507,40.677213 13.104,38.136127 Z" id="Combined-Shape" fill="#3C7595"></path>
                                                    <path d="M18.018,38.136127 C20.1632324,39.3513387 22.6417669,40.0457581 25.2795831,40.0457581 C29.4379085,40.0457581 33.3821429,38.2875977 36.1571045,35.256 L45.396,40.5962111 C30.8979507,41.497241 21.7719507,40.677213 18.018,38.136127 Z" id="Combined-Shape" fill="url(#linearGradient-1)"></path>
                                                    <path d="M25.2867653,0 C33.2547303,0 40.621806,3.69942623 45.396,9.9942192 L36.160403,15.3497378 C33.3864323,12.3094522 29.443606,10.54625 25.2867653,10.54625 C17.1541728,10.54625 10.5361522,17.1706133 10.5361522,25.311 C10.5361522,30.8119851 13.7433315,35.2511113 18.0277748,38.1606449 C21.7803852,40.7090149 30.903127,41.5313935 45.396,40.6277808 C43.7596122,42.7853643 41.8186069,44.6380382 39.6531971,46.1413445 C35.5009807,49.0239643 30.5236556,50.622 25.2867653,50.622 C11.3428274,50.622 0,39.2683038 0,25.311 C0,11.3536983 11.3428274,0 25.2867653,0 Z" id="Path" fill="#3C7595"></path>
                                                    <path d="M25.2867653,0 C33.2547303,0 40.621806,3.69372604 45.396,9.97881979 L36.160403,15.3260865 C33.3864323,12.2904854 29.443606,10.53 25.2867653,10.53 C6.78584398,9.97881979 1.06660071,23.9894775 0,25.272 C0,11.3362042 11.3428274,0 25.2867653,0 Z" id="Path" fill="url(#linearGradient-2)"></path>
                                                </g>
                                            </g>
                                        </g>
                                    </g>
                                </g>
                            </g>
                        </g>
                    </g>
                </g>
            </g>
        </g>
    </g>
</svg>