<?xml version="1.0" encoding="UTF-8"?>
<svg width="1890px" height="512px" viewBox="0 0 1890 512" version="1.1" xmlns="http://www.w3.org/2000/svg" xmlns:xlink="http://www.w3.org/1999/xlink">
    <!-- Generator: Sketch 50.2 (55047) - http://www.bohemiancoding.com/sketch -->
    <title>cacheLogo-full-light</title>
    <desc>Created with Sketch.</desc>
    <defs>
        <linearGradient x1="69.3959415%" y1="100%" x2="69.3959415%" y2="0%" id="linearGradient-1">
            <stop stop-color="#80F3E4" offset="0%"></stop>
            <stop stop-color="#4A54E2" offset="100%"></stop>
        </linearGradient>
        <linearGradient x1="50%" y1="-10.8915827%" x2="50%" y2="100%" id="linearGradient-2">
            <stop stop-color="#80F3E4" offset="0%"></stop>
            <stop stop-color="#4A54E2" offset="100%"></stop>
        </linearGradient>
        <linearGradient x1="67.0628548%" y1="105.803189%" x2="67.0628548%" y2="0%" id="linearGradient-3">
            <stop stop-color="#80F3E4" offset="0%"></stop>
            <stop stop-color="#4A54E2" offset="100%"></stop>
        </linearGradient>
    </defs>
    <g id="Inspiration-/-Logo" stroke="none" stroke-width="1" fill="none" fill-rule="evenodd">
        <g id="Artboard" transform="translate(-664.000000, -348.000000)">
            <g id="cacheLogo-full-light" transform="translate(664.000000, 251.000000)">
                <g id="cacheIcon" transform="translate(0.000000, 97.000000)">
                    <circle id="Oval" fill="#F4F5FF" cx="256" cy="256" r="256"></circle>
                    <path d="M512,255.972655 C512,114.602861 397.384896,0 256,0 C114.615104,0 0,114.602861 0,255.972655 C0,397.342448 512,397.342448 512,255.972655 Z" id="Oval" fill="#FFFFFF"></path>
                    <g id="Group" transform="translate(95.500000, 94.000000)">
                        <path d="M115.5,244.462352 C129.25149,252.252171 145.139532,256.703578 162.04861,256.703578 C188.704542,256.703578 213.988096,245.433319 231.776311,226 L291,260.232122 C198.063787,266.007955 139.563787,260.751365 115.5,244.462352 Z" id="Combined-Shape" fill="url(#linearGradient-1)"></path>
                        <path d="M162.094649,0 C213.171348,0 260.396193,23.7142707 291,64.0655077 L231.797455,98.3957553 C214.015591,78.906745 188.741064,67.6041667 162.094649,67.6041667 C109.962646,67.6041667 67.5394371,110.068034 67.5394371,162.25 C67.5394371,197.512725 88.0982789,225.968662 115.562659,244.619519 C139.617854,260.955224 198.096968,266.226882 291,260.434492 C280.510335,274.265156 268.067993,286.141271 254.187161,295.777849 C227.570389,314.256181 195.664459,324.5 162.094649,324.5 C72.710432,324.5 0,251.719896 0,162.25 C0,72.7801174 72.710432,0 162.094649,0 Z" id="Path" fill="url(#linearGradient-2)"></path>
                        <path d="M115.5,80.4623524 C129.25149,88.2521709 145.139532,92.7035779 162.04861,92.7035779 C188.704542,92.7035779 213.988096,81.4333188 231.776311,62 L291,96.2321224 C198.063787,102.007955 139.563787,96.7513654 115.5,80.4623524 Z" id="Combined-Shape" fill="url(#linearGradient-3)" transform="translate(203.250000, 80.250000) scale(1, -1) translate(-203.250000, -80.250000) "></path>
                    </g>
                </g>
                <path d="M773.5,498 C756.16658,498 740.083408,495.083363 725.25,489.25 C710.416592,483.416637 697.500055,475.000055 686.5,464 C675.499945,452.999945 666.833365,439.416747 660.5,423.25 C654.166635,407.083253 651,388.66677 651,368 C651,347.33323 654.499965,328.916747 661.5,312.75 C668.500035,296.583253 677.916608,283.000055 689.75,272 C701.583392,260.999945 715.333255,252.583363 731,246.75 C746.666745,240.916637 762.999915,238 780,238 C795.33341,238 808.916608,240.499975 820.75,245.5 C832.583392,250.500025 843.16662,256.833295 852.5,264.5 L818,312 C806.333275,302.333285 795.16672,297.5 784.5,297.5 C766.49991,297.5 752.333385,303.83327 742,316.5 C731.666615,329.16673 726.5,346.333225 726.5,368 C726.5,389.666775 731.749947,406.83327 742.25,419.5 C752.750053,432.16673 765.99992,438.5 782,438.5 C790.00004,438.5 797.749963,436.750018 805.25,433.25 C812.750037,429.749982 819.8333,425.500025 826.5,420.5 L855.5,468.5 C843.166605,479.16672 829.833405,486.749977 815.5,491.25 C801.166595,495.750023 787.166735,498 773.5,498 Z M961.5,498 C950.16661,498 939.916713,496.083352 930.75,492.25 C921.583287,488.416648 913.833365,483.083368 907.5,476.25 C901.166635,469.416632 896.250018,461.500045 892.75,452.5 C889.249982,443.499955 887.5,433.66672 887.5,423 C887.5,396.99987 898.49989,376.66674 920.5,362 C942.50011,347.33326 977.999755,337.500025 1027,332.5 C1026.33333,321.499945 1023.08336,312.750032 1017.25,306.25 C1011.41664,299.749968 1001.66674,296.5 988,296.5 C977.33328,296.5 966.750053,298.49998 956.25,302.5 C945.749947,306.50002 934.50006,311.999965 922.5,319 L896,270.5 C912.00008,260.833285 928.749912,253.00003 946.25,247 C963.750088,240.99997 982.333235,238 1002,238 C1034.00016,238 1058.41658,247.083242 1075.25,265.25 C1092.08342,283.416758 1100.5,311.666475 1100.5,350 L1100.5,492 L1040.5,492 L1035.5,466.5 L1033.5,466.5 C1022.83328,475.83338 1011.66673,483.416637 1000,489.25 C988.333275,495.083363 975.50007,498 961.5,498 Z M986.5,441 C994.833375,441 1001.99997,439.166685 1008,435.5 C1014.00003,431.833315 1020.3333,426.6667 1027,420 L1027,376.5 C1000.99987,380.166685 983.00005,385.499965 973,392.5 C962.99995,399.500035 958,407.833285 958,417.5 C958,425.50004 960.583308,431.416648 965.75,435.25 C970.916692,439.083352 977.83329,441 986.5,441 Z M1270.5,498 C1253.16658,498 1237.08341,495.083363 1222.25,489.25 C1207.41659,483.416637 1194.50005,475.000055 1183.5,464 C1172.49995,452.999945 1163.83336,439.416747 1157.5,423.25 C1151.16664,407.083253 1148,388.66677 1148,368 C1148,347.33323 1151.49996,328.916747 1158.5,312.75 C1165.50004,296.583253 1174.91661,283.000055 1186.75,272 C1198.58339,260.999945 1212.33326,252.583363 1228,246.75 C1243.66674,240.916637 1259.99991,238 1277,238 C1292.33341,238 1305.91661,240.499975 1317.75,245.5 C1329.58339,250.500025 1340.16662,256.833295 1349.5,264.5 L1315,312 C1303.33327,302.333285 1292.16672,297.5 1281.5,297.5 C1263.49991,297.5 1249.33338,303.83327 1239,316.5 C1228.66662,329.16673 1223.5,346.333225 1223.5,368 C1223.5,389.666775 1228.74995,406.83327 1239.25,419.5 C1249.75005,432.16673 1262.99992,438.5 1279,438.5 C1287.00004,438.5 1294.74996,436.750018 1302.25,433.25 C1309.75004,429.749982 1316.8333,425.500025 1323.5,420.5 L1352.5,468.5 C1340.1666,479.16672 1326.8334,486.749977 1312.5,491.25 C1298.1666,495.750023 1284.16674,498 1270.5,498 Z M1396,492 L1396,141.5 L1469.5,141.5 L1469.5,227.5 L1466,272 C1475.33338,263.666625 1486.1666,255.916703 1498.5,248.75 C1510.8334,241.583297 1525.49991,238 1542.5,238 C1569.50014,238 1589.08327,246.833245 1601.25,264.5 C1613.41673,282.166755 1619.5,306.66651 1619.5,338 L1619.5,492 L1546,492 L1546,347.5 C1546,329.49991 1543.58336,317.1667 1538.75,310.5 C1533.91664,303.8333 1526.16672,300.5 1515.5,300.5 C1506.16662,300.5 1498.1667,302.583313 1491.5,306.75 C1484.8333,310.916688 1477.50004,316.833295 1469.5,324.5 L1469.5,492 L1396,492 Z M1792.5,498 C1774.83325,498 1758.33341,495.083363 1743,489.25 C1727.66659,483.416637 1714.33339,474.916722 1703,463.75 C1691.66661,452.583278 1682.83336,439.00008 1676.5,423 C1670.16664,406.99992 1667,388.66677 1667,368 C1667,347.9999 1670.3333,329.916748 1677,313.75 C1683.6667,297.583253 1692.41661,283.916722 1703.25,272.75 C1714.08339,261.583278 1726.49993,253.00003 1740.5,247 C1754.50007,240.99997 1768.99993,238 1784,238 C1801.66675,238 1817.08327,240.99997 1830.25,247 C1843.41673,253.00003 1854.41662,261.33328 1863.25,272 C1872.08338,282.66672 1878.66665,295.249928 1883,309.75 C1887.33335,324.250072 1889.5,339.999915 1889.5,357 C1889.5,363.6667 1889.16667,369.99997 1888.5,376 C1887.83333,382.00003 1887.16667,386.499985 1886.5,389.5 L1738,389.5 C1741.33335,407.50009 1748.74994,420.749957 1760.25,429.25 C1771.75006,437.750043 1785.83325,442 1802.5,442 C1820.16675,442 1837.99991,436.500055 1856,425.5 L1880.5,470 C1867.83327,478.66671 1853.75008,485.499975 1838.25,490.5 C1822.74992,495.500025 1807.50007,498 1792.5,498 Z M1737.5,341 L1827,341 C1827,326.99993 1823.83336,315.66671 1817.5,307 C1811.16664,298.33329 1800.50007,294 1785.5,294 C1773.83327,294 1763.58338,297.833295 1754.75,305.5 C1745.91662,313.166705 1740.16668,324.99992 1737.5,341 Z" id="cache" fill="#FFFFFF"></path>
            </g>
        </g>
    </g>
</svg>