<svg id="Layer_1" data-name="Layer 1" xmlns="http://www.w3.org/2000/svg" viewBox="0 0 448 512"><defs><style>.cls-1{fill:#48abff;}</style></defs><title>copy</title><path class="cls-1" d="M433.94,65.94,382.06,14.06A48,48,0,0,0,348.12,0H176a48,48,0,0,0-48,48V96H48A48,48,0,0,0,0,144V464a48,48,0,0,0,48,48H272a48,48,0,0,0,48-48V416h80a48,48,0,0,0,48-48V99.88A48,48,0,0,0,433.94,65.94ZM266,464H54a6,6,0,0,1-6-6V150a6,6,0,0,1,6-6h74V368a48,48,0,0,0,48,48h96v42A6,6,0,0,1,266,464Zm128-96H182a6,6,0,0,1-6-6V54a6,6,0,0,1,6-6H288v88a24,24,0,0,0,24,24h88V362A6,6,0,0,1,394,368Zm6-256H336V48h9.63a6,6,0,0,1,4.25,1.76l48.36,48.37a6,6,0,0,1,1.76,4.24Z"/></svg>