<?xml version="1.0" encoding="UTF-8"?>
<svg width="17px" height="20px" viewBox="0 0 17 20" version="1.1" xmlns="http://www.w3.org/2000/svg" xmlns:xlink="http://www.w3.org/1999/xlink">
    <!-- Generator: Sketch 50.2 (55047) - http://www.bohemiancoding.com/sketch -->
    <title>copy-button</title>
    <desc>Created with Sketch.</desc>
    <defs></defs>
    <g id="Landing-Page---Purchase-Flow" stroke="none" stroke-width="1" fill="none" fill-rule="evenodd">
        <g id="Purchase-Page---Wallet-Transfer-2---Started" transform="translate(-947.000000, -494.000000)" fill="#FFFFFF" fill-rule="nonzero">
            <g id="Payment-Modal" transform="translate(303.000000, 289.000000)">
                <g id="Group-9" transform="translate(126.000000, 47.000000)">
                    <g id="Purchase-Wallet-Flow" transform="translate(0.000000, 115.000000)">
                        <g id="Group-12" transform="translate(77.000000, 0.000000)">
                            <g id="copy-button" transform="translate(441.000000, 43.000000)">
                                <path d="M2,0 C0.898438,0 0,0.898438 0,2 L0,15 L2,15 L2,2 L12,2 L12,0 L2,0 Z M6,4 C4.898438,4 4,4.898438 4,6 L4,18 C4,19.101563 4.898438,20 6,20 L15,20 C16.101563,20 17,19.101563 17,18 L17,6 C17,4.898438 16.101563,4 15,4 L6,4 Z M6,6 L15,6 L15,18 L6,18 L6,6 Z" id="Shape"></path>
                            </g>
                        </g>
                    </g>
                </g>
            </g>
        </g>
    </g>
</svg>