<?xml version="1.0" encoding="UTF-8"?>
<svg width="453px" height="247px" viewBox="0 0 453 247" version="1.1" xmlns="http://www.w3.org/2000/svg" xmlns:xlink="http://www.w3.org/1999/xlink">
    <!-- Generator: Sketch 50.2 (55047) - http://www.bohemiancoding.com/sketch -->
    <title>developer-focused</title>
    <desc>Created with Sketch.</desc>
    <defs></defs>
    <g id="Landing-Page---Token-Sale" stroke="none" stroke-width="1" fill="none" fill-rule="evenodd">
        <g id="Cache-Homepage" transform="translate(-180.000000, -2851.000000)">
            <g id="developer-focused" transform="translate(180.000000, 2851.000000)">
                <g id="icons8-mac_os" transform="translate(0.000000, 131.093851)" fill-rule="nonzero">
                    <g id="Group-7" transform="translate(0.000000, 51.957929)">
                        <g id="icons8-market_square">
                            <polygon id="Shape" fill="#E3E4EF" points="140.862191 26.33162 70.4310954 0 0 26.33162 0 37.6166 70.4310954 63.9482201 140.862191 37.6166"></polygon>
                            <polygon id="Shape" fill="#F5F7FF" points="70.4310954 0 0 26.33162 70.4310954 52.6632401 140.862191 26.33162"></polygon>
                        </g>
                    </g>
                    <path d="M105.646643,58.6441767 C103.787227,62.804119 102.900052,64.6693449 100.505901,68.3384415 C97.1759664,73.4800848 92.4605821,79.8856618 86.6271169,79.9224762 C81.449915,79.9715611 80.1130808,76.5110777 73.0764627,76.5724331 C66.0398446,76.5969739 64.5693261,79.9838316 59.3799719,79.9347467 C53.558659,79.8856618 49.0984912,74.105918 45.756401,68.9888155 C36.4107045,54.6192155 35.4263049,37.7708236 41.1990055,28.8128322 C45.2824311,22.456337 51.747855,18.7258851 57.8243812,18.7258851 C63.9981318,18.7258851 67.8871086,22.1495572 73.0035429,22.1495572 C77.9619882,22.1495572 80.9759452,18.7136147 88.1340954,18.7136147 C93.5300507,18.7136147 99.254136,21.6832523 103.337562,26.8248924 C89.969204,34.2121704 92.1446011,53.4902629 105.646643,58.6441767 Z M82.7016802,12.9706822 C85.3024319,9.60836859 87.2712279,4.84713397 86.5663493,0 C82.3127825,0.294509358 77.3543372,3.03099293 74.4497569,6.56510522 C71.8246976,9.79243458 69.6493004,14.5904837 70.5000156,19.2290076 C75.1303278,19.3762623 79.918632,16.5906938 82.7016802,12.9706822 Z" id="Shape" fill="#62677A"></path>
                </g>
                <g id="Group-52" transform="translate(155.931095, 127.000000)">
                    <g id="Group-7" transform="translate(0.067138, 56.051780)" fill-rule="nonzero">
                        <g id="icons8-market_square">
                            <polygon id="Shape" fill="#E3E4EF" points="140.862191 26.33162 70.4310954 0 0 26.33162 0 37.6166 70.4310954 63.9482201 140.862191 37.6166"></polygon>
                            <polygon id="Shape" fill="#F5F7FF" points="70.4310954 0 0 26.33162 70.4310954 52.6632401 140.862191 26.33162"></polygon>
                        </g>
                    </g>
                    <g id="icons8-android_os" transform="translate(32.081272, 0.097087)">
                        <path d="M9.52420495,53.795355 C9.52420495,56.5013775 7.39078304,58.6975696 4.76210247,58.6975696 C2.13342191,58.6975696 0,56.5013775 0,53.795355 L0,31.7353893 C0,29.0293668 2.13342191,26.8331747 4.76210247,26.8331747 C7.39078304,26.8331747 9.52420495,29.0293668 9.52420495,31.7353893 L9.52420495,53.795355 Z" id="Shape" fill="#7CB342" fill-rule="nonzero"></path>
                        <path d="M78.434629,53.795355 C78.434629,56.5013775 76.3012071,58.6975696 73.6725265,58.6975696 C71.0438459,58.6975696 68.910424,56.5013775 68.910424,53.795355 L68.910424,31.7353893 C68.910424,29.0293668 71.0438459,26.8331747 73.6725265,26.8331747 C76.3012071,26.8331747 78.434629,29.0293668 78.434629,31.7353893 L78.434629,53.795355 Z" id="Shape" fill="#7CB342" fill-rule="nonzero"></path>
                        <path d="M34.7353357,80.6285297 C34.7353357,83.3345522 32.4764184,85.5307443 29.6931095,85.5307443 C26.9098007,85.5307443 24.6508834,83.3345522 24.6508834,80.6285297 L24.6508834,58.568564 C24.6508834,55.8625415 26.9098007,53.6663494 29.6931095,53.6663494 C32.4764184,53.6663494 34.7353357,55.8625415 34.7353357,58.568564 L34.7353357,80.6285297 Z" id="Shape" fill="#7CB342" fill-rule="nonzero"></path>
                        <path d="M54.3439929,80.6285297 C54.3439929,83.3345522 52.0850756,85.5307443 49.3017668,85.5307443 C46.518458,85.5307443 44.2595406,83.3345522 44.2595406,80.6285297 L44.2595406,58.568564 C44.2595406,55.8625415 46.518458,53.6663494 49.3017668,53.6663494 C52.0850756,53.6663494 54.3439929,55.8625415 54.3439929,58.568564 L54.3439929,80.6285297 Z" id="Shape" fill="#7CB342" fill-rule="nonzero"></path>
                        <path d="M14.5664311,26.8331747 L14.5664311,63.3338981 C14.5664311,66.0205304 16.7500512,68.2009857 19.440583,68.2009857 L58.4337986,68.2009857 C61.1243305,68.2009857 63.3079505,66.0205304 63.3079505,63.3338981 L63.3079505,26.8331747 L14.5664311,26.8331747 Z" id="Shape" fill="#7CB342" fill-rule="nonzero"></path>
                        <path d="M38.9371908,2.23609789 C24.314735,2.23609789 15.4072223,11.1507913 14.5664311,21.8019544 L63.3079505,21.8019544 C62.4647222,11.1507913 53.5596466,2.23609789 38.9371908,2.23609789 Z M29.1888869,15.927306 C27.843621,15.927306 26.751811,14.831618 26.751811,13.4815739 C26.751811,12.1315298 27.843621,11.0358419 29.1888869,11.0358419 C30.5341529,11.0358419 31.6259629,12.1315298 31.6259629,13.4815739 C31.6259629,14.831618 30.5341529,15.927306 29.1888869,15.927306 Z M48.6854947,15.927306 C47.3377917,15.927306 46.2484187,14.831618 46.2484187,13.4815739 C46.2484187,12.1315298 47.3377917,11.0358419 48.6854947,11.0358419 C50.0331977,11.0358419 51.1225707,12.1315298 51.1225707,13.4815739 C51.1225707,14.831618 50.0331977,15.927306 48.6854947,15.927306 Z" id="Shape" fill="#7CB342" fill-rule="nonzero"></path>
                        <path d="M53.7837456,0 L49.8620141,6.1492692" id="Shape" stroke="#7CB342" stroke-width="1.12" stroke-linecap="round"></path>
                        <path d="M24.6508834,0 L28.0123675,5.03122026" id="Shape" stroke="#7CB342" stroke-width="1.12" stroke-linecap="round"></path>
                    </g>
                </g>
                <g id="Group-53" transform="translate(312.000000, 130.000000)" fill-rule="nonzero">
                    <g id="Group-7" transform="translate(0.137809, 53.051780)">
                        <g id="icons8-market_square">
                            <polygon id="Shape" fill="#E3E4EF" points="140.862191 26.33162 70.4310954 0 0 26.33162 0 37.6166 70.4310954 63.9482201 140.862191 37.6166"></polygon>
                            <polygon id="Shape" fill="#F5F7FF" points="70.4310954 0 0 26.33162 70.4310954 52.6632401 140.862191 26.33162"></polygon>
                        </g>
                    </g>
                    <g id="icons8-unity_filled" transform="translate(20.146643, 0.294498)" fill="#000000">
                        <path d="M76.9692201,41.55495 L82.2531547,32.6157218 C82.4653898,32.1698553 82.4946637,31.6582078 82.3336583,31.1977237 L71.8682486,1.2589791 C71.546236,0.345321592 70.5875162,-0.173636607 69.6580723,0.052951039 L38.898552,7.53763719 C38.3130746,7.68382246 37.8300548,8.10045003 37.6031837,8.66326288 L34.3318282,16.8423296 L24.3567562,16.8423296 C23.8371445,16.8423296 23.3321707,17.0616084 22.9808843,17.4416901 L0.498551489,41.7669201 C-0.196703412,42.5197729 -0.160109668,43.6892551 0.579055102,44.3909444 L24.1591571,66.8450028 C24.5031256,67.1812299 24.9715075,67.363961 25.4472074,67.363961 L36.1980379,67.363961 L39.4767114,75.5430277 C39.7182204,76.1496971 40.2597861,76.5809422 40.8964932,76.6905817 L73.6100448,82.3040963 C73.7125024,82.3260245 73.8222799,82.3333333 73.9247375,82.3333333 C74.7956356,82.3333333 75.5640743,81.7339746 75.7543554,80.8641718 L82.3922061,50.4941802 C82.4946637,50.0263873 82.4141601,49.5366661 82.1580151,49.1200386 L76.9692201,41.55495 Z M34.3318282,16.8423296 L60.7368597,12.0109066 L46.839089,39.296388 L15.3038121,39.296388 L34.3318282,16.8423296 Z M36.2053559,67.363961 L15.3038121,46.7810741 L46.839089,46.7810741 L63.2324567,71.4206029 L36.2053559,67.363961 Z M70.0459506,67.1739211 L54.3331999,43.0387311 L68.0699634,15.7532497 L76.9692201,41.5622607 L70.0459506,67.1739211 Z" id="Shape"></path>
                    </g>
                </g>
                <g id="Group-30" transform="translate(75.031802, 0.000000)" fill-rule="nonzero">
                    <g id="Group-7" transform="translate(0.000000, 42.365696)">
                        <g id="icons8-market_square">
                            <polygon id="Shape" fill="#E3E4EF" points="140.862191 26.33162 70.4310954 0 0 26.33162 0 37.6166 70.4310954 63.9482201 140.862191 37.6166"></polygon>
                            <polygon id="Shape" fill="#F5F7FF" points="70.4310954 0 0 26.33162 70.4310954 52.6632401 140.862191 26.33162"></polygon>
                        </g>
                    </g>
                    <g id="Group-7" transform="translate(160.070671, 42.365696)">
                        <g id="icons8-market_square">
                            <polygon id="Shape" fill="#E3E4EF" points="140.862191 26.33162 70.4310954 0 0 26.33162 0 37.6166 70.4310954 63.9482201 140.862191 37.6166"></polygon>
                            <polygon id="Shape" fill="#F5F7FF" points="70.4310954 0 0 26.33162 70.4310954 52.6632401 140.862191 26.33162"></polygon>
                        </g>
                    </g>
                    <g id="devslopes-logo" transform="translate(30.413428, 15.987055)" fill="#DB5252">
                        <polygon id="Triangle-2" points="46.3267597 0 80.0353357 53.5566343 12.6181836 53.5566343"></polygon>
                        <polygon id="Rectangle-2-Copy" points="23.3519381 17.0078501 28.4810429 23.2210539 9.13967431 53.5566343 0 53.5566343"></polygon>
                    </g>
                    <g id="icons8-github" transform="translate(195.286219, 0.000000)" fill="#282757">
                        <path d="M35.6157244,0 C15.9510661,0 0,15.931124 0,35.5711974 C0,55.2112708 15.9510661,71.1423948 35.6157244,71.1423948 C55.2803827,71.1423948 71.2314488,55.2112708 71.2314488,35.5711974 C71.2314488,15.931124 55.2803827,0 35.6157244,0 Z M35.6157244,5.55257716 C52.1857244,5.55257716 65.6719211,19.0219161 65.6719211,35.5711974 C65.6719211,36.8725827 65.5741957,38.1305884 65.4113182,39.3885942 C64.8575364,39.2476115 63.120184,38.8029722 61.2416724,38.7812811 C59.5586116,38.7595927 57.5389408,39.0415581 56.4639533,39.2150762 C56.7462744,38.0655206 56.985159,36.8400474 56.985159,35.5711974 C56.985159,32.4044933 55.7907306,29.3245481 53.6841894,26.7217776 C54.465998,24.2708367 55.5518433,18.6965684 53.4235866,16.5709725 C48.2115293,16.5709725 45.2797485,19.8786593 44.7368245,20.5618873 C42.347965,19.6942971 39.7636546,19.260502 37.0056063,19.260502 C34.3127101,19.260502 31.7066815,19.6509176 29.3612557,20.4751283 C28.6337387,19.5966939 25.7562495,16.5709725 20.7613613,16.5709725 C18.6765384,18.6531889 19.7189498,24.0214038 20.5007584,26.5482595 C18.2964919,29.1944096 17.0260536,32.3285784 17.0260536,35.5711974 C17.0260536,36.7641353 17.123779,37.9570704 17.3735241,39.0415581 C16.4614141,38.9656433 12.7586824,38.6945221 11.2927907,38.6945221 C9.82689887,38.6945221 7.41632379,39.0090228 5.82013057,39.3885942 C5.65725309,38.1305884 5.55952771,36.8725827 5.55952771,35.5711974 C5.55952771,19.0219161 19.0457272,5.55257716 35.6157244,5.55257716 Z M11.2927907,39.3885942 C12.7369642,39.3885942 17.1889311,39.789854 17.6341269,39.8223893 C17.7101368,40.0826664 17.7970044,40.3429434 17.8947298,40.6032205 C16.428838,40.4839261 13.2907459,40.2778755 11.2927907,40.5164614 C8.84963953,40.8092738 7.04713501,41.7744672 6.34133629,42.1648828 C6.18931935,41.4816548 6.01558411,40.7767385 5.90699819,40.0826664 C7.43803931,39.7247861 9.93548478,39.3885942 11.2927907,39.3885942 Z M61.2416724,39.4753532 C63.0658924,39.4970444 64.8575364,39.8874599 65.3244506,39.9959073 C65.2810168,40.3104081 65.2050069,40.6357558 65.1507153,40.9502565 C64.9118308,40.8851887 62.7401403,40.2236491 60.4598638,40.1694254 C59.3414425,40.13689 57.5715168,40.321255 56.2033504,40.4297024 C56.2685025,40.2561844 56.3227941,40.0826664 56.3770857,39.9091483 C57.3217717,39.7790098 59.5694721,39.4536649 61.2416724,39.4753532 Z M60.3729962,40.8634975 C62.5881205,40.9177212 64.9335463,41.6117934 65.0638477,41.6443287 C63.0116009,51.6107716 56.0078997,59.7227398 46.7347798,63.4208422 L46.7347798,58.6490962 C46.7347798,55.6450659 44.9431358,51.7409101 42.3913988,49.7996764 C49.5796958,48.7694123 54.0533782,45.591864 55.9427476,41.1237746 C57.2349041,41.0153272 59.2111411,40.8309622 60.3729962,40.8634975 Z M13.5513488,41.1237746 C15.5384463,41.1346188 17.3192325,41.2322247 18.1553327,41.2972926 C20.0881386,45.6677788 24.529245,48.7802593 31.6198138,49.7996764 C30.8162897,50.4178337 30.0670544,51.220356 29.4481233,52.1421699 C29.4264078,52.1747052 29.382974,52.1963936 29.3612557,52.2289289 C27.9713738,53.8990414 25.3653452,53.7905912 22.9330518,53.7905912 C20.4464669,53.7905912 18.9588596,51.805978 17.6341269,50.0599534 C16.2985366,48.3247731 14.5611842,48.1729462 13.6382164,48.064496 C12.7152486,47.9668928 12.4655035,48.4332232 12.9432754,48.7585682 C15.6470294,50.6564224 16.7111592,52.9772247 17.8078622,55.0052175 C18.7959821,56.8271568 20.8265134,57.781506 23.106787,57.781506 L27.3633004,57.781506 C27.3307244,58.0634742 27.2764328,58.377975 27.2764328,58.6490962 L27.2764328,64.3751914 C17.0369114,61.4253848 9.11024239,53.2266576 6.51507153,42.8589549 C7.05799555,42.5552984 8.9690832,41.4925018 11.3796583,41.2105336 C11.9551556,41.1454657 12.7261064,41.1237746 13.5513488,41.1237746 Z M37.0056063,57.781506 C37.7765571,57.781506 38.3954882,58.3996633 38.3954882,59.1696503 L38.3954882,65.4162996 C37.4725205,65.5030586 36.5604104,65.5898177 35.6157244,65.5898177 L35.6157244,59.1696503 C35.6157244,58.3996633 36.2346555,57.781506 37.0056063,57.781506 Z M31.4460786,59.4299274 C32.2170294,59.4299274 32.8359605,60.0480847 32.8359605,60.8180717 L32.8359605,65.4162996 C31.9129928,65.3295406 30.9574489,65.2319374 30.0561967,65.0692636 L30.0561967,60.8180717 C30.0561967,60.0480847 30.6751278,59.4299274 31.4460786,59.4299274 Z M42.565134,59.4299274 C43.3360848,59.4299274 43.9550159,60.0480847 43.9550159,60.8180717 L43.9550159,64.3751914 C43.0429059,64.6354685 42.1199382,64.8957455 41.1752521,65.0692636 L41.1752521,60.8180717 C41.1752521,60.0480847 41.7941832,59.4299274 42.565134,59.4299274 Z" id="Shape"></path>
                    </g>
                </g>
            </g>
        </g>
    </g>
</svg>