<?xml version="1.0" encoding="UTF-8"?>
<svg width="315px" height="47px" viewBox="0 0 315 47" version="1.1" xmlns="http://www.w3.org/2000/svg" xmlns:xlink="http://www.w3.org/1999/xlink">
    <!-- Generator: Sketch 50.2 (55047) - http://www.bohemiancoding.com/sketch -->
    <title>devslopes-logo</title>
    <desc>Created with Sketch.</desc>
    <defs></defs>
    <g id="Landing-Page--Partners" stroke="none" stroke-width="1" fill="none" fill-rule="evenodd">
        <g id="Partners-&amp;-trusted-companies" transform="translate(-813.000000, -514.000000)">
            <g id="Group-5" transform="translate(811.000000, 514.000000)">
                <g id="Group-4">
                    <g id="devslopes-logo" transform="translate(2.000000, 0.000000)">
                        <g fill="#DB5252" fill-rule="nonzero">
                            <polygon id="Triangle-2" points="40.0000001 0 69 47 11 47"></polygon>
                            <polygon id="Rectangle-2-Copy" points="20.0878348 15.1612903 24.5 20.573793 7.8621426 47 0 47"></polygon>
                        </g>
                        <path d="M91.6367188,39 L91.6367188,12.3203125 L102.164062,12.3203125 C106.356792,12.3203125 109.764961,13.5442586 112.388672,15.9921875 C115.012383,18.4401164 116.324219,21.6562301 116.324219,25.640625 C116.324219,28.2968883 115.728522,30.6406148 114.537109,32.671875 C113.345697,34.7031352 111.682302,36.2656195 109.546875,37.359375 C107.411448,38.4531305 104.963555,39 102.203125,39 L91.6367188,39 Z M97.3203125,34 L102.164062,34 C103.8698,34 105.367181,33.6158893 106.65625,32.8476562 C107.945319,32.0794232 108.912106,31.0703187 109.556641,29.8203125 C110.201175,28.5703063 110.523438,27.177091 110.523438,25.640625 C110.523438,23.205717 109.794278,21.2102942 108.335938,19.6542969 C106.877597,18.0982995 104.833346,17.3203125 102.203125,17.3203125 L97.3203125,17.3203125 L97.3203125,34 Z M120.347656,39 L120.347656,12.3203125 L139.234375,12.3203125 L139.234375,17.3203125 L126.03125,17.3203125 L126.03125,22.9257812 L138.941406,22.9257812 L138.941406,27.9257812 L126.03125,27.9257812 L126.03125,34 L139.234375,34 L139.234375,39 L120.347656,39 Z M140.855469,12.3203125 L147.300781,12.3203125 L154.683594,32.8085938 L162.085938,12.3203125 L168.53125,12.3203125 L158.257812,39 L151.128906,39 L140.855469,12.3203125 Z M169.15625,35.2304688 L172.28125,30.796875 C173.309901,31.8776096 174.550123,32.756507 176.001953,33.4335938 C177.453783,34.1106805 179.039054,34.4492188 180.757812,34.4492188 C182.255216,34.4492188 183.401038,34.1660185 184.195312,33.5996094 C184.989587,33.0332003 185.386719,32.3268271 185.386719,31.4804688 C185.386719,30.933591 185.165367,30.4615905 184.722656,30.0644531 C184.279946,29.6673157 183.700524,29.3613292 182.984375,29.1464844 C182.268226,28.9316396 181.451176,28.7037772 180.533203,28.4628906 C179.61523,28.222004 178.674484,27.9941417 177.710938,27.7792969 C176.747391,27.5644521 175.806645,27.2519552 174.888672,26.8417969 C173.970699,26.4316386 173.153649,25.9563829 172.4375,25.4160156 C171.721351,24.8756483 171.141929,24.1432338 170.699219,23.21875 C170.256508,22.2942662 170.035156,21.2330789 170.035156,20.0351562 C170.035156,17.7434781 170.956371,15.8196692 172.798828,14.2636719 C174.641285,12.7076745 177.092433,11.9296875 180.152344,11.9296875 C184.423198,11.9296875 187.893216,13.1666543 190.5625,15.640625 L187.398438,19.8789062 C186.343745,18.9153598 185.13933,18.1894556 183.785156,17.7011719 C182.430983,17.2128882 181.050788,16.96875 179.644531,16.96875 C178.459629,16.96875 177.53516,17.2063778 176.871094,17.6816406 C176.207028,18.1569034 175.875,18.798173 175.875,19.6054688 C175.875,20.1002629 176.093097,20.5299461 176.529297,20.8945312 C176.965497,21.2591164 177.544918,21.5423167 178.267578,21.7441406 C178.990238,21.9459646 179.810542,22.1673165 180.728516,22.4082031 C181.646489,22.6490897 182.580724,22.8802072 183.53125,23.1015625 C184.481776,23.3229178 185.416011,23.6451802 186.333984,24.0683594 C187.251958,24.4915386 188.072262,24.9798149 188.794922,25.5332031 C189.517582,26.0865913 190.097003,26.8255162 190.533203,27.75 C190.969403,28.6744838 191.1875,29.7291607 191.1875,30.9140625 C191.1875,33.4661586 190.272796,35.5331952 188.443359,37.1152344 C186.613923,38.6972735 183.973976,39.4882812 180.523438,39.4882812 C175.78383,39.4882812 171.994806,38.0690246 169.15625,35.2304688 Z M194.742188,39 L194.742188,12.3203125 L200.464844,12.3203125 L200.464844,34 L211.734375,34 L211.734375,39 L194.742188,39 Z M215.328125,31.2265625 C214.638017,29.5078039 214.292969,27.6588641 214.292969,25.6796875 C214.292969,23.7005109 214.641273,21.8515711 215.337891,20.1328125 C216.034509,18.4140539 216.994786,16.95248 218.21875,15.7480469 C219.442714,14.5436138 220.920564,13.5963576 222.652344,12.90625 C224.384123,12.2161424 226.246084,11.8710938 228.238281,11.8710938 C230.894545,11.8710938 233.280588,12.4570254 235.396484,13.6289062 C237.51238,14.8007871 239.169265,16.4413957 240.367188,18.5507812 C241.56511,20.6601668 242.164062,23.0364451 242.164062,25.6796875 C242.164062,28.3229299 241.56511,30.6992082 240.367188,32.8085938 C239.169265,34.9179793 237.51238,36.5585879 235.396484,37.7304688 C233.280588,38.9023496 230.894545,39.4882812 228.238281,39.4882812 C226.246084,39.4882812 224.384123,39.1432326 222.652344,38.453125 C220.920564,37.7630174 219.442714,36.8157612 218.21875,35.6113281 C216.994786,34.406895 216.031254,32.9453211 215.328125,31.2265625 Z M220.132812,25.6796875 C220.132812,28.2057418 220.874993,30.2988198 222.359375,31.9589844 C223.843757,33.6191489 225.803373,34.4492188 228.238281,34.4492188 C230.660168,34.4492188 232.613274,33.6191489 234.097656,31.9589844 C235.582039,30.2988198 236.324219,28.2057418 236.324219,25.6796875 C236.324219,23.1406123 235.582039,21.0475343 234.097656,19.4003906 C232.613274,17.753247 230.660168,16.9296875 228.238281,16.9296875 C225.790352,16.9296875 223.827481,17.753247 222.349609,19.4003906 C220.871737,21.0475343 220.132812,23.1406123 220.132812,25.6796875 Z M246.148438,39 L246.148438,12.3203125 L258.628906,12.3203125 C260.035163,12.3203125 261.314447,12.5481748 262.466797,13.0039062 C263.619146,13.4596377 264.563147,14.0781211 265.298828,14.859375 C266.034509,15.6406289 266.600909,16.5488229 266.998047,17.5839844 C267.395184,18.6191458 267.59375,19.7291607 267.59375,20.9140625 C267.59375,22.0859434 267.395184,23.1861928 266.998047,24.2148438 C266.600909,25.2434947 266.031254,26.1516888 265.289062,26.9394531 C264.546871,27.7272175 263.60287,28.3489561 262.457031,28.8046875 C261.311192,29.2604189 260.035163,29.4882812 258.628906,29.4882812 L251.832031,29.4882812 L251.832031,39 L246.148438,39 Z M251.832031,24.4882812 L257.828125,24.4882812 C258.973964,24.4882812 259.92122,24.1627637 260.669922,23.5117188 C261.418624,22.8606738 261.792969,21.9947971 261.792969,20.9140625 C261.792969,19.820307 261.418624,18.9479199 260.669922,18.296875 C259.92122,17.6458301 258.973964,17.3203125 257.828125,17.3203125 L251.832031,17.3203125 L251.832031,24.4882812 Z M271.148438,39 L271.148438,12.3203125 L290.035156,12.3203125 L290.035156,17.3203125 L276.832031,17.3203125 L276.832031,22.9257812 L289.742188,22.9257812 L289.742188,27.9257812 L276.832031,27.9257812 L276.832031,34 L290.035156,34 L290.035156,39 L271.148438,39 Z M292.613281,35.2304688 L295.738281,30.796875 C296.766932,31.8776096 298.007154,32.756507 299.458984,33.4335938 C300.910815,34.1106805 302.496085,34.4492188 304.214844,34.4492188 C305.712247,34.4492188 306.858069,34.1660185 307.652344,33.5996094 C308.446619,33.0332003 308.84375,32.3268271 308.84375,31.4804688 C308.84375,30.933591 308.622398,30.4615905 308.179688,30.0644531 C307.736977,29.6673157 307.157556,29.3613292 306.441406,29.1464844 C305.725257,28.9316396 304.908208,28.7037772 303.990234,28.4628906 C303.072261,28.222004 302.131515,27.9941417 301.167969,27.7792969 C300.204422,27.5644521 299.263676,27.2519552 298.345703,26.8417969 C297.42773,26.4316386 296.610681,25.9563829 295.894531,25.4160156 C295.178382,24.8756483 294.598961,24.1432338 294.15625,23.21875 C293.713539,22.2942662 293.492188,21.2330789 293.492188,20.0351562 C293.492188,17.7434781 294.413402,15.8196692 296.255859,14.2636719 C298.098317,12.7076745 300.549464,11.9296875 303.609375,11.9296875 C307.88023,11.9296875 311.350247,13.1666543 314.019531,15.640625 L310.855469,19.8789062 C309.800776,18.9153598 308.596361,18.1894556 307.242188,17.7011719 C305.888014,17.2128882 304.50782,16.96875 303.101562,16.96875 C301.916661,16.96875 300.992191,17.2063778 300.328125,17.6816406 C299.664059,18.1569034 299.332031,18.798173 299.332031,19.6054688 C299.332031,20.1002629 299.550128,20.5299461 299.986328,20.8945312 C300.422528,21.2591164 301.00195,21.5423167 301.724609,21.7441406 C302.447269,21.9459646 303.267574,22.1673165 304.185547,22.4082031 C305.10352,22.6490897 306.037756,22.8802072 306.988281,23.1015625 C307.938807,23.3229178 308.873042,23.6451802 309.791016,24.0683594 C310.708989,24.4915386 311.529293,24.9798149 312.251953,25.5332031 C312.974613,26.0865913 313.554034,26.8255162 313.990234,27.75 C314.426434,28.6744838 314.644531,29.7291607 314.644531,30.9140625 C314.644531,33.4661586 313.729827,35.5331952 311.900391,37.1152344 C310.070954,38.6972735 307.431007,39.4882812 303.980469,39.4882812 C299.240862,39.4882812 295.451837,38.0690246 292.613281,35.2304688 Z" id="DEVSLOPES" fill="#494B5B"></path>
                    </g>
                </g>
            </g>
        </g>
    </g>
</svg>