<?xml version="1.0" encoding="UTF-8"?>
<svg width="107px" height="79px" viewBox="0 0 107 79" version="1.1" xmlns="http://www.w3.org/2000/svg" xmlns:xlink="http://www.w3.org/1999/xlink">
    <!-- Generator: Sketch 50.2 (55047) - http://www.bohemiancoding.com/sketch -->
    <title>free-cache-js-sdk</title>
    <desc>Created with Sketch.</desc>
    <defs></defs>
    <g id="Landing-Page--Milestones" stroke="none" stroke-width="1" fill="none" fill-rule="evenodd">
        <g id="Milestones" transform="translate(-758.000000, -673.000000)" fill="#61AAFF" fill-rule="nonzero">
            <g id="FREE" transform="translate(140.000000, 589.000000)">
                <g id="free-cache-js-sdk" transform="translate(618.000000, 84.000000)">
                    <path d="M53.5446471,0 C53.2607822,0 53.0019627,0.0250143864 52.7431433,0.133407215 L1.44689985,21.4785615 C0.653744513,21.8120796 0.111060181,22.6208603 0.111060181,23.4796698 C0.111060181,24.3384792 0.653744513,25.1472599 1.44689985,25.480778 L52.7431433,46.8259323 C53.0019627,46.9343251 53.2607822,46.9593395 53.5446471,46.9593395 C53.8285141,46.9593395 54.0873314,46.9343251 54.3461509,46.8259323 L105.642394,25.480778 C106.43555,25.1472599 106.978234,24.3384792 106.978234,23.4796698 C106.978234,22.6208603 106.43555,21.8120796 105.642394,21.4785615 L54.3461509,0.133407215 C54.0789829,0.0250143864 53.8285141,0 53.5446471,0 Z M1.84765175,32.0177315 C0.862471065,32.1511387 0.102711183,32.9432446 0.0108722057,33.9271217 C-0.0893157697,34.911001 0.511812083,35.8365141 1.44689985,36.1533552 L52.7431433,57.4985095 C53.2607822,57.7069577 53.8285141,57.7069577 54.3461509,57.4985095 L105.642394,36.1533552 C106.75281,35.7114443 107.287146,34.4607506 106.84465,33.3518036 C106.402154,32.2428567 105.149803,31.7092279 104.039387,32.1511387 L53.5446471,53.162775 L3.04990746,32.1511387 C2.67420309,31.9927171 2.25675212,31.9426905 1.84765175,32.0177315 Z M1.84765175,42.6903087 C0.862471065,42.8237159 0.102711183,43.6158218 0.0108722057,44.5996989 C-0.0893157697,45.5835782 0.511812083,46.5090913 1.44689985,46.8259323 L52.7431433,68.1710867 C53.2607822,68.3795349 53.8285141,68.3795349 54.3461509,68.1710867 L105.642394,46.8259323 C106.75281,46.3840215 107.287146,45.1333278 106.84465,44.0243808 C106.402154,42.9154339 105.149803,42.381805 104.039387,42.8237159 L53.5446471,63.8353522 L3.04990746,42.8237159 C2.67420309,42.6652943 2.25675212,42.6152676 1.84765175,42.6903087 Z M1.84765175,53.3628858 C0.862471065,53.496293 0.102711183,54.2883989 0.0108722057,55.2722761 C-0.0893157697,56.2561553 0.511812083,57.1816684 1.44689985,57.4985095 L52.7431433,78.8436638 C53.2607822,79.0521121 53.8285141,79.0521121 54.3461509,78.8436638 L105.642394,57.4985095 C106.75281,57.0565986 107.287146,55.8059049 106.84465,54.696958 C106.402154,53.588011 105.149803,53.0543822 104.039387,53.496293 L53.5446471,74.5079293 L3.04990746,53.496293 C2.67420309,53.3378714 2.25675212,53.2878448 1.84765175,53.3628858 Z" id="Shape"></path>
                </g>
            </g>
        </g>
    </g>
</svg>