<?xml version="1.0" encoding="UTF-8"?>
<svg width="120px" height="120px" viewBox="0 0 120 120" version="1.1" xmlns="http://www.w3.org/2000/svg" xmlns:xlink="http://www.w3.org/1999/xlink">
    <!-- Generator: Sketch 50.2 (55047) - http://www.bohemiancoding.com/sketch -->
    <title>free-icon</title>
    <desc>Created with Sketch.</desc>
    <defs></defs>
    <g id="Landing-Page---Token-Sale" stroke="none" stroke-width="1" fill="none" fill-rule="evenodd">
        <g id="Desktop-HD" transform="translate(-251.000000, -4127.000000)">
            <g id="Funding-Goals" transform="translate(-60.000000, 4010.000000)">
                <g id="Group-39" transform="translate(276.000000, 117.000000)">
                    <g id="Free---Cache-Javascript-SDK">
                        <g id="free-icon" transform="translate(35.000000, 0.000000)">
                            <g id="Group-31">
                                <circle id="Oval-3" fill="#4D5EE2" cx="60" cy="60" r="60"></circle>
                                <path d="M59.8696467,38 C59.711294,38 59.5669127,38.0141862 59.4225314,38.0756579 L30.8071467,50.1809211 C30.3646885,50.3700658 30.0619544,50.8287415 30.0619544,51.3157895 C30.0619544,51.8028375 30.3646885,52.2615132 30.8071467,52.4506579 L59.4225314,64.5559211 C59.5669127,64.6173928 59.711294,64.6315789 59.8696467,64.6315789 C60.0280007,64.6315789 60.1723808,64.6173928 60.3167621,64.5559211 L88.9321467,52.4506579 C89.374605,52.2615132 89.6773391,51.8028375 89.6773391,51.3157895 C89.6773391,50.8287415 89.374605,50.3700658 88.9321467,50.1809211 L60.3167621,38.0756579 C60.1677237,38.0141862 60.0280007,38 59.8696467,38 Z M31.0307044,56.1578947 C30.4811257,56.2335526 30.057297,56.6827717 30.006065,57.2407481 C29.9501756,57.7987256 30.2855121,58.3236026 30.8071467,58.5032895 L59.4225314,70.6085526 C59.711294,70.7267678 60.0280007,70.7267678 60.3167621,70.6085526 L88.9321467,58.5032895 C89.5515876,58.252673 89.8496645,57.5433796 89.6028198,56.9144737 C89.3559752,56.2855677 88.6573568,55.9829362 88.037916,56.2335526 L59.8696467,68.1496711 L31.7013775,56.2335526 C31.4917925,56.1437086 31.2589193,56.1153375 31.0307044,56.1578947 Z M31.0307044,62.2105263 C30.4811257,62.2861842 30.057297,62.7354033 30.006065,63.2933796 C29.9501756,63.8513572 30.2855121,64.3762342 30.8071467,64.5559211 L59.4225314,76.6611842 C59.711294,76.7793994 60.0280007,76.7793994 60.3167621,76.6611842 L88.9321467,64.5559211 C89.5515876,64.3053046 89.8496645,63.5960112 89.6028198,62.9671053 C89.3559752,62.3381993 88.6573568,62.0355677 88.037916,62.2861842 L59.8696467,74.2023026 L31.7013775,62.2861842 C31.4917925,62.1963402 31.2589193,62.1679691 31.0307044,62.2105263 Z M31.0307044,68.2631579 C30.4811257,68.3388158 30.057297,68.7880348 30.006065,69.3460112 C29.9501756,69.9039888 30.2855121,70.4288657 30.8071467,70.6085526 L59.4225314,82.7138158 C59.711294,82.8320309 60.0280007,82.8320309 60.3167621,82.7138158 L88.9321467,70.6085526 C89.5515876,70.3579362 89.8496645,69.6486428 89.6028198,69.0197368 C89.3559752,68.3908309 88.6573568,68.0881993 88.037916,68.3388158 L59.8696467,80.2549342 L31.7013775,68.3388158 C31.4917925,68.2489717 31.2589193,68.2206006 31.0307044,68.2631579 Z" id="Shape" fill="#FFFFFF" fill-rule="nonzero"></path>
                            </g>
                            <g id="icons8-sheets_filled" transform="translate(33.000000, 38.000000)"></g>
                        </g>
                    </g>
                </g>
            </g>
        </g>
    </g>
</svg>