<?xml version="1.0" encoding="UTF-8"?>
<svg width="30px" height="30px" viewBox="0 0 30 30" version="1.1" xmlns="http://www.w3.org/2000/svg" xmlns:xlink="http://www.w3.org/1999/xlink">
    <!-- Generator: Sketch 50.2 (55047) - http://www.bohemiancoding.com/sketch -->
    <title>github-icon</title>
    <desc>Created with Sketch.</desc>
    <defs></defs>
    <g id="Landing-Page---Token-Sale" stroke="none" stroke-width="1" fill="none" fill-rule="evenodd">
        <g id="Desktop-HD" transform="translate(-607.000000, -406.000000)" fill="#615FC1" fill-rule="nonzero">
            <g id="Header">
                <g id="Sub-text" transform="translate(409.000000, 334.000000)">
                    <g id="Group-24" transform="translate(198.000000, 68.000000)">
                        <g id="github-icon" transform="translate(0.000000, 4.000000)">
                            <path d="M14.8,0 C6.62841435,0 0,6.71798751 0,15 C0,23.2820125 6.62841435,30 14.8,30 C22.9715857,30 29.6,23.2820125 29.6,15 C29.6,6.71798751 22.9715857,0 14.8,0 Z M14.8,2.34146341 C21.6856103,2.34146341 27.2897561,8.02134205 27.2897561,15 C27.2897561,15.5487805 27.2491466,16.0792683 27.1814634,16.6097561 C26.9513412,16.5503052 26.22939,16.3628055 25.4487805,16.3536585 C24.74939,16.3445128 23.9101222,16.4634146 23.4634146,16.5365854 C23.5807323,16.0518299 23.68,15.5350607 23.68,15 C23.68,13.6646341 23.1836591,12.3658537 22.3082927,11.2682927 C22.6331707,10.2347567 23.0843902,7.88414634 22.2,6.98780488 C20.0341463,6.98780488 18.8158542,8.38262166 18.5902439,8.67073171 C17.597561,8.30487805 16.5236591,8.12195122 15.377561,8.12195122 C14.2585366,8.12195122 13.1756098,8.28658537 12.2009756,8.63414634 C11.8986582,8.2637198 10.7029268,6.98780488 8.62731707,6.98780488 C7.76097561,7.86585366 8.19414634,10.1295735 8.51902439,11.195122 C7.60304849,12.3109756 7.07512195,13.6326217 7.07512195,15 C7.07512195,15.5030494 7.11573142,16.0060976 7.2195122,16.4634146 C6.8404878,16.4314021 5.30182956,16.3170732 4.69268293,16.3170732 C4.0835363,16.3170732 3.08182956,16.4496948 2.41853659,16.6097561 C2.35085337,16.0792683 2.3102439,15.5487805 2.3102439,15 C2.3102439,8.02134205 7.91439082,2.34146341 14.8,2.34146341 Z M4.69268293,16.6097561 C5.29280459,16.6097561 7.14280517,16.7789631 7.32780488,16.7926829 C7.35939053,16.902439 7.39548809,17.0121951 7.43609756,17.1219512 C6.82695093,17.071646 5.52292683,16.9847567 4.69268293,17.0853659 C3.67743931,17.2088418 2.92841435,17.6158537 2.63512195,17.7804878 C2.5719518,17.4923778 2.49975668,17.195122 2.45463415,16.902439 C3.09085337,16.7515247 4.12865883,16.6097561 4.69268293,16.6097561 Z M25.4487805,16.6463415 C26.2068293,16.6554884 26.9513412,16.8201225 27.1453659,16.8658537 C27.1273171,16.9984753 27.0957314,17.135671 27.0731707,17.2682927 C26.973903,17.2408542 26.071464,16.96189 25.1239024,16.9390244 C24.6591461,16.9253046 23.9236591,17.0030494 23.355122,17.0487805 C23.3821957,16.9756098 23.4047564,16.902439 23.4273171,16.8292683 C23.8198783,16.7743902 24.753903,16.6371957 25.4487805,16.6463415 Z M25.0878049,17.2317073 C26.0082927,17.2545729 26.9829268,17.5472558 27.0370732,17.5609756 C26.1842686,21.7637198 23.273903,25.1844515 19.4204878,26.7439024 L19.4204878,24.7317073 C19.4204878,23.4649393 18.6759759,21.8185979 17.6156098,21 C20.6026835,20.5655485 22.4617079,19.2256098 23.2468293,17.3414634 C23.7837808,17.2957323 24.6049997,17.2179875 25.0878049,17.2317073 Z M5.63121951,17.3414634 C6.45695151,17.3460363 7.19695151,17.3871957 7.54439024,17.4146341 C8.34756155,19.2576222 10.1930491,20.5701225 13.1395122,21 C12.8056103,21.2606704 12.494268,21.5990857 12.2370732,21.9878049 C12.2280494,22.0015247 12.2100006,22.0106704 12.2009756,22.0243902 C11.6234146,22.7286591 10.5404878,22.6829268 9.5297561,22.6829268 C8.4964637,22.6829268 7.87829326,21.8460363 7.32780488,21.1097561 C6.77280459,20.3780488 6.05085337,20.314025 5.66731707,20.2682927 C5.28378078,20.2271344 5.18,20.4237811 5.37853659,20.5609756 C6.50207288,21.3612808 6.94426858,22.3399387 7.4,23.195122 C7.81061004,23.9634146 8.65439082,24.3658537 9.60195122,24.3658537 L11.3707317,24.3658537 C11.3571948,24.4847567 11.3346341,24.6173783 11.3346341,24.7317073 L11.3346341,27.1463415 C7.07963386,25.902439 3.785732,22.445122 2.70731707,18.0731707 C2.93292741,17.945122 3.72707375,17.4969518 4.72878049,17.3780488 C4.96792654,17.3506103 5.28829268,17.3414634 5.63121951,17.3414634 Z M15.377561,24.3658537 C15.6979271,24.3658537 15.955122,24.6265241 15.955122,24.9512195 L15.955122,27.5853659 C15.5715857,27.6219512 15.1925613,27.6585366 14.8,27.6585366 L14.8,24.9512195 C14.8,24.6265241 15.0571948,24.3658537 15.377561,24.3658537 Z M13.0673171,25.0609756 C13.3876832,25.0609756 13.644878,25.321646 13.644878,25.6463415 L13.644878,27.5853659 C13.2613418,27.5487805 12.8642686,27.5076222 12.4897561,27.4390244 L12.4897561,25.6463415 C12.4897561,25.321646 12.7469509,25.0609756 13.0673171,25.0609756 Z M17.6878049,25.0609756 C18.008171,25.0609756 18.2653659,25.321646 18.2653659,25.6463415 L18.2653659,27.1463415 C17.8863415,27.2560976 17.5028052,27.3658537 17.1102439,27.4390244 L17.1102439,25.6463415 C17.1102439,25.321646 17.3674387,25.0609756 17.6878049,25.0609756 Z" id="Shape"></path>
                        </g>
                    </g>
                </g>
            </g>
        </g>
    </g>
</svg>