<?xml version="1.0" encoding="UTF-8"?>
<svg width="330px" height="358px" viewBox="0 0 330 358" version="1.1" xmlns="http://www.w3.org/2000/svg" xmlns:xlink="http://www.w3.org/1999/xlink">
    <!-- Generator: Sketch 50.2 (55047) - http://www.bohemiancoding.com/sketch -->
    <title>ground-floor-image</title>
    <desc>Created with Sketch.</desc>
    <defs>
        <linearGradient x1="8.73561479%" y1="18.6749892%" x2="100%" y2="56.9719527%" id="linearGradient-1">
            <stop stop-color="#FFFFFF" stop-opacity="0.236101676" offset="0%"></stop>
            <stop stop-color="#FFFFFF" stop-opacity="0" offset="100%"></stop>
        </linearGradient>
    </defs>
    <g id="Landing-Page---Token-Sale" stroke="none" stroke-width="1" fill="none" fill-rule="evenodd">
        <g id="Desktop-HD" transform="translate(-870.000000, -1871.000000)">
            <g id="Get-in-on-the-ground-Floor" transform="translate(0.000000, 1687.000000)">
                <g id="ground-floor-image" transform="translate(870.000000, 184.000000)">
                    <path d="M32.1255608,341.946422 L32.1255608,176.077944 C32.1255608,172.567421 35.9135085,170.584512 39.4330298,170.584512 L291.142159,170.584512 C294.661681,170.584512 296.433023,172.567421 296.433023,176.077944 L296.433023,341.946422 L32.1255608,341.946422" id="Fill-11" fill="#2F3341"></path>
                    <path d="M214.647415,341.946422 L140.558972,170.584512 L291.142159,170.584512 C294.661681,170.584512 296.433023,172.567421 296.433023,176.077944 L296.433023,341.946422 L214.647415,341.946422" id="Fill-12" fill="url(#linearGradient-1)"></path>
                    <polygon id="Fill-13" fill="#FFFFFF" points="42.5083529 331.588816 287.937392 331.588816 287.937392 182.825813 42.5083529 182.825813"></polygon>
                    <path d="M317.180894,357.952396 L13.2294242,357.952396 C8.45088718,357.952396 0.485296284,352.302669 0.485296284,352.302669 L329.926384,352.302669 C329.926384,352.302669 321.959431,357.952396 317.180894,357.952396" id="Fill-14" fill="#DADEF4"></path>
                    <path d="M329.926384,352.302669 L0.485296284,352.302669 L0.485296284,344.513738 C0.485296284,342.760515 2.13673251,341.946422 3.89581185,341.946422 L327.293897,341.946422 C329.054339,341.946422 329.926384,342.760515 329.926384,344.513738 L329.926384,352.302669" id="Fill-15" fill="#F1F3FA"></path>
                    <path d="M196.033331,348.002516 L134.541858,348.002516 C129.417228,348.002516 129.417228,341.946422 129.417228,341.946422 L201.156599,341.946422 C201.156599,341.946422 201.156599,348.002516 196.033331,348.002516" id="Fill-16" fill="#DADEF4"></path>
                    <polyline id="Fill-17" fill="#FCFCFC" points="287.937392 331.588816 210.168644 331.588816 145.851199 182.825813 287.937392 182.825813 287.937392 331.588816"></polyline>
                    <path d="M329.926384,352.302669 L219.124824,352.302669 L214.647415,341.946422 L327.293897,341.946422 C329.055701,341.946422 329.926384,342.760515 329.926384,344.513738 L329.926384,352.302669" id="Fill-18" fill="#F1F3FA"></path>
                    <path d="M317.180894,357.952396 L221.566552,357.952396 L219.124824,352.302669 L329.926384,352.302669 C329.926384,352.302669 321.959431,357.952396 317.180894,357.952396" id="Fill-19" fill="#DADEF4"></path>
                    <path d="M168.525745,177.295686 C168.525745,179.081527 167.077332,180.524878 165.286913,180.524878 C163.497857,180.524878 162.049444,179.081527 162.049444,177.295686 C162.049444,175.511204 163.497857,174.063776 165.286913,174.063776 C167.077332,174.063776 168.525745,175.511204 168.525745,177.295686" id="Fill-20" fill="#000000"></path>
                    <polygon id="Fill-21" fill="#72C5B9" points="78.9162538 310.970099 133.665725 310.970099 133.665725 284.606519 78.9162538 284.606519"></polygon>
                    <polygon id="Fill-22" fill="#3D3B80" points="78.9162538 221.752798 251.660298 221.752798 251.660298 201.0172 78.9162538 201.0172"></polygon>
                    <polygon id="Fill-23" fill="#3D3B80" points="78.9162538 269.772079 251.660298 269.772079 251.660298 228.344373 78.9162538 228.344373"></polygon>
                    <polygon id="Fill-24" fill="#72C5B9" points="196.909464 310.970099 251.658935 310.970099 251.658935 284.606519 196.909464 284.606519"></polygon>
                    <polygon id="Fill-25" fill="#72C5B9" points="137.912859 310.970099 192.66233 310.970099 192.66233 284.606519 137.912859 284.606519"></polygon>
                    <polyline id="Fill-26" fill="#3D3B80" points="251.660298 221.752798 162.681677 221.752798 153.715959 201.0172 251.660298 201.0172 251.660298 221.752798"></polyline>
                    <polyline id="Fill-27" fill="#3D3B80" points="251.660298 269.772079 183.441811 269.772079 165.530814 228.344373 251.660298 228.344373 251.660298 269.772079"></polyline>
                    <polyline id="Fill-28" fill="#8DDDD5" points="251.660298 310.96874 201.254704 310.96874 196.909464 300.922365 196.909464 284.606519 251.660298 284.606519 251.660298 310.96874"></polyline>
                    <path d="M42.5083529,330.871218 C38.8811885,330.222933 35.4025444,329.149254 32.1255608,327.704544 L32.1255608,243.983393 C35.4025444,242.538683 38.8811885,241.465004 42.5083529,240.816719 L42.5083529,330.871218" id="Fill-37" fill-opacity="0.456861413" fill="#66B1E7"></path>
                    <polyline id="Fill-38" fill="#D6EEFF" points="179.491717 170.584512 183.545367 126.94557 209.573201 126.94557 213.62685 170.584512 179.491717 170.584512"></polyline>
                    <path d="M201.253341,310.96874 L196.909464,310.96874 L196.909464,300.922365 L192.66233,291.09888 L192.66233,310.96874 L137.912859,310.96874 L137.912859,284.606519 L189.855434,284.606519 L183.440449,269.772079 L78.9148912,269.772079 L78.9148912,249.827469 C71.125072,243.733321 61.3091095,240.099121 50.64154,240.099121 C47.8659826,240.099121 45.1476532,240.345116 42.5083529,240.816719 L42.5083529,330.872577 C45.1476532,331.342821 47.8659826,331.588816 50.64154,331.588816 L210.168644,331.588816 L201.253341,310.96874 Z M78.9148912,310.970099 L133.664362,310.970099 L133.664362,284.606519 L78.9148912,284.606519 L78.9148912,310.970099 Z M165.529451,228.344373 L139.605172,228.344373 C144.116645,225.638429 149.400696,224.080915 155.049916,224.080915 C156.50378,224.080915 157.931754,224.185565 159.32839,224.385351 C158.448169,223.590285 157.648339,222.708237 156.942528,221.752798 L162.680315,221.752798 L165.529451,228.344373 Z" id="Fill-39" fill="#D6EEFF"></path>
                    <path d="M156.803545,201.0172 C160.015126,196.547161 165.266475,193.633277 171.201835,193.633277 C173.327446,193.633277 175.364489,194.007026 177.253013,194.692006 L178.355333,182.825813 L214.763234,182.825813 L216.45146,201.0172 L156.803545,201.0172 Z M196.909464,284.606519 L251.660298,284.606519 L251.660298,310.96874 L201.253341,310.96874 L210.168644,331.588816 L287.937392,331.588816 L287.937392,263.054109 C282.545698,257.532136 273.507764,254.099081 265.505383,254.099081 C260.319438,254.099081 255.700321,255.318183 251.660298,257.469618 L251.660298,269.772079 L183.440449,269.772079 L189.855434,284.606519 L192.66233,284.606519 L192.66233,291.09888 L196.909464,300.922365 L196.909464,284.606519 Z M238.561902,221.752798 C238.568714,221.92812 238.572802,222.106161 238.572802,222.282842 C238.572802,224.460101 238.060475,226.519118 237.150278,228.344373 L165.529451,228.344373 L162.680315,221.752798 L238.561902,221.752798 Z" id="Fill-40" fill="#D6EEFF"></path>
                    <path d="M155.039016,204.080583 C155.525454,202.996031 156.118172,201.971279 156.803545,201.0172 L216.45146,201.0172 L217.371195,210.912716 C219.53087,209.484315 222.122481,208.652554 224.906214,208.652554 C232.276361,208.652554 238.282574,214.470807 238.561902,221.752798 L162.680315,221.752798 L155.039016,204.080583" id="Fill-41" fill="#D6EEFF"></path>
                    <path d="M183.440449,269.772079 L78.9148912,269.772079 L78.9148912,249.827469 C79.8659659,250.57089 80.7870639,251.351006 81.6754603,252.166459 C86.9363475,248.972603 93.1156076,247.132399 99.7254402,247.132399 C109.86297,247.132399 118.986746,251.459733 125.341778,258.363898 L125.340415,258.36118 L125.341778,258.363898 C125.134667,256.947729 125.027024,255.498941 125.027024,254.025691 C125.027024,243.121731 130.871091,233.580937 139.605172,228.344373 L165.529451,228.344373 L183.440449,269.772079" id="Fill-42" fill="#D6EEFF"></path>
                    <polygon id="Fill-43" fill="#3D3B80" points="78.9148912 310.970099 133.664362 310.970099 133.664362 284.606519 78.9148912 284.606519"></polygon>
                    <polyline id="Fill-44" fill="#3D3B80" points="137.912859 284.606519 189.855434 284.606519 192.66233 291.100239 192.66233 310.96874 137.912859 310.96874 137.912859 284.606519"></polyline>
                    <polyline id="Fill-45" fill="#A5DBD6" points="201.253341 310.96874 196.909464 310.96874 196.909464 300.922365 201.253341 310.96874"></polyline>
                    <path d="M154.480362,205.48452 C154.646595,205.007481 154.833267,204.538596 155.039016,204.080583 L162.678952,221.752798 L156.942528,221.752798 C154.778765,218.825324 153.49931,215.206074 153.49931,211.289183 C153.49931,209.254629 153.845403,207.30298 154.480362,205.48452" id="Fill-46" fill="#D6EEFF"></path>
                    <path d="M237.150278,228.344373 C235.189538,232.276213 231.381152,235.130297 226.857415,235.774504 C237.646254,238.011562 245.753552,247.545561 245.753552,258.968692 C245.753552,259.911899 245.696324,260.841515 245.588681,261.754821 C247.441778,260.081785 249.466558,258.638434 251.660298,257.469618 L251.660298,269.772079 L183.440449,269.772079 L165.529451,228.344373 L237.150278,228.344373" id="Fill-47" fill="#D6EEFF"></path>
                    <polyline id="Fill-48" fill="#ADE4DD" points="189.855434 284.606519 192.66233 284.606519 192.66233 291.09888 189.855434 284.606519"></polyline>
                    <polyline id="Fill-49" fill="#ADE4DD" points="196.909464 284.606519 251.660298 284.606519 251.660298 310.96874 201.253341 310.96874 196.909464 300.922365 196.909464 284.606519"></polyline>
                    <polygon id="Fill-50" fill-opacity="0.289005888" fill="#D6EEFF" points="178.355333 182.825813 179.491717 170.584512 213.625487 170.584512 214.763234 182.825813"></polygon>
                    <path d="M287.937392,331.588816 L287.937392,277.431896 C283.165668,272.075732 276.196117,268.699759 267.291714,268.699759 C258.388674,268.699759 248.510033,274.386181 244.168882,282.710592 C240.98319,273.823519 232.735547,267.337953 222.886883,266.714132 C227.022287,264.443096 229.823733,260.055962 229.823733,255.015106 C229.823733,247.644775 223.835233,241.670226 216.444647,241.670226 C214.060147,241.670226 211.821443,242.292688 209.882504,243.384035 L203.696431,126.94557 L189.422136,126.94557 L182.384456,259.422627 C181.032785,253.479337 175.705132,249.043276 169.337837,249.043276 C161.948614,249.043276 155.958751,255.017824 155.958751,262.388156 C155.958751,267.895179 159.302501,272.622085 164.074225,274.660717 C162.673502,274.409285 161.230539,274.278813 159.756237,274.278813 C147.85009,274.278813 137.948286,282.835628 135.892166,294.118773 C131.913458,283.733985 121.831794,276.356858 110.021028,276.356858 C94.7302544,276.356858 82.3349448,288.720477 82.3349448,303.972157 C82.3349448,319.225197 94.7302544,331.588816 110.021028,331.588816 C168.937241,331.588816 229.021178,331.588816 287.937392,331.588816" id="Fill-51" fill="#FFFFFF"></path>
                    <path d="M259.940643,304.31057 C256.81763,298.379512 250.583867,294.334868 243.400392,294.334868 C238.733586,294.334868 234.468738,296.041881 231.194479,298.864706 C228.155946,287.997442 218.158761,280.025035 206.294854,280.025035 C200.239588,280.025035 194.67076,282.10308 190.265567,285.580985 L210.156381,331.588816 L287.937392,331.588816 L287.937392,284.561669 C274.837633,282.601865 262.051265,290.704745 259.940643,304.31057" id="Fill-52" fill="#9CD6FF"></path>
                    <path d="M190.265567,285.580985 C184.285243,290.303814 180.44688,297.60755 180.44688,305.806925 C180.44688,306.822164 180.506833,307.823811 180.622651,308.807791 C178.050117,303.473372 172.582119,299.791604 166.250251,299.791604 C157.446679,299.791604 150.309531,306.909145 150.309531,315.69021 C150.309531,324.471274 157.446679,331.588816 166.250251,331.588816 L210.156381,331.588816 L190.265567,285.580985" id="Fill-53" fill="#9CD6FF"></path>
                    <path d="M32.1255608,327.704544 C16.0199699,320.607389 4.77875795,304.536179 4.77875795,285.844648 C4.77875795,275.217942 8.41273519,265.440667 14.5061533,257.6762 L32.1255608,298.42708 L32.1255608,327.704544" id="Fill-56" fill="#D6EEFF"></path>
                    <path d="M14.5061533,257.6762 C19.1320824,251.781837 25.1750854,247.046776 32.1255608,243.983393 L32.1255608,298.428439 L14.5061533,257.6762" id="Fill-57" fill="#D6EEFF"></path>
                    <path d="M216.593167,120.692409 C222.329592,110.035803 225.924054,91.4801814 225.924054,76.9189177 C225.924054,59.3866886 218.932702,38.8168989 211.198748,25.1417602 L181.919819,25.1417602 C174.185865,38.8168989 167.194513,59.3866886 167.194513,76.9189177 C167.194513,91.4801814 170.788976,110.035803 176.5254,120.692409 L216.593167,120.692409" id="Fill-70" fill="#F1F3FA"></path>
                    <path d="M184.680388,126.944211 C182.838192,126.944211 180.581774,126.604439 179.238279,124.904221 C178.288567,123.704147 177.38382,122.285259 176.5254,120.692409 L216.593167,120.692409 C215.734747,122.285259 214.83,123.704147 213.880288,124.904221 C212.536793,126.604439 210.280375,126.944211 208.438179,126.944211 L184.680388,126.944211" id="Fill-71" fill="#4A476A"></path>
                    <path d="M181.919819,25.1417602 C187.090777,15.9991784 192.594202,9.937648 196.559284,9.937648 C200.525728,9.937648 206.02779,15.9991784 211.198748,25.1417602 L181.919819,25.1417602" id="Fill-72" fill="#3D3B80"></path>
                    <path d="M199.591004,25.1417602 C196.686003,19.6102739 193.620218,16.1541143 191.074935,16.1541143 C189.40851,16.1541143 187.278812,17.6368788 184.937914,20.2137088 C183.928249,21.7277323 182.918584,23.3776646 181.919819,25.1417602 L199.591004,25.1417602" id="Fill-73" fill="#615FC1"></path>
                    <path d="M203.114613,103.059607 C206.412035,94.1997156 208.819699,83.1843112 209.563663,74.0063931 C210.794064,58.8634399 206.715889,41.0960886 201.569458,29.285618 C200.923599,27.8055717 200.261389,26.4179434 199.591004,25.1417602 L181.919819,25.1417602 C174.756783,37.8070968 168.230067,56.3912597 167.306244,72.9965911 C167.390723,72.8824277 167.476565,72.7682644 167.561045,72.6568192 C168.758745,71.3588906 170.730385,71.7081761 170.539625,74.5133328 C169.807924,89.2295325 172.944563,104.095232 180.021758,117.213145 L192.246746,117.213145 C192.534248,117.213145 192.834014,117.202272 193.140593,117.172372 L191.809361,92.4614426 C191.659478,89.6630814 193.947235,87.2615738 196.559284,87.2615738 C198.105802,87.2615738 199.536502,88.1626488 200.416722,89.4429092 C201.012166,90.2637981 201.367797,91.0887642 201.544931,92.0890527 L203.114613,103.059607" id="Fill-74" fill="#FFFFFF"></path>
                    <path d="M196.559284,174.442961 C189.161885,168.448026 182.257737,154.100139 182.257737,142.622645 C182.257737,136.365406 184.161249,130.753734 187.172531,126.944211 L196.559284,126.944211 L196.559284,174.442961" id="Fill-75" fill="#F4D458"></path>
                    <path d="M196.559284,174.442961 C203.956682,168.448026 210.86083,154.100139 210.86083,142.622645 C210.86083,136.365406 208.957318,130.753734 205.946036,126.944211 L196.559284,126.944211 L196.559284,174.442961" id="Fill-76" fill="#E3A429"></path>
                    <path d="M196.559284,158.818891 C191.31611,154.570384 186.423117,144.400332 186.423117,136.266193 C186.423117,132.728488 187.281537,129.482987 188.712236,126.944211 L196.559284,126.944211 L196.559284,158.818891" id="Fill-77" fill="#FCF4D0"></path>
                    <path d="M196.559284,158.818891 C201.802457,154.570384 206.69545,144.400332 206.69545,136.266193 C206.69545,132.728488 205.83703,129.482987 204.406331,126.944211 L196.559284,126.944211 L196.559284,158.818891" id="Fill-78" fill="#F6DA6B"></path>
                    <path d="M196.559284,77.1187035 C189.592457,77.1187035 183.9446,71.4852857 183.9446,64.5362712 C183.9446,57.5872567 189.592457,51.9538389 196.559284,51.9538389 L196.559284,77.1187035" id="Fill-79" fill="#8EC8AA"></path>
                    <path d="M196.559284,77.1187035 C203.52611,77.1187035 209.173967,71.4852857 209.173967,64.5362712 C209.173967,57.5872567 203.52611,51.9538389 196.559284,51.9538389 L196.559284,77.1187035" id="Fill-80" fill="#6BA585"></path>
                    <path d="M196.559284,82.7901758 C186.451731,82.7901758 178.257228,74.6179825 178.257228,64.5362712 C178.257228,54.4545599 186.451731,46.2823666 196.559284,46.2823666 C206.666836,46.2823666 214.859977,54.4545599 214.859977,64.5362712 C214.859977,74.6179825 206.666836,82.7901758 196.559284,82.7901758" id="Fill-81" fill="#615FC1"></path>
                    <path d="M216.591804,120.692409 L229.060693,134.718192 C230.889263,137.959616 233.430459,136.408897 234.918386,134.525202 C245.591406,121.002281 236.008443,86.5915436 225.812323,72.9965911 C225.885902,74.3176242 225.925417,75.6264254 225.925417,76.9202768 C225.925417,91.4380497 222.35003,109.928436 216.64222,120.598632 L216.591804,120.692409" id="Fill-82" fill="#3D3B80"></path>
                    <path d="M216.591804,120.692409 L229.060693,134.718192 C231.217643,137.142804 233.254687,133.755958 234.222112,132.153594 C240.759729,121.312153 233.375956,96.0929245 225.70468,83.4289469 C224.843535,96.6651004 221.502511,111.571572 216.593167,120.692409 L216.591804,120.692409" id="Fill-83" fill="#615FC1"></path>
                    <path d="M176.5254,120.692409 L164.056512,134.718192 C162.229304,137.958257 159.686746,136.408897 158.200181,134.525202 C147.437231,120.889476 157.270907,86.0139314 167.561045,72.6568192 C168.844587,71.2651136 171.017888,71.7666169 170.464684,75.1561812 C168.250506,88.725311 171.017888,110.496534 176.5254,120.692409" id="Fill-84" fill="#3D3B80"></path>
                    <path d="M164.056512,134.718192 C161.902287,137.142804 159.86388,133.755958 158.896455,132.153594 C151.643488,120.127028 161.524854,90.4010659 169.923743,79.7580515 C169.908755,79.952401 169.895129,80.1494687 169.880141,80.3465364 L169.840626,80.9513304 L169.805199,81.6064106 L169.795661,81.7885283 L169.772497,82.2927498 C169.237007,95.5846258 171.923997,112.176366 176.5254,120.692409 L164.056512,134.718192 Z" id="Fill-85" fill="#615FC1"></path>
                    <path d="M196.559284,87.2615738 C199.171332,87.2615738 201.450914,89.8302492 201.309207,92.4614426 L199.033713,134.734501 C198.960134,136.086793 197.920492,137.398313 196.559284,137.398313 C195.180362,137.398313 194.157071,136.069125 194.086217,134.734501 L191.809361,92.4614426 C191.659478,89.6630814 193.947235,87.2615738 196.559284,87.2615738" id="Fill-86" fill="#F7A801"></path>
                    <path d="M196.559284,87.2615738 C199.171332,87.2615738 201.450914,89.8302492 201.309207,92.4614426 L199.033713,134.734501 C198.960134,136.086793 197.920492,137.398313 196.559284,137.398313 C195.361584,137.398313 194.43231,136.395306 194.162521,135.25775 C194.424135,135.617908 194.836994,135.865262 195.293455,135.840798 C196.031969,135.801385 196.559284,135.056605 196.559284,134.321338 L196.559284,92.4437745 C196.559284,91.0099372 195.245765,89.6807496 193.827328,89.7568585 C193.135142,89.7935538 192.502909,90.137403 192.055986,90.6552153 C192.705932,88.7035656 194.535865,87.2615738 196.559284,87.2615738" id="Fill-87" fill="#F78901"></path>
                    <path d="M196.559284,82.7901758 C188.845768,82.7901758 182.246836,78.0292922 179.553033,71.2936544 C182.654245,75.2173401 187.462759,77.7370884 192.861265,77.7370884 C202.212591,77.7370884 209.793937,70.1764845 209.793937,60.8477077 C209.793937,55.4630029 207.26773,50.666783 203.333987,47.5748589 C210.08689,50.2604158 214.859977,56.8424767 214.859977,64.5362712 C214.859977,74.6179825 206.666836,82.7901758 196.559284,82.7901758" id="Fill-88" fill="#3D3B80"></path>
                    <path d="M196.559284,78.3894504 C188.889371,78.3894504 182.670596,72.1865749 182.670596,64.5362712 C182.670596,56.8846084 188.889371,50.6830921 196.559284,50.6830921 C204.229197,50.6830921 210.447971,56.8846084 210.447971,64.5362712 C210.447971,72.1865749 204.229197,78.3894504 196.559284,78.3894504" id="Fill-89" fill="#61AAFF"></path>
                    <path d="M196.559284,77.1187035 C189.592457,77.1187035 183.9446,71.4852857 183.9446,64.5362712 C183.9446,57.5872567 189.592457,51.9538389 196.559284,51.9538389 C203.52611,51.9538389 209.173967,57.5872567 209.173967,64.5362712 C209.173967,71.4852857 203.52611,77.1187035 196.559284,77.1187035" id="Fill-90" fill="#66B1E7"></path>
                    <path d="M191.516408,54.7073502 C194.173421,54.7073502 196.327646,56.8560676 196.327646,59.5062883 C196.327646,62.156509 194.173421,64.3052263 191.516408,64.3052263 C188.859394,64.3052263 186.705169,62.156509 186.705169,59.5062883 C186.705169,56.8560676 188.859394,54.7073502 191.516408,54.7073502" id="Fill-91" fill="#F1F3FA"></path>
                    <path d="M196.559284,77.1187035 C189.592457,77.1187035 183.9446,71.4852857 183.9446,64.5362712 C183.9446,63.7833367 184.010003,63.0467113 184.138085,62.3291131 L184.136722,62.3793993 C184.136722,68.0318443 188.731312,72.6146875 194.398246,72.6146875 C200.063817,72.6146875 204.657044,68.0318443 204.657044,62.3793993 C204.657044,56.7269543 200.063817,52.1454702 194.398246,52.1454702 L194.346468,52.1468293 C195.064543,52.0190751 195.804419,51.9538389 196.559284,51.9538389 C203.52611,51.9538389 209.173967,57.5872567 209.173967,64.5362712 C209.173967,71.4852857 203.52611,77.1187035 196.559284,77.1187035" id="Fill-92" fill="#4A90E2"></path>
                    <path d="M38.0418447,42.918625 L40.0925142,40.8745574 C40.442695,40.5239128 41.0163375,40.5239128 41.3678808,40.8745574 L43.4185504,42.918625 C43.7687312,43.2692696 43.7687312,43.8414454 43.4185504,44.19209 L41.3678808,46.2375168 C41.0163375,46.5868023 40.442695,46.5868023 40.0925142,46.2375168 L38.0418447,44.19209 C37.6903013,43.8414454 37.6903013,43.2692696 38.0418447,42.918625" id="Fill-93" fill="#FDF5D7"></path>
                    <path d="M40.0925142,40.8745574 C40.442695,40.5239128 41.0163375,40.5239128 41.3678808,40.8745574 L43.4185504,42.918625 C43.5943221,43.0939473 43.6815266,43.3249922 43.6815266,43.5560371 C43.6815266,43.7870819 43.5943221,44.0167677 43.4185504,44.19209 L41.3678808,46.2375168 C41.0163375,46.5868023 40.442695,46.5868023 40.0925142,46.2375168 L39.5597489,45.7061135 C39.8404386,45.9860856 40.7301975,45.9534675 40.7301975,45.1937375 L40.7301975,41.9169775 C40.7301975,41.1586067 39.8404386,41.1259886 39.5597489,41.4059606 L40.0925142,40.8745574" id="Fill-94" fill="#F6DA6B"></path>
                    <path d="M62.8311014,55.5282391 L64.7414262,53.6241575 C65.0670807,53.2979765 65.6012086,53.2979765 65.9282256,53.6241575 L67.8371878,55.5282391 C68.1642049,55.8544201 68.1642049,56.3871824 67.8371878,56.7120043 L65.9282256,58.616086 C65.6012086,58.943626 65.0670807,58.943626 64.7414262,58.616086 L62.8311014,56.7120043 C62.5054469,56.3871824 62.5054469,55.8544201 62.8311014,55.5282391" id="Fill-95" fill="#FDF5D7"></path>
                    <path d="M64.7400636,53.6241575 C65.0670807,53.2979765 65.6012086,53.2993355 65.9282256,53.6241575 L67.8371878,55.5282391 C68.0006964,55.6913296 68.0824506,55.9047063 68.0824506,56.1208013 C68.0824506,56.3355371 68.0006964,56.5502729 67.8371878,56.7120043 L65.9282256,58.616086 C65.6012086,58.942267 65.0670807,58.942267 64.7400636,58.616086 L64.2440877,58.1213781 C64.5070639,58.3823229 65.3341446,58.352423 65.3341446,57.6456975 L65.3341446,54.594546 C65.3341446,53.8891795 64.5070639,53.8579205 64.2440877,54.1188653 L64.7400636,53.6241575" id="Fill-96" fill="#F6DA6B"></path>
                    <path d="M75.0411014,32.7145959 L78.3112722,29.4527858 C78.8712889,28.8955599 79.7855742,28.8955599 80.3455909,29.4527858 L83.6157616,32.7145959 C84.1744158,33.2731808 84.1744158,34.1851286 83.6157616,34.7437135 L80.3455909,38.0055236 C79.7855742,38.5641086 78.8712889,38.5641086 78.3112722,38.0055236 L75.0411014,34.7437135 C74.4810847,34.1851286 74.4810847,33.2731808 75.0411014,32.7145959" id="Fill-97" fill="#FDF5D7"></path>
                    <path d="M78.3112722,29.4541449 C78.8699263,28.8955599 79.7855742,28.8955599 80.3455909,29.4541449 L83.6143991,32.7145959 C83.8950887,32.9932088 84.034071,33.3615215 84.034071,33.7298342 C84.034071,34.0967879 83.8950887,34.4651006 83.6143991,34.7437135 L80.3455909,38.0055236 C79.7855742,38.5627495 78.8699263,38.5627495 78.3112722,38.0055236 L77.4610278,37.157453 C77.9093137,37.6045928 79.3277503,37.5515884 79.3277503,36.3420005 L79.3277503,31.1163089 C79.3277503,29.906721 77.9093137,29.8537166 77.4610278,30.3008564 L78.3112722,29.4541449" id="Fill-98" fill="#F6DA6B"></path>
                    <path d="M99.6927385,40.0808503 L102.540512,37.2389982 C103.028313,36.7524449 103.826779,36.7524449 104.313217,37.2389982 L107.162354,40.0808503 C107.650154,40.5660445 107.650154,41.3611107 107.162354,41.847664 L104.313217,44.6895161 C103.826779,45.1747103 103.028313,45.1747103 102.540512,44.6895161 L99.6927385,41.847664 C99.2049381,41.3611107 99.2049381,40.5660445 99.6927385,40.0808503" id="Fill-99" fill="#FDF5D7"></path>
                    <path d="M102.540512,37.2389982 C103.028313,36.7524449 103.826779,36.7524449 104.313217,37.2389982 L107.162354,40.0808503 C107.404891,40.3227678 107.527523,40.6435125 107.527523,40.9642572 C107.527523,41.2850018 107.404891,41.6057465 107.162354,41.847664 L104.313217,44.6895161 C103.826779,45.1747103 103.028313,45.1747103 102.540512,44.6895161 L101.800636,43.9501724 C102.191694,44.3402306 103.427546,44.2940216 103.427546,43.2407288 L103.427546,38.6877855 C103.427546,37.6331336 102.191694,37.5882837 101.800636,37.9769828 L102.540512,37.2389982" id="Fill-100" fill="#F6DA6B"></path>
                    <path d="M91.1262538,12.3119739 L93.4044727,10.0395796 C93.7941681,9.64952144 94.4318514,9.64952144 94.8229093,10.0395796 L97.1011282,12.3119739 C97.4908236,12.7006729 97.4908236,13.3367259 97.1011282,13.7254249 L94.8229093,15.9978193 C94.4318514,16.3865183 93.7941681,16.3865183 93.4044727,15.9978193 L91.1262538,13.7254249 C90.7365584,13.3367259 90.7365584,12.7006729 91.1262538,12.3119739" id="Fill-101" fill="#FDF5D7"></path>
                    <path d="M93.4044727,10.0395796 C93.7941681,9.64952144 94.4318514,9.65088053 94.8229093,10.0395796 L97.1011282,12.3119739 C97.2959759,12.5063234 97.3927184,12.7618319 97.3927184,13.0186994 C97.3927184,13.2742079 97.2959759,13.5310754 97.1011282,13.7254249 L94.8229093,15.9978193 C94.4318514,16.3865183 93.7941681,16.3865183 93.4044727,15.9978193 L92.8131168,15.4066162 C93.1251456,15.7192063 94.1143723,15.682511 94.1143723,14.8385176 L94.1143723,11.1975221 C94.1143723,10.3548879 93.1251456,10.3181925 92.8131168,10.6294235 L93.4044727,10.0395796" id="Fill-102" fill="#F6DA6B"></path>
                    <path d="M113.025497,26.2779573 L116.877486,22.437176 C117.535608,21.7793776 118.613401,21.7793776 119.272886,22.437176 L123.123512,26.2779573 C123.782996,26.9357557 123.782996,28.0107939 123.123512,28.6685923 L119.272886,32.5093736 C118.613401,33.167172 117.535608,33.167172 116.877486,32.5093736 L113.025497,28.6685923 C112.366013,28.0107939 112.366013,26.9357557 113.025497,26.2779573" id="Fill-103" fill="#FDF5D7"></path>
                    <path d="M116.876123,22.437176 C117.535608,21.7793776 118.613401,21.7793776 119.272886,22.437176 L123.123512,26.2779573 C123.453254,26.6068565 123.618125,27.0390464 123.618125,27.4725953 C123.618125,27.9061442 123.453254,28.3396931 123.123512,28.6685923 L119.272886,32.5093736 C118.613401,33.167172 117.535608,33.167172 116.876123,32.5093736 L115.874633,31.5118034 C116.403311,32.0377703 118.075186,31.9752522 118.075186,30.5509285 L118.075186,24.3956211 C118.075186,22.9699383 116.403311,22.9087794 115.874633,23.4347462 L116.876123,22.437176" id="Fill-104" fill="#F6DA6B"></path>
                    <path d="M126.491788,39.6608922 L128.40075,37.7568106 C128.727767,37.4306296 129.260532,37.4306296 129.587549,37.7568106 L131.497874,39.6608922 C131.823529,39.9870732 131.823529,40.5184764 131.497874,40.8446575 L129.587549,42.7487391 C129.260532,43.0749201 128.727767,43.0749201 128.40075,42.7487391 L126.491788,40.8446575 C126.164771,40.5184764 126.164771,39.9870732 126.491788,39.6608922" id="Fill-105" fill="#FDF5D7"></path>
                    <path d="M128.40075,37.7568106 C128.726404,37.4306296 129.260532,37.4306296 129.587549,37.7568106 L131.496512,39.6608922 C131.66002,39.8239827 131.741774,40.0373595 131.741774,40.2534544 C131.741774,40.4681902 131.66002,40.682926 131.496512,40.8446575 L129.587549,42.7487391 C129.260532,43.0749201 128.726404,43.0749201 128.40075,42.7487391 L127.903411,42.2540312 C128.166388,42.514976 128.993468,42.483717 128.993468,41.7783506 L128.993468,38.7271991 C128.993468,38.0218327 128.166388,37.9905736 127.903411,38.2515184 L128.40075,37.7568106" id="Fill-106" fill="#F6DA6B"></path>
                    <path d="M129.92683,2.67876152 L131.977499,0.633334788 C132.329043,0.284049293 132.901322,0.284049293 133.252866,0.633334788 L135.303535,2.67876152 C135.653716,3.0294061 135.653716,3.60158195 135.303535,3.95222653 L133.252866,5.99765326 C132.901322,6.34693875 132.329043,6.34693875 131.977499,5.99765326 L129.92683,3.95222653 C129.575286,3.60158195 129.575286,3.0294061 129.92683,2.67876152" id="Fill-107" fill="#FDF5D7"></path>
                    <path d="M131.977499,0.633334788 C132.32768,0.284049293 132.901322,0.284049293 133.252866,0.633334788 L135.303535,2.67876152 C135.479307,2.85408381 135.566512,3.08512869 135.566512,3.31617357 C135.566512,3.54585936 135.479307,3.77690424 135.303535,3.95222653 L133.252866,5.99765326 C132.901322,6.34693875 132.32768,6.34693875 131.977499,5.99765326 L131.444734,5.46489095 C131.725424,5.74486298 132.615182,5.71360396 132.615182,4.95387404 L132.615182,1.67711401 C132.615182,0.918743168 131.725424,0.886125068 131.444734,1.1660971 L131.977499,0.633334788" id="Fill-108" fill="#F6DA6B"></path>
                    <path d="M154.086579,24.5886115 L156.637312,22.0443997 C157.073334,21.6094917 157.785959,21.6094917 158.221982,22.0443997 L160.772715,24.5886115 C161.208738,25.0235195 161.208738,25.7343223 160.772715,26.1692303 L158.221982,28.7134422 C157.785959,29.1483502 157.073334,29.1483502 156.637312,28.7134422 L154.086579,26.1692303 C153.650556,25.7343223 153.650556,25.0235195 154.086579,24.5886115" id="Fill-109" fill="#FDF5D7"></path>
                    <path d="M156.635949,22.0443997 C157.071972,21.6108508 157.785959,21.6108508 158.221982,22.0443997 L160.771353,24.5872525 C160.990726,24.8060655 161.09837,25.0914739 161.09837,25.3796005 C161.09837,25.6663679 160.990726,25.9531354 160.771353,26.1705894 L158.221982,28.7120831 C157.785959,29.1483502 157.071972,29.1483502 156.635949,28.7120831 L155.97374,28.0515666 C156.322558,28.4008521 157.428966,28.3600794 157.428966,27.4155136 L157.428966,23.3423283 C157.428966,22.3977624 156.322558,22.3569898 155.97374,22.7062753 L156.635949,22.0443997" id="Fill-110" fill="#F6DA6B"></path>
                    <path d="M145.573234,49.1432459 L148.621306,46.1029671 C149.14317,45.5824366 149.99614,45.5824366 150.516642,46.1029671 L153.566076,49.1432459 C154.087941,49.6637764 154.087941,50.5145652 153.566076,51.0337366 L150.516642,54.0753745 C149.99614,54.595905 149.14317,54.595905 148.621306,54.0753745 L145.573234,51.0337366 C145.051369,50.5145652 145.051369,49.6637764 145.573234,49.1432459" id="Fill-111" fill="#FDF5D7"></path>
                    <path d="M148.621306,46.1029671 C149.14317,45.5824366 149.99614,45.5824366 150.518005,46.1029671 L153.566076,49.1432459 C153.826327,49.4028316 153.957134,49.7453217 153.957134,50.0891708 C153.957134,50.4316609 153.826327,50.7741509 153.566076,51.0350957 L150.518005,54.0753745 C149.99614,54.594546 149.14317,54.594546 148.621306,54.0753745 L147.828289,53.2843856 C148.246599,53.7016255 149.569655,53.6526983 149.569655,52.5246557 L149.569655,47.653686 C149.569655,46.5256433 148.246599,46.4767162 147.828289,46.8925969 L148.621306,46.1029671" id="Fill-112" fill="#F6DA6B"></path>
                    <path d="M242.988895,50.2332341 L246.689638,46.5405933 C247.323234,45.9086176 248.358788,45.9086176 248.992384,46.5405933 L252.694489,50.2332341 C253.326722,50.8638507 253.326722,51.8967572 252.694489,52.5287329 L248.992384,56.2213737 C248.358788,56.8533494 247.323234,56.8533494 246.689638,56.2213737 L242.988895,52.5287329 C242.3553,51.8967572 242.3553,50.8638507 242.988895,50.2332341" id="Fill-113" fill="#FDF5D7"></path>
                    <path d="M246.689638,46.5405933 C247.323234,45.9086176 248.358788,45.9086176 248.992384,46.5405933 L252.694489,50.231875 C253.010606,50.5485424 253.168664,50.9644232 253.168664,51.380304 C253.168664,51.7975438 253.010606,52.2134246 252.694489,52.5287329 L248.992384,56.2200146 C248.358788,56.8519903 247.323234,56.8533494 246.689638,56.2200146 L245.727663,55.2618579 C246.235902,55.7674385 247.841011,55.7076386 247.841011,54.3376784 L247.841011,48.4229295 C247.841011,47.0529693 246.235902,46.9945285 245.727663,47.5001091 L246.689638,46.5405933" id="Fill-114" fill="#F6DA6B"></path>
                    <path d="M235.819046,10.0056024 L238.282574,7.54701304 C238.703609,7.12705499 239.39307,7.12705499 239.814104,7.54701304 L242.277633,10.0056024 C242.698668,10.4255604 242.698668,11.1132587 242.277633,11.5332168 L239.814104,13.990447 C239.39307,14.410405 238.703609,14.410405 238.282574,13.990447 L235.819046,11.5332168 C235.396649,11.1132587 235.396649,10.4255604 235.819046,10.0056024" id="Fill-115" fill="#FDF5D7"></path>
                    <path d="M238.281212,7.54837213 C238.703609,7.12705499 239.39307,7.12841408 239.814104,7.54837213 L242.277633,10.0042433 C242.488832,10.2149019 242.59375,10.4921557 242.59375,10.7694096 C242.59375,11.0466634 242.488832,11.3225582 242.277633,11.5332168 L239.814104,13.990447 C239.39307,14.410405 238.703609,14.410405 238.281212,13.990447 L237.642166,13.3516759 C237.978721,13.6887296 239.048339,13.649316 239.048339,12.7373683 L239.048339,8.80145083 C239.048339,7.88950309 237.978721,7.85008956 237.642166,8.18714326 L238.281212,7.54837213" id="Fill-116" fill="#F6DA6B"></path>
                    <path d="M264.450753,40.8365029 L266.914282,38.3792727 C267.335316,37.9593146 268.024777,37.9593146 268.447174,38.3792727 L270.910703,40.8365029 C271.331738,41.256461 271.331738,41.9441593 270.910703,42.3641173 L268.447174,44.8227066 C268.024777,45.2426647 267.335316,45.2426647 266.914282,44.8227066 L264.450753,42.3641173 C264.029719,41.9441593 264.029719,41.256461 264.450753,40.8365029" id="Fill-117" fill="#FDF5D7"></path>
                    <path d="M266.914282,38.3792727 C267.335316,37.9593146 268.024777,37.9593146 268.447174,38.3792727 L270.90934,40.8365029 C271.120539,41.0471615 271.225457,41.3230563 271.225457,41.6003101 C271.225457,41.877564 271.120539,42.1548178 270.90934,42.3654764 L268.447174,44.8213476 C268.024777,45.2426647 267.335316,45.2426647 266.914282,44.8213476 L266.273873,44.1825764 C266.611791,44.5196301 267.680047,44.4802166 267.680047,43.5696279 L267.680047,39.6323514 C267.680047,38.7217627 266.611791,38.6809901 266.273873,39.0180438 L266.914282,38.3792727" id="Fill-118" fill="#F6DA6B"></path>
                    <path d="M274.937101,59.8949873 L276.908741,57.9297468 C277.245296,57.5940521 277.797138,57.5940521 278.133693,57.9297468 L280.103971,59.8949873 C280.441888,60.232041 280.441888,60.7824715 280.103971,61.1181661 L278.133693,63.0834067 C277.797138,63.4204604 277.245296,63.4204604 276.908741,63.0834067 L274.937101,61.1181661 C274.600546,60.7824715 274.600546,60.232041 274.937101,59.8949873" id="Fill-119" fill="#FDF5D7"></path>
                    <path d="M276.907379,57.9297468 C277.245296,57.5940521 277.797138,57.5940521 278.133693,57.9297468 L280.103971,59.8949873 C280.272929,60.0635142 280.357409,60.2850454 280.357409,60.5065767 C280.357409,60.728108 280.272929,60.9496392 280.103971,61.1181661 L278.133693,63.0834067 C277.797138,63.4191013 277.245296,63.4191013 276.907379,63.0834067 L276.396414,62.5723897 C276.666204,62.8414891 277.520536,62.8102301 277.520536,62.0817591 L277.520536,58.9327533 C277.520536,58.2029233 276.666204,58.1716643 276.396414,58.4407637 L276.907379,57.9297468" id="Fill-120" fill="#F6DA6B"></path>
                    <path d="M300.216883,47.8453173 L302.187161,45.8800767 C302.523716,45.543023 303.075557,45.543023 303.413475,45.8800767 L305.383753,47.8453173 C305.720308,48.1810119 305.720308,48.7314424 305.383753,49.067137 L303.413475,51.0323776 C303.075557,51.3694313 302.523716,51.3694313 302.187161,51.0323776 L300.216883,49.067137 C299.878966,48.7314424 299.878966,48.1810119 300.216883,47.8453173" id="Fill-121" fill="#FDF5D7"></path>
                    <path d="M302.187161,45.8800767 C302.523716,45.543023 303.075557,45.543023 303.413475,45.8800767 L305.383753,47.8453173 C305.551349,48.0124851 305.635829,48.2340163 305.635829,48.4555476 C305.635829,48.678438 305.551349,48.8999692 305.383753,49.067137 L303.413475,51.0323776 C303.075557,51.3680722 302.523716,51.3680722 302.187161,51.0323776 L301.674834,50.5213606 C301.944623,50.79046 302.800318,50.759201 302.800318,50.03073 L302.800318,46.8817242 C302.800318,46.1532533 301.944623,46.1206352 301.674834,46.3897346 L302.187161,45.8800767" id="Fill-122" fill="#F6DA6B"></path>
                </g>
            </g>
        </g>
    </g>
</svg>