<?xml version="1.0" encoding="UTF-8"?>
<svg width="45px" height="45px" viewBox="0 0 45 45" version="1.1" xmlns="http://www.w3.org/2000/svg" xmlns:xlink="http://www.w3.org/1999/xlink">
    <!-- Generator: Sketch 50.2 (55047) - http://www.bohemiancoding.com/sketch -->
    <title>litecoin-logo</title>
    <desc>Created with Sketch.</desc>
    <defs></defs>
    <g id="Landing-Page---Token-Sale" stroke="none" stroke-width="1" fill="none" fill-rule="evenodd">
        <g id="Cache-Homepage" transform="translate(-783.000000, -1042.000000)" fill-rule="nonzero">
            <g id="Header">
                <g id="Group-14" transform="translate(428.000000, 1042.000000)">
                    <g id="Group-35" transform="translate(184.000000, 0.000000)">
                        <g id="litecoin-logo" transform="translate(171.000000, 0.000000)">
                            <path d="M44.8779154,22.5004079 C44.8779154,34.8614048 34.8575982,44.881994 22.4967372,44.881994 C10.1357402,44.881994 0.115287009,34.8614048 0.115287009,22.5004079 C0.115287009,10.1395468 10.1357402,0.119093656 22.4967372,0.119093656 C34.8574622,0.119093656 44.8779154,10.1395468 44.8779154,22.5004079" id="Shape" fill="#BEBEBE"></path>
                            <path d="M40.1261329,22.5006798 C40.1261329,32.2365861 32.2331873,40.1302115 22.4967372,40.1302115 C12.760423,40.1302115 4.86693353,32.2365861 4.86693353,22.5006798 C4.86693353,12.7639577 12.760423,4.87087613 22.4967372,4.87087613 C32.2333233,4.87087613 40.1261329,12.7638218 40.1261329,22.5006798" id="Shape" fill="#BEBEBE"></path>
                            <polyline id="Shape" fill="#FFFFFF" points="21.1886103 28.479426 22.6423414 23.0054683 26.0840937 21.7480514 26.9401813 18.5310272 26.9109517 18.4512236 23.5230363 19.6889275 25.9640483 10.4975076 19.0412538 10.4975076 15.8489728 22.4925227 13.1836405 23.4662085 12.3029456 26.7827492 14.9662387 25.8098792 13.0848036 32.8790937 31.5091088 32.8790937 32.6902568 28.479426 21.1886103 28.479426"></polyline>
                        </g>
                    </g>
                </g>
            </g>
        </g>
    </g>
</svg>