<?xml version="1.0" encoding="UTF-8"?>
<svg width="35px" height="30px" viewBox="0 0 35 30" version="1.1" xmlns="http://www.w3.org/2000/svg" xmlns:xlink="http://www.w3.org/1999/xlink">
    <!-- Generator: Sketch 50.2 (55047) - http://www.bohemiancoding.com/sketch -->
    <title>medium-icon-dark</title>
    <desc>Created with Sketch.</desc>
    <defs></defs>
    <g id="Landing-Page---Token-Sale" stroke="none" stroke-width="1" fill="none" fill-rule="evenodd">
        <g id="Desktop-HD" transform="translate(-702.000000, -6221.000000)" fill="#27254B" fill-rule="nonzero">
            <g id="Footer" transform="translate(0.000000, 6194.000000)">
                <g id="Group-40" transform="translate(140.000000, 23.000000)">
                    <g id="Group-24" transform="translate(467.000000, 0.000000)">
                        <g id="medium-icon-dark" transform="translate(95.733333, 4.000000)">
                            <path d="M11.2,28.0363176 C11.2,28.7584459 10.8187504,29.1891892 10.2781248,29.1891892 C10.0875,29.1891892 9.875,29.1353465 9.65,29.0213262 L0.9312504,24.5460308 C0.4187504,24.2831505 0,23.58636 0,23.0004227 L0,1.06418919 C0,0.484585946 0.3031248,0.142525135 0.7375,0.142525135 C0.8906248,0.142525135 1.0625,0.18369973 1.2406248,0.275549189 L1.5468752,0.43391027 C1.5468752,0.43391027 1.55,0.43391027 1.55,0.43391027 L11.1593752,5.36528757 C11.175,5.37478865 11.1875,5.39062541 11.2,5.40329432 L11.2,28.0363176 Z M21.2687504,1.52660514 L21.8562504,0.547930541 C22.0656248,0.199535676 22.45,0 22.8406248,0 C22.9312504,0 23.025,0.0126689189 23.1156248,0.0380067568 C23.1843752,0.0538427027 23.2562504,0.0791805405 23.3312504,0.117187297 L33.4656248,5.31777892 C33.4687504,5.31777892 33.4687504,5.32094595 33.4687504,5.32094595 L33.4781248,5.32411297 C33.4843752,5.32728081 33.4843752,5.33678189 33.4906248,5.33994973 C33.5406248,5.38112351 33.5625,5.45080216 33.5281248,5.5078127 L23.4343752,22.3448059 L22.4031248,24.0614441 L15.7156248,10.7875849 L21.2687504,1.52660514 Z M12.8,19.1395695 L12.8,8.56418919 L19.9843752,22.8293919 L13.5218752,19.5133022 L12.8,19.1395695 Z M33.6,28.0363176 C33.6,28.7141051 33.2031248,29.1005068 32.6187504,29.1005068 C32.3562504,29.1005068 32.0562504,29.0244932 31.7406248,28.8629643 L30.2937504,28.1186659 L23.8312504,24.8025762 L33.6,8.51034649 L33.6,28.0363176 Z" id="Shape"></path>
                        </g>
                    </g>
                </g>
            </g>
        </g>
    </g>
</svg>