<?xml version="1.0" encoding="UTF-8"?>
<svg width="177px" height="47px" viewBox="0 0 177 47" version="1.1" xmlns="http://www.w3.org/2000/svg" xmlns:xlink="http://www.w3.org/1999/xlink">
    <!-- Generator: Sketch 50.2 (55047) - http://www.bohemiancoding.com/sketch -->
    <title>nem-logo</title>
    <desc>Created with Sketch.</desc>
    <defs></defs>
    <g id="Landing-Page--Partners" stroke="none" stroke-width="1" fill="none" fill-rule="evenodd">
        <g id="Partners-&amp;-trusted-companies" transform="translate(-140.000000, -817.000000)">
            <g id="Group-7" transform="translate(140.000000, 817.000000)">
                <g id="nem-logo">
                    <g id="xem-logo" fill-rule="nonzero">
                        <path d="M23.5123883,46.9988227 L23.2430776,46.8639015 C12.7444227,40.7067381 4.80304518,30.5492669 1.57272601,18.4134223 C1.05760455,16.5042755 0.675258461,14.5492132 0.406182697,12.5715461 C0.159191045,10.5879512 0.0243204614,8.59195109 0.0022165495,6.59310035 C0.0022165495,6.25591507 -0.0426685779,6.3008888 0.271527314,6.14359846 C5.65642011,3.07148586 11.5964332,1.10109872 17.7471169,0.346695909 C20.0323961,0.0770383552 22.3334191,-0.0355414603 24.6340465,0.00974609165 C25.9352452,0.0332925499 27.2138838,0.122062697 28.4925224,0.256983903 C34.9315408,0.953645114 40.9735646,2.88625991 46.6185939,6.05482831 C46.7083642,6.09980205 46.7755744,6.14477578 46.8653446,6.18974952 C46.9551149,6.23472326 47,6.30206613 47,6.41438273 L47,6.75156802 C46.9765,7.92017874 46.9327899,9.06618486 46.8430195,10.2347956 C46.7084663,11.894072 46.483786,13.5447706 46.1699777,15.1795518 C45.4969357,18.7077531 44.4427227,22.1010332 42.9845436,25.3593921 C40.6738604,30.5504443 37.5182715,35.1722216 33.5177767,39.224724 C30.652276,42.1451154 27.4166544,44.6760722 23.8937944,46.7527622 C23.7591391,46.8427097 23.6470437,46.9100526 23.5123883,47 L23.5123883,46.9988227 Z" id="Shape" fill="#000000"></path>
                        <path d="M2.03121587,7.68155207 C4.89449917,6.03911389 7.94359656,4.73667992 11.1152898,3.80125409 C15.4431531,2.53009783 19.8387871,1.92793428 24.347293,2.01719562 C26.4436903,2.06182629 29.9375286,2.39620582 30.5236131,2.61935917 C30.5472265,2.66398984 30.4999996,2.68618834 30.4560788,2.68618834 C30.2532397,2.77544968 30.0277317,2.84227886 29.8248926,2.93154019 C26.1055465,4.47024681 23.4681662,7.70398424 22.7016753,11.6286792 C22.589567,12.2698445 22.5217966,12.9178319 22.4988362,13.5681272 C22.4752228,14.5495346 22.3862003,15.5309421 22.0931581,16.4889826 C21.1013953,19.9456396 18.2385071,22.6440427 14.6995673,23.4466938 C10.0559927,24.4963324 5.36684435,22.2225049 3.33845354,17.962262 C3.22581763,17.7169101 3.13561446,17.4715584 3.09051286,17.2264402 C2.75670785,15.7839526 2.50084786,14.3248817 2.324022,12.8554384 C2.12118292,11.2274705 2.00854701,9.59950256 2.00854701,7.97176826 C2.02760687,7.87632019 2.03552987,7.7790223 2.03216041,7.68178574 L2.03121587,7.68155207 Z" id="Shape" fill="#F7A800"></path>
                        <path d="M35.3166511,34.5470085 C35.3617688,34.1232713 35.4068865,33.743941 35.4293273,33.3424072 C35.5420035,31.1342052 35.0686216,29.0374884 34.0087091,27.0968976 C32.9929695,25.2455885 31.5732962,23.7733759 29.7468546,22.6580563 C29.5890606,22.5465711 29.4085896,22.4572894 29.2507957,22.3458041 C26.7468793,20.7843099 25.2142935,18.5761079 24.673117,15.6987608 C23.7046211,10.52393 26.9956174,5.52742889 32.1595906,4.30062401 C33.9860322,3.87688668 35.7675922,3.92152752 37.5489161,4.47895362 C39.0134709,4.92512823 40.4128294,5.52742889 41.8107707,6.17413666 C42.7792665,6.62031127 43.705007,7.11089298 44.6295663,7.62321081 C44.7422424,7.6900552 44.832478,7.73469603 44.9678311,7.8239777 C44.9678311,7.91325936 44.991453,7.98010376 44.991453,8.06938542 C44.991453,9.25154946 44.9238945,10.4561508 44.833659,11.6383148 C44.6733554,13.3770757 44.4098318,15.1050028 44.044453,16.8131456 C42.9394227,21.8542876 40.9776278,26.5160993 38.1363915,30.8434555 C37.3471855,32.0480568 36.4901846,33.2077836 35.5883024,34.3231032 C35.497122,34.3908825 35.4520042,34.4801642 35.3166511,34.5470085" id="Shape" fill="#67B2E8"></path>
                        <path d="M23.739932,44.5897436 C23.4028141,44.4559532 22.3690956,43.8320648 21.2680477,43.0968011 C18.8178048,41.4688766 16.5434754,39.594523 14.4811948,37.5035202 C12.4136747,35.4146237 10.5755197,33.1139927 8.99761362,30.640281 C7.51827904,28.3561384 6.27592274,25.9293081 5.28955164,23.396918 C5.2608494,23.3246721 5.23832683,23.2501592 5.22222222,23.1741675 C5.33451639,23.240946 5.37948114,23.2633611 5.44704598,23.3079579 C6.23357606,23.9096646 7.06507088,24.4221778 7.96413053,24.8009004 C9.11037862,25.2912319 10.3013561,25.6253578 11.5598983,25.736733 C14.0993475,25.9818988 16.4815378,25.4693856 18.7288338,24.2213754 C19.889692,23.5752832 21.1629218,23.1519698 22.4818605,22.9735986 C27.1786763,22.394307 31.8531274,25.1574414 33.3138934,29.9706283 C34.0554587,32.4442337 33.831812,34.8505936 32.6846222,37.1906421 C32.5273632,37.5025862 32.392469,37.7923489 32.2352101,38.0818778 C32.1452805,38.2602651 32.0329864,38.4384189 31.8757275,38.5722093 C29.4935372,40.800649 26.8867585,42.7615078 24.0551562,44.4094884 C23.9428619,44.4762669 23.8303324,44.5432789 23.7406383,44.5878757 L23.739932,44.5897436 Z" id="Shape" fill="#00C4B3"></path>
                    </g>
                    <path d="M84.85,14 C90.75,14 94.65,18 94.65,24.35 L94.65,41.4 L85.8,41.4 L85.8,26.9 C85.8,23.85 84,21.95 81.2,21.95 C78.2,22 76.25,24.05 75.9,27.1 L75.9,41.4 L67,41.4 L67,14.35 L75.9,14.35 L75.9,18.75 C77.8,15.65 80.9,14 84.85,14 Z M112.6,14.05 C122.05,14.05 126.85,20.4 126.25,30.25 L107.45,30.25 C108.3,33.3 110.55,35 113.6,35 C115.9,35 118.15,34.05 119.95,32.25 L124.6,36.9 C121.85,40 117.8,41.7 112.8,41.7 C103.95,41.7 98.5,36.25 98.5,28 C98.5,19.6 104.15,14.05 112.6,14.05 Z M107.25,25.5 L117.65,25.5 C117.65,22.4 115.65,20.3 112.65,20.3 C109.75,20.3 107.85,22.4 107.25,25.5 Z M166.95,14 C172.8,14 176.65,18 176.65,24.35 L176.65,41.4 L167.75,41.4 L167.75,26.9 C167.75,23.8 166.05,21.95 163.3,21.95 C160.15,22 158.2,24.5 158.2,28.05 L158.2,41.4 L149.3,41.4 L149.3,26.9 C149.3,23.8 147.6,21.95 144.85,21.95 C141.7,22 139.7,24.5 139.7,28.05 L139.7,41.4 L130.85,41.4 L130.85,14.35 L139.7,14.35 L139.7,18.8 C141.55,15.65 144.6,14 148.5,14 C152.9,14 156.15,16.25 157.5,20.05 C159.25,16.05 162.55,14 166.95,14 Z" id="nem" fill="#000000"></path>
                </g>
            </g>
        </g>
    </g>
</svg>