<?xml version="1.0" encoding="UTF-8"?>
<svg width="89px" height="65px" viewBox="0 0 89 65" version="1.1" xmlns="http://www.w3.org/2000/svg" xmlns:xlink="http://www.w3.org/1999/xlink">
    <!-- Generator: Sketch 50.2 (55047) - http://www.bohemiancoding.com/sketch -->
    <title>pearson-vue</title>
    <desc>Created with Sketch.</desc>
    <defs></defs>
    <g id="Landing-Page--Partners" stroke="none" stroke-width="1" fill="none" fill-rule="evenodd">
        <g id="Partners-&amp;-trusted-companies" transform="translate(-144.000000, -1193.000000)" fill-rule="nonzero">
            <g id="Group-7-Copy-2" transform="translate(140.000000, 1193.000000)">
                <g id="pearson-vue" transform="translate(4.000000, 0.000000)">
                    <path d="M44.6181088,23.3427979 C26.9414922,23.3427979 11.9195596,26.258829 0.274031088,29.5915078 L0.274031088,54.5466425 L88.5847409,54.5466425 L88.5847409,29.5839689 C77.0713938,26.0949845 62.1052487,23.3427979 44.6181088,23.3427979 Z" id="Shape" fill="#2C3988"></path>
                    <path d="M0.274031088,29.5869845 L0.274031088,0.625196891 L88.5847409,0.625196891 L88.5847409,29.5653731 C88.1675907,29.5623575 69.6818031,23.5393109 44.6929948,23.5388083 C19.4865648,23.5378031 0.616797927,29.5643679 0.274031088,29.5869845 Z" id="Shape" fill="#2C3988"></path>
                    <path d="M44.4271244,24.1745855 C62.0162902,24.1745855 76.7778808,26.8745026 88.5821721,29.5915078 C88.5821721,29.5915078 88.5827306,29.3733834 88.5817254,29.3733834 C87.1111451,28.7672591 69.3772332,22.1591969 44.4286321,22.1511554 L44.4301399,22.1511554 C19.4805337,22.1596995 1.74611917,28.7672591 0.276041451,29.3733834 L0.276041451,29.5915078 C12.0803886,26.8745026 26.8419793,24.1745855 44.4316477,24.1745855 L44.4271244,24.1745855 Z M80.0150674,6.19339896 C79.8215699,7.79817098 79.6753161,15.0882487 80.0150674,16.6920155 C79.5648357,16.6442703 79.1108172,16.6442703 78.6605855,16.6920155 C77.7890933,15.3792487 73.7728912,9.93769948 72.8033938,8.72143005 C72.7541399,10.8594508 72.707399,14.8449948 72.8536528,16.6920155 C72.3676477,16.6920155 71.9811554,16.6442694 71.4971606,16.6920155 C71.6916632,15.2817461 71.7384041,7.60417098 71.4971606,6.19339896 C71.9319016,6.19339896 72.4641451,6.24466321 72.8536528,6.19339896 C74.062886,7.84692228 77.4005907,12.3174663 78.6610881,13.9689793 C78.7093368,12.0259637 78.7560777,7.89517098 78.6128394,6.19339896 C79.1445803,6.29140415 79.4823212,6.29140415 80.0150674,6.19339896 Z M43.1339585,11.7349637 C44.1019482,12.9492228 45.9901813,15.4757461 46.9089171,16.6920155 C46.9089171,16.6920155 45.9399223,16.594513 44.9241865,16.6920155 C44.4879378,15.9627565 42.2142176,12.6094715 41.7789741,12.2204663 L41.6337254,11.2972073 C43.036456,11.3459585 44.0536995,10.6166995 44.0536995,9.06118135 C44.0536995,7.79817098 42.939456,7.11866839 41.7789741,7.11866839 L40.7139845,7.11866839 C40.6169845,9.10993264 40.761228,14.455487 40.8592332,16.6920155 C40.2795549,16.6442687 39.6969321,16.6442687 39.1172539,16.6920155 C39.3107513,14.7967461 39.3107513,8.04092228 39.1172539,6.14565285 C39.9389896,6.19339896 40.2782383,6.19339896 40.5682332,6.19339896 C40.9074819,6.14565285 41.1974767,6.14565285 41.9714663,6.14565285 C43.4716995,6.14565285 45.6031865,6.6331658 45.6031865,8.86768394 C45.6031865,10.7131969 44.2476995,11.6369585 43.1339585,11.7349637 Z M24.4496477,15.5747565 C24.4496477,15.9627565 24.4496477,16.3502539 24.4024041,16.7387565 C23.1434145,16.594513 20.238943,16.594513 18.9814611,16.7387565 C19.1749585,15.1364974 19.1262073,7.74841451 18.9814611,6.14515026 C19.9971969,6.24416062 23.3369119,6.24416062 24.3541554,6.14515026 L24.3541554,7.31266839 C23.3851606,7.2151658 21.5461813,7.1181658 20.626943,7.16641451 C20.626943,7.89466839 20.5786943,9.79044041 20.626943,10.6649482 C21.6426788,10.7619482 23.0951658,10.7121917 24.1596528,10.5674456 L24.1596528,11.7339585 C22.9981658,11.6359534 21.6426788,11.5877047 20.626943,11.6852073 C20.5786943,12.7547202 20.5786943,14.4067358 20.5786943,15.6697461 C21.6431813,15.7200052 23.3856632,15.622 24.4496477,15.5747565 Z M15.7387461,8.96468394 C15.7387461,11.2972073 13.3660155,12.5129741 11.3335389,12.4637202 C11.2852902,12.2204663 11.2852902,11.8797098 11.2370415,11.6369585 C13.027772,11.5404611 14.1897617,10.7131969 14.1897617,9.06118135 C14.1897617,7.79817098 13.1730207,6.82616062 11.6240363,6.82616062 L10.3167979,6.82616062 C10.3167979,7.45741451 10.3167979,14.5534922 10.5113005,16.691513 C9.9185406,16.5940107 9.31383246,16.5940107 8.72107254,16.691513 C8.86632124,15.2812435 8.96281865,7.4091658 8.72107254,5.90239896 C9.59206218,5.95014508 9.9303057,5.95014508 10.2695544,5.95014508 C10.6565492,5.90239896 10.9947927,5.90239896 11.7702902,5.90239896 C13.5122694,5.85565803 15.7387461,6.53415544 15.7387461,8.96468394 Z M68.3976839,11.2972073 C68.3976839,14.2619896 66.2214663,16.8377668 63.2677409,16.8377668 C60.1225285,16.8377668 58.0895492,14.3589896 58.0895492,11.2972073 C58.0895492,8.57517617 60.3160259,6.09840933 63.2204974,6.09840933 C66.2214663,6.09840933 68.3976839,8.57517617 68.3976839,11.2972073 Z M66.7511969,11.2972073 C66.7511969,9.59593782 65.6892228,7.11866839 63.2204974,7.11866839 C60.751772,7.11866839 59.7355337,9.59593782 59.7355337,11.3459585 C59.7355337,13.3874819 60.848772,15.8165026 63.2672383,15.8165026 C65.6394663,15.8165026 66.7511969,13.3874819 66.7511969,11.2972073 Z M36.1157824,16.6920155 C35.5825337,16.6442694 34.808544,16.6442694 34.3240466,16.6920155 C34.1310518,16.0110052 33.7430518,14.7967461 33.3083109,13.6282228 C31.8558238,13.5332332 30.4520881,13.5332332 29.2423523,13.6282228 C28.9523575,14.455487 28.5161088,16.1090104 28.323114,16.6920155 C27.935114,16.6442694 27.2576218,16.6442694 26.8706269,16.6920155 C27.5476166,15.1852487 30.3063368,7.65241969 30.6450829,6.19339896 C31.2260777,6.24466321 31.7105751,6.24466321 32.2433212,6.19339896 C32.6785648,7.79817098 35.4865389,15.2329948 36.1157824,16.6920155 Z M32.8715596,12.4637202 C32.316807,10.8564524 31.7520517,9.25265442 31.1773264,7.65241969 C30.5963316,9.4516943 30.0650933,10.957456 29.5805959,12.4637202 C30.7913368,12.6094715 31.6140777,12.6094715 32.8715596,12.4637202 Z M55.4263212,13.7759845 C55.4263212,16.1572591 53.490342,16.7890155 52.185114,16.7890155 C51.2643679,16.7890155 50.1018756,16.3507565 49.2806425,15.9145078 C49.3298964,15.2334974 49.3298964,14.9897409 49.2806425,14.3594922 C49.9108912,14.9414922 51.2166218,15.6712539 52.0891192,15.6712539 C53.2003472,15.6712539 53.8305959,15.0405026 53.8305959,14.0684922 C53.8778394,13.3879845 53.346601,12.756228 52.7173575,12.2692176 C52.0891192,11.7354663 51.3126166,11.2977098 50.8788808,10.9579585 C50.0541295,10.3262021 49.5223886,9.7426943 49.5223886,8.62493264 C49.5223886,7.26341451 50.7326269,6.09891192 52.5223523,6.09891192 C53.4441036,6.09891192 54.2648342,6.38940933 55.1363264,6.97191192 C54.8955855,7.36242487 54.6533368,7.74941969 54.5070829,8.13993264 C54.1210933,7.65342487 53.4441036,7.11967358 52.5721088,7.11967358 C51.5553679,7.11967358 51.0221192,7.74941969 51.0221192,8.57618135 C51.0221192,8.91794301 51.2643679,9.25668912 51.6523679,9.59694301 C52.0891192,9.98594819 52.6681036,10.3749534 53.3948497,10.8122073 C54.6040829,11.5892124 55.4263212,12.268715 55.4263212,13.7759845 Z M37.0536166,44.486285 L37.0536166,32.4658238 L35.132715,32.4658238 L35.132715,41.4616943 L27.7054301,32.4658238 L25.1608135,32.4658238 L34.8562902,44.486285 L37.0536166,44.486285 Z M38.269886,32.4658238 C38.269886,32.4658238 37.2948601,44.6682228 50.2270207,44.486285 C50.2260155,39.3824767 50.2270207,32.4658238 50.2270207,32.4658238 L48.1302124,32.4658238 C48.1302124,32.4658238 48.1186528,41.3124249 48.1302124,42.4538083 C40.0415181,41.5506528 40.0631295,32.4658238 40.0631295,32.4658238 L38.269886,32.4658238 Z M51.4784715,44.4325078 L63.1948653,44.4325078 L63.1948653,42.3362021 L53.5114508,42.3362021 C53.5114508,42.3362021 53.5300466,41.1053575 53.9522228,40.2479378 L63.1893368,40.2499482 L63.1953679,38.1546477 L54.7277202,38.1586684 C54.7277202,38.1586684 56.1354767,33.6815907 63.1953679,34.2696218 C63.1893368,34.1037668 63.1953679,32.4643161 63.1953679,32.4643161 C63.1953679,32.4643161 51.0573005,31.0394715 51.4784715,44.4325078 Z" id="Shape" fill="#FFFFFF"></path>
                    <path d="M2.27434197,62.0266995 L1.89136788,63.0891762 C1.72601554,63.5540725 1.73556477,63.7726995 2.60755959,63.7726995 L2.72767876,63.7726995 L2.72767876,64.1230052 L0.317756477,64.1230052 L0.317756477,63.7726995 L0.452450777,63.7726995 C0.892720207,63.7726995 1.11687565,63.5736736 1.34454922,62.9343782 L2.89855959,58.5970207 L2.79954922,58.3361762 L4.14598964,58.3361762 L5.96335751,62.9504611 C6.19856995,63.5535699 6.39659067,63.734 6.87103627,63.7726995 L6.87103627,64.1230052 L3.91781347,64.1230052 L3.91781347,63.7726995 L4.23595337,63.7726995 C4.78980829,63.7726995 4.87072539,63.5214041 4.68878756,63.0826425 L4.26309326,62.0261969 L2.27434197,62.0261969 L2.27434197,62.0266995 Z M3.21669948,59.3971451 L2.45225907,61.5261192 L4.05200518,61.5261192 L3.21669948,59.3971451 Z M10.4856684,59.4162435 L12.4477824,59.4162435 L12.4477824,59.7102591 L12.3940052,59.7102591 C11.7873782,59.7102591 11.6959067,59.9761295 11.6959067,60.3374922 L11.6959067,62.2227098 C11.6959067,63.9114145 10.4680777,64.2280466 9.56844041,64.2280466 C8.20340415,64.2280466 7.33995337,63.6375026 7.33995337,62.4795337 L7.33995337,60.2249119 C7.33995337,59.8469637 7.2359171,59.7102591 6.80972021,59.7102591 L6.68155959,59.7102591 L6.68155959,59.4162435 L9.05227979,59.4162435 L9.05227979,59.7102591 L8.92562694,59.7102591 C8.60396891,59.7102591 8.38584456,59.8534974 8.38584456,60.2249119 L8.38584456,62.4795337 C8.38584456,63.4063109 9.06886528,63.7259585 9.75741451,63.7259585 C10.7505337,63.7259585 11.2415648,63.1645648 11.2415648,62.334285 L11.2415648,60.491285 C11.2415648,59.9494922 11.0922953,59.7092539 10.6223731,59.7092539 L10.486171,59.7092539 L10.486171,59.4162435 L10.4856684,59.4162435 Z M15.4985078,63.2595544 C15.4985078,63.6535855 15.6191295,63.8294922 16.1584093,63.8294922 L16.3398446,63.8294922 L16.3398446,64.1235078 L13.6127876,64.1235078 L13.6127876,63.8294922 L13.8706166,63.8294922 C14.2847513,63.8294922 14.4551295,63.6651451 14.4551295,63.2595544 L14.4551295,59.809772 L13.5575026,59.809772 C12.9765078,59.809772 12.8860415,59.9002383 12.7412953,60.7023731 L12.4306943,60.7023731 L12.5668964,59.2845648 L12.8101503,59.2845648 C12.8689534,59.3368342 12.9081554,59.377544 12.9538912,59.3956373 C13.0071658,59.4066943 13.0659689,59.4162435 13.1730207,59.4162435 L16.780114,59.4162435 C16.982658,59.4162435 17.0203523,59.3971451 17.1424819,59.2845648 L17.3837254,59.2845648 L17.5214352,60.7023731 L17.209829,60.7023731 C17.0680984,59.9062694 16.9751192,59.809772 16.392114,59.809772 L15.4985078,59.809772 L15.4985078,63.2595544 Z M21.308456,63.8294922 C21.7105285,63.8294922 21.8758808,63.6535855 21.8758808,63.2469896 L21.8758808,61.9010518 L19.3754922,61.9010518 L19.3754922,63.2595544 C19.3754922,63.6651451 19.5363212,63.8294922 19.9605078,63.8294922 L20.0745959,63.8294922 L20.0745959,64.1235078 L17.6415544,64.1235078 L17.6415544,63.8294922 L17.772228,63.8294922 C18.1587202,63.8294922 18.3326166,63.6535855 18.3326166,63.282171 L18.3326166,60.2636114 C18.3326166,59.8856632 18.1657565,59.7097565 17.7636839,59.7097565 L17.6415544,59.7097565 L17.6415544,59.4157409 L20.0750984,59.4157409 L20.0750984,59.7097565 L19.9680466,59.7097565 C19.573513,59.7097565 19.3764974,59.8404301 19.3764974,60.2636114 L19.3764974,61.4537461 L21.876886,61.4537461 L21.876886,60.2832124 C21.876886,59.8630466 21.7110311,59.7097565 21.2702591,59.7097565 L21.2024093,59.7097565 L21.2024093,59.4157409 L23.6264041,59.4157409 L23.6264041,59.7097565 L23.4912073,59.7097565 C23.104715,59.7097565 22.9232798,59.8529948 22.9232798,60.2636114 L22.9232798,63.2595544 C22.9232798,63.6535855 23.0650104,63.8294922 23.5057824,63.8294922 L23.6259016,63.8294922 L23.6259016,64.1235078 L21.2019067,64.1235078 L21.2019067,63.8294922 L21.308456,63.8294922 Z M26.8148394,59.2735078 C28.3995078,59.2735078 29.5187772,60.264114 29.5187772,61.6794093 C29.5187772,63.0288653 28.4804249,64.2280466 26.6721036,64.2280466 C24.9276114,64.2280466 23.9148912,63.1198342 23.9148912,61.846772 C23.9148912,60.3455337 25.1251295,59.2735078 26.8148394,59.2735078 Z M26.8465026,63.908399 C27.8999326,63.908399 28.389456,62.9966995 28.389456,61.9503057 C28.389456,60.7325285 27.7833316,59.5931554 26.6344093,59.5931554 C25.6719482,59.5931554 25.0437098,60.3369896 25.0437098,61.4813886 C25.0437098,62.9283472 25.7779948,63.908399 26.8465026,63.908399 Z M31.5487409,63.282171 C31.5487409,63.6651451 31.7171088,63.8294922 32.1483316,63.8294922 L32.3734922,63.8294922 L32.3734922,64.1235078 L29.722829,64.1235078 L29.722829,63.8294922 L29.8454611,63.8294922 C30.3058342,63.8294922 30.5008394,63.7149016 30.5008394,63.282171 L30.5008394,60.2832124 C30.5008394,59.9258705 30.4058497,59.7097565 29.8977306,59.7097565 L29.7374041,59.7097565 L29.7374041,59.4157409 C30.1178653,59.3951347 30.4058497,59.3770415 30.7144404,59.3564352 C31.1285568,59.3243659 31.5435542,59.3049233 31.9588549,59.2981347 C33.0705855,59.2981347 33.677715,59.4469016 34.0576736,59.8228394 C34.2933096,60.0490985 34.4242195,60.3631729 34.4190363,60.6898083 C34.4190363,61.2627617 34.0023886,61.7140881 33.2982591,61.9090933 C33.7963264,62.3222228 34.0637047,62.9203057 34.6004715,63.4590829 C34.9135855,63.7716943 35.1231658,63.861658 35.6011295,63.9089016 L35.6011295,64.2029171 C35.4337668,64.2094508 35.3588808,64.2094508 35.1307047,64.2094508 C34.1928705,64.2094508 33.8068808,64.0712383 33.4510466,63.7159067 C33.0710881,63.3429845 32.6318238,62.5448705 32.1483316,62.1252073 L31.5487409,62.1252073 L31.5487409,63.282171 Z M31.5487409,61.8105855 L31.8442642,61.8105855 C32.7614922,61.8105855 33.2917254,61.5281295 33.2917254,60.7139326 C33.2917254,59.917829 32.6775596,59.6303472 31.9417668,59.6303472 L31.5482383,59.6303472 L31.5482383,61.8105855 L31.5487409,61.8105855 Z" id="Shape" fill="#2C3988"></path>
                    <path d="M35.3960725,59.4162435 L37.8049896,59.4162435 L37.8049896,59.7102591 L37.6778342,59.7102591 C37.2687254,59.7102591 37.1018653,59.8861658 37.1018653,60.2786891 L37.1018653,63.2826736 C37.1018653,63.6510725 37.2310311,63.8299948 37.6919067,63.8299948 L37.8054922,63.8299948 L37.8054922,64.1240104 L35.3965751,64.1240104 L35.3965751,63.8299948 L35.5026218,63.8299948 C35.9051969,63.8299948 36.0579845,63.6380052 36.0579845,63.3073005 L36.0579845,60.2791917 C36.0579845,59.8866684 35.919772,59.7107617 35.4955855,59.7107617 L35.3965751,59.7107617 L35.3965751,59.4162435 L35.3960725,59.4162435 Z M42.9570466,64.1235078 L38.1623316,64.1235078 L38.1623316,63.7123886 L41.5266736,59.8288705 L39.4861554,59.8288705 C39.0489016,59.8288705 38.8121813,60.0349326 38.7609171,60.6898083 L38.4734352,60.6898083 L38.5262073,59.4162435 L42.9032694,59.4162435 L42.9032694,59.8469637 L39.5399326,63.711886 L41.8593886,63.711886 C42.4112332,63.711886 42.5564819,63.4656166 42.7610363,62.6127202 L43.0465078,62.6127202 L42.9570466,64.1235078 Z M46.728487,59.8288705 L45.0674249,59.8288705 L45.0674249,61.5341606 L46.2982694,61.5341606 C46.7144145,61.5341606 46.8646891,61.3944404 46.8646891,60.9893523 L47.1687565,60.9893523 L47.1687565,62.4981295 L46.8646891,62.4981295 C46.8646891,62.087513 46.7676891,61.9508083 46.1851865,61.9508083 L45.0669223,61.9508083 L45.0669223,63.3198653 C45.0669223,63.6380052 45.1277358,63.7123886 45.3493782,63.7123886 L46.6164093,63.7123886 C47.1064352,63.7123886 47.3426528,63.5766891 47.4843834,62.9348808 L47.7748808,62.9348808 L47.6824041,64.1235078 L43.1234041,64.1235078 L43.1234041,63.8294922 L43.4314922,63.8294922 C43.8712591,63.8294922 44.0240466,63.6535855 44.0240466,63.2841813 L44.0240466,60.2636114 C44.0240466,59.8534974 43.8888497,59.7097565 43.3631399,59.7097565 L43.2912694,59.7097565 L43.2912694,59.4157409 L47.4612642,59.4157409 L47.5396684,60.5154093 L47.2501762,60.5154093 C47.1767979,59.9982435 47.0777876,59.8288705 46.728487,59.8288705 Z M47.9236477,59.4162435 C48.3347668,59.3956373 48.8051917,59.377544 49.144943,59.3569378 C49.4898844,59.3328984 49.8355114,59.3199918 50.181285,59.3182383 C51.6981036,59.3182383 52.4087668,59.507715 52.9691554,60.0660933 C53.3697202,60.4631399 53.6044301,61.0139793 53.6044301,61.6547824 C53.6022584,62.2905173 53.3502659,62.8999204 52.9028135,63.3515285 C52.5153161,63.7395285 51.8875803,64.1235078 50.3350777,64.1235078 L47.9241503,64.1235078 L47.9241503,63.8294922 C48.4247306,63.8294922 48.6297876,63.7329948 48.6297876,63.3012694 L48.6297876,60.3746839 C48.6297876,59.8409326 48.5091658,59.7102591 47.9241503,59.7102591 L47.9241503,59.4162435 L47.9236477,59.4162435 Z M49.6761813,63.2469896 C49.6761813,63.753601 49.749057,63.8214508 50.3350777,63.8214508 C52.0403679,63.8214508 52.4781244,62.6539326 52.4781244,61.7532902 C52.4781244,61.1245492 52.2579896,60.5586321 51.9177358,60.2218964 C51.5468238,59.8474663 51.0392073,59.6720622 50.2667254,59.6720622 C50.0693725,59.6702412 49.8721549,59.6830083 49.6766839,59.7102591 L49.6766839,63.2469896 L49.6761813,63.2469896 Z M62.2173264,62.5006425 C62.1464611,62.9831295 61.9298446,63.681228 61.7076995,64.1536632 C61.5664715,64.1054145 61.3820207,64.0863161 61.1739482,64.0863161 C60.7457409,64.0863161 60.2903938,64.2516684 59.6093834,64.2516684 C57.7482902,64.2516684 56.3013316,62.9635285 56.3013316,61.3180466 C56.3013316,59.6424093 57.8402642,58.3361762 59.784285,58.3361762 C60.7266425,58.3361762 61.344829,58.7075907 61.5287772,58.7075907 C61.6005685,58.7104841 61.6686374,58.6755916 61.7082021,58.6156166 L61.9388912,58.6156166 L62.0223212,60.2063161 L61.6649793,60.2063161 C61.3744819,59.3086891 60.7266425,58.8005699 59.8536425,58.8005699 C58.5559534,58.8005699 57.6558135,59.7836373 57.6558135,61.2195389 C57.6558135,62.6810725 58.6559689,63.8098912 59.953658,63.8098912 C60.7919793,63.8098912 61.4830415,63.323886 61.8529482,62.4996373 L62.2173264,62.4996373 L62.2173264,62.5006425 Z M65.8384922,59.8288705 L64.1784352,59.8288705 L64.1784352,61.5341606 L65.4052591,61.5341606 C65.8214041,61.5341606 65.9736891,61.3944404 65.9736891,60.9893523 L66.2742383,60.9893523 L66.2742383,62.4981295 L65.9736891,62.4981295 C65.9736891,62.087513 65.8756839,61.9508083 65.2896632,61.9508083 L64.1784352,61.9508083 L64.1784352,63.3198653 C64.1784352,63.6380052 64.2362332,63.7123886 64.4583782,63.7123886 L65.7249067,63.7123886 C66.2149326,63.7123886 66.4511503,63.5766891 66.5928808,62.9348808 L66.8823731,62.9348808 L66.7898964,64.1235078 L62.2293886,64.1235078 L62.2293886,63.8294922 L62.5414974,63.8294922 C62.9812642,63.8294922 63.132544,63.6535855 63.132544,63.2841813 L63.132544,60.2636114 C63.132544,59.8534974 62.996342,59.7097565 62.4731451,59.7097565 L62.3987617,59.7097565 L62.3987617,59.4157409 L66.5737824,59.4157409 L66.6481658,60.5154093 L66.3596788,60.5154093 C66.2852953,59.9982435 66.1842746,59.8288705 65.8384922,59.8288705 Z M68.1413627,63.2193472 C68.1413627,63.681228 68.2815855,63.8294922 68.8862021,63.8294922 L68.8862021,64.1235078 L67.0552642,64.1235078 L67.0552642,63.8294922 L67.103513,63.8294922 C67.5618756,63.8294922 67.6779741,63.6651451 67.6779741,63.3515285 L67.6779741,59.8746062 C67.511114,59.7635337 67.3070622,59.7102591 67.070342,59.7102591 L67.070342,59.4162435 L68.6318912,59.4162435 L71.7218187,62.6408653 L71.7218187,60.3570933 C71.7218187,59.809772 71.6097409,59.7102591 71.0021088,59.7102591 L70.9247098,59.7102591 L70.9247098,59.4162435 L72.8812953,59.4162435 L72.8812953,59.7102591 L72.8079171,59.7102591 C72.3359845,59.7102591 72.1826943,59.809772 72.1826943,60.0982591 L72.1826943,64.1491399 L71.7675544,64.1491399 L68.1413627,60.3570933 L68.1413627,63.2193472 Z M76.044601,63.2595544 C76.044601,63.6535855 76.1652228,63.8294922 76.7050052,63.8294922 L76.8884508,63.8294922 L76.8884508,64.1235078 L74.1593834,64.1235078 L74.1593834,63.8294922 L74.4167098,63.8294922 C74.8348653,63.8294922 75.0017254,63.6651451 75.0017254,63.2595544 L75.0017254,59.809772 L74.1076166,59.809772 C73.522601,59.809772 73.4341451,59.9002383 73.2888964,60.7023731 L72.9808083,60.7023731 L73.1165078,59.2845648 L73.3577513,59.2845648 C73.4185648,59.3368342 73.4547513,59.377544 73.5050104,59.3956373 C73.5542642,59.4066943 73.6140725,59.4162435 73.7251451,59.4162435 L77.3257047,59.4162435 C77.5317668,59.4162435 77.5719741,59.3971451 77.6920933,59.2845648 L77.9308238,59.2845648 L78.0680311,60.7023731 L77.7559223,60.7023731 C77.6167047,59.9062694 77.5232228,59.809772 76.9392124,59.809772 L76.0451036,59.809772 L76.0451036,63.2595544 L76.044601,63.2595544 Z M81.6153161,59.8288705 L79.9532487,59.8288705 L79.9532487,61.5341606 L81.1840933,61.5341606 C81.6002383,61.5341606 81.7515181,61.3944404 81.7515181,60.9893523 L82.0530725,60.9893523 L82.0530725,62.4981295 L81.7515181,62.4981295 C81.7515181,62.087513 81.653513,61.9508083 81.0684974,61.9508083 L79.9532487,61.9508083 L79.9532487,63.3198653 C79.9532487,63.6380052 80.0150674,63.7123886 80.2357047,63.7123886 L81.4982124,63.7123886 C81.9907513,63.7123886 82.2264663,63.5766891 82.3686995,62.9348808 L82.6571865,62.9348808 L82.5687306,64.1235078 L78.0072176,64.1235078 L78.0072176,63.8294922 L78.3213368,63.8294922 C78.7570829,63.8294922 78.9093679,63.6535855 78.9093679,63.2841813 L78.9093679,60.2636114 C78.9093679,59.8534974 78.7736684,59.7097565 78.2504715,59.7097565 L78.1720674,59.7097565 L78.1720674,59.4157409 L82.3460829,59.4157409 L82.4234819,60.5154093 L82.136,60.5154093 C82.0606114,59.9982435 81.9646166,59.8288705 81.6153161,59.8288705 Z M84.5549689,63.282171 C84.5549689,63.6651451 84.7178083,63.8294922 85.1500363,63.8294922 L85.3807254,63.8294922 L85.3807254,64.1235078 L82.7295596,64.1235078 L82.7295596,63.8294922 L82.8521917,63.8294922 C83.3105544,63.8294922 83.5080725,63.7149016 83.5080725,63.282171 L83.5080725,60.2832124 C83.5080725,59.9258705 83.4070518,59.7097565 82.9024508,59.7097565 L82.7446373,59.7097565 L82.7446373,59.4157409 C83.1245959,59.3951347 83.4070518,59.3770415 83.7191606,59.3564352 C84.1331203,59.3245451 84.5479448,59.3051028 84.9630725,59.2981347 C86.0722902,59.2981347 86.6809275,59.4469016 87.0568653,59.8228394 C87.3091658,60.0721244 87.426772,60.3580984 87.426772,60.6898083 C87.426772,61.2627617 87.0076114,61.7140881 86.3059948,61.9090933 C86.8035596,62.3222228 87.0689275,62.9203057 87.6066995,63.4590829 C87.9147876,63.7716943 88.1298964,63.861658 88.6038394,63.9089016 L88.6038394,64.2029171 C88.441,64.2094508 88.3651088,64.2094508 88.1354249,64.2094508 C87.1950777,64.2094508 86.8110984,64.0712383 86.4577772,63.7159067 C86.0717876,63.3429845 85.639057,62.5448705 85.1500363,62.1252073 L84.5549689,62.1252073 L84.5549689,63.282171 Z M84.5549689,61.8105855 L84.8514974,61.8105855 C85.7621917,61.8105855 86.2914197,61.5281295 86.2914197,60.7139326 C86.2914197,59.917829 85.6817772,59.6303472 84.946487,59.6303472 L84.5549689,59.6303472 L84.5549689,61.8105855 Z" id="Shape" fill="#2C3988"></path>
                </g>
            </g>
        </g>
    </g>
</svg>