<?xml version="1.0" encoding="UTF-8"?>
<svg width="174px" height="174px" viewBox="0 0 174 174" version="1.1" xmlns="http://www.w3.org/2000/svg" xmlns:xlink="http://www.w3.org/1999/xlink">
    <!-- Generator: Sketch 50.2 (55047) - http://www.bohemiancoding.com/sketch -->
    <title>Pie Chart</title>
    <desc>Created with Sketch.</desc>
    <defs></defs>
    <g id="Landing-Page---Token-Sale" stroke="none" stroke-width="1" fill="none" fill-rule="evenodd">
        <g id="Cache-Homepage" transform="translate(-984.000000, -4397.000000)">
            <g id="Token-Distribution" transform="translate(0.000000, 4047.000000)">
                <g id="Group-11" transform="translate(838.000000, 275.000000)">
                    <g id="Pie-Chart" transform="translate(124.000000, 53.000000)">
                        <path d="M108.718803,195.27836 C60.9132802,195.27836 22.1592465,156.524326 22.1592465,108.718803 C22.1592465,60.9132802 60.9132802,22.1592465 108.718803,22.1592465 C156.524326,22.1592465 195.27836,60.9132802 195.27836,108.718803 C195.27836,156.524326 156.524326,195.27836 108.718803,195.27836 Z M108.718803,177.846227 C146.896825,177.846227 177.846227,146.896825 177.846227,108.718803 C177.846227,70.5407814 146.896825,39.5913795 108.718803,39.5913795 C70.5407814,39.5913795 39.5913795,70.5407814 39.5913795,108.718803 C39.5913795,146.896825 70.5407814,177.846227 108.718803,177.846227 Z" id="Combined-Shape" fill="#69D2A9"></path>
                        <path d="M109.065042,22.1599244 C145.822264,22.3038649 177.175978,45.3585593 189.587251,77.7850753 L173.390555,84.2380128 C163.5451,58.2427467 138.476208,39.7324195 109.065042,39.588194 L109.065042,22.1598759 Z" id="Combined-Shape" fill="#61AAFF"></path>
                        <path d="M109.065042,22.1599244 C145.822264,22.3038649 177.175978,45.3585593 189.587251,77.7850753 L173.390555,84.2380128 C163.5451,58.2427467 138.476208,39.7324195 109.065042,39.588194 L109.065042,22.1598759 Z" id="Combined-Shape" fill="#61AAFF"></path>
                        <path d="M109.065042,22.1599244 C145.822264,22.3038649 177.175978,45.3585593 189.587251,77.7850753 L173.390555,84.2380128 C163.5451,58.2427467 138.476208,39.7324195 109.065042,39.588194 L109.065042,22.1598759 Z" id="Combined-Shape" fill="#6EBEE3"></path>
                        <path d="M109.065042,22.1599244 C127.378721,22.2316404 144.351053,27.9906447 158.307542,37.7624448 L148.476966,52.1569088 C137.319187,44.299513 123.732055,39.6601176 109.065042,39.588194 L109.065042,22.1598759 Z" id="Combined-Shape" fill="#4D5EE2"></path>
                        <path d="M159.859324,91.176115 C178.173004,91.247831 195.145335,97.0068353 209.101825,106.778635 L199.271248,121.173099 C188.113469,113.315704 174.526337,108.676308 159.859324,108.604385 L159.859324,91.1760665 Z" id="Combined-Shape" fill="#F1F3FA" transform="translate(184.480574, 106.174583) rotate(69.000000) translate(-184.480574, -106.174583) "></path>
                    </g>
                </g>
            </g>
        </g>
    </g>
</svg>