<?xml version="1.0" encoding="UTF-8"?>
<svg width="36px" height="32px" viewBox="0 0 36 32" version="1.1" xmlns="http://www.w3.org/2000/svg" xmlns:xlink="http://www.w3.org/1999/xlink">
    <!-- Generator: Sketch 50.2 (55047) - http://www.bohemiancoding.com/sketch -->
    <title>reddit-icon-dark</title>
    <desc>Created with Sketch.</desc>
    <defs></defs>
    <g id="Landing-Page---Token-Sale" stroke="none" stroke-width="1" fill="none" fill-rule="evenodd">
        <g id="Desktop-HD" transform="translate(-797.000000, -6217.000000)" fill="#27254B" fill-rule="nonzero">
            <g id="Footer" transform="translate(0.000000, 6194.000000)">
                <g id="Group-40" transform="translate(140.000000, 23.000000)">
                    <g id="Group-24" transform="translate(467.000000, 0.000000)">
                        <g id="reddit-icon-dark" transform="translate(190.000000, 0.000000)">
                            <path d="M21.3333333,0 C19.7291665,0 17.8541669,1.25892876 17.5714286,6.88095238 C17.8095238,6.87500038 18.044643,6.85714286 18.2857143,6.85714286 C18.5535718,6.85714286 18.8303573,6.87202362 19.0952381,6.88095238 C19.2767855,3.502976 20.0803573,1.52380952 21.3333333,1.52380952 C21.8690476,1.52380952 22.1726194,1.81547657 22.7380952,2.42857143 C23.3988099,3.14583314 24.2619048,4.07738133 25.952381,4.42857143 C25.9255954,4.22916648 25.9047619,4.01488076 25.9047619,3.80952381 C25.9047619,3.48809524 25.9375002,3.18452419 26,2.88095238 C24.952381,2.5952381 24.3988099,1.99107124 23.8571429,1.4047619 C23.252976,0.75 22.5595238,0 21.3333333,0 Z M30.4761905,0.761904762 C28.794643,0.761904762 27.4285714,2.13095238 27.4285714,3.80952381 C27.4285714,5.48809524 28.794643,6.85714286 30.4761905,6.85714286 C32.1577379,6.85714286 33.5238095,5.48809524 33.5238095,3.80952381 C33.5238095,2.13095238 32.1577379,0.761904762 30.4761905,0.761904762 Z M18.2857143,8.38095238 C9.04166705,8.38095238 1.52380952,13.0892861 1.52380952,19.8095238 C1.52380952,26.5297623 9.04166705,32 18.2857143,32 C27.5297623,32 35.047619,26.5297623 35.047619,19.8095238 C35.047619,13.0892861 27.5297623,8.38095238 18.2857143,8.38095238 Z M4.95238095,9.0952381 C3.8392861,9.0952381 2.78273829,9.55059505 1.97619048,10.3571429 C0.663690667,11.6696427 0.392857143,13.5565478 1.14285714,15.1190476 C2.29464305,12.8898811 4.27678552,10.9880952 6.83333333,9.57142857 C6.252976,9.27678552 5.61011886,9.0952381 4.95238095,9.0952381 Z M31.6190476,9.0952381 C30.9613097,9.0952381 30.3184526,9.27678552 29.7380952,9.57142857 C32.294643,10.9880952 34.2767855,12.8898811 35.4285714,15.1190476 C36.1785714,13.5565478 35.9077379,11.6696427 34.5952381,10.3571429 C33.7886903,9.55059505 32.7321432,9.0952381 31.6190476,9.0952381 Z M12.1904762,15.2380952 C13.452381,15.2380952 14.4761905,16.2619048 14.4761905,17.5238095 C14.4761905,18.7857143 13.452381,19.8095238 12.1904762,19.8095238 C10.9285714,19.8095238 9.9047619,18.7857143 9.9047619,17.5238095 C9.9047619,16.2619048 10.9285714,15.2380952 12.1904762,15.2380952 Z M24.3809524,15.2380952 C25.6428571,15.2380952 26.6666667,16.2619048 26.6666667,17.5238095 C26.6666667,18.7857143 25.6428571,19.8095238 24.3809524,19.8095238 C23.1190476,19.8095238 22.0952381,18.7857143 22.0952381,17.5238095 C22.0952381,16.2619048 23.1190476,15.2380952 24.3809524,15.2380952 Z M11.4761905,23.6190476 C11.6666667,23.6517859 11.8541669,23.7589288 11.9761905,23.9285714 C12.0565478,24.041667 13.8422621,26.4285714 18.2857143,26.4285714 C22.7886903,26.4285714 24.5773813,23.9761905 24.5952381,23.952381 C24.8363093,23.6101189 25.3214286,23.5178575 25.6666667,23.7619048 C26.0089288,24.002976 26.0744046,24.4642857 25.8333333,24.8095238 C25.744048,24.9375002 23.5714286,27.952381 18.2857143,27.952381 C12.997024,27.952381 10.8273813,24.9375002 10.7380952,24.8095238 C10.497024,24.4642857 10.5595238,24.002976 10.9047619,23.7619048 C11.0773813,23.6398811 11.2857143,23.5863093 11.4761905,23.6190476 Z" id="Shape"></path>
                        </g>
                    </g>
                </g>
            </g>
        </g>
    </g>
</svg>