<?xml version="1.0" encoding="UTF-8"?>
<svg width="45px" height="45px" viewBox="0 0 45 45" version="1.1" xmlns="http://www.w3.org/2000/svg" xmlns:xlink="http://www.w3.org/1999/xlink">
    <!-- Generator: Sketch 50.2 (55047) - http://www.bohemiancoding.com/sketch -->
    <title>step2-icon</title>
    <desc>Created with Sketch.</desc>
    <defs></defs>
    <g id="Landing-Page---Purchase-Flow" stroke="none" stroke-width="1" fill="none" fill-rule="evenodd">
        <g id="Purchase-Page---Wallet-Transfer-2---Started" transform="translate(-429.000000, -624.000000)">
            <g id="Payment-Modal" transform="translate(303.000000, 289.000000)">
                <g id="Group-9" transform="translate(126.000000, 47.000000)">
                    <g id="Purchase-Wallet-Flow" transform="translate(0.000000, 115.000000)">
                        <g id="step2-icon" transform="translate(0.000000, 173.000000)">
                            <circle id="Oval-2" fill="#61AAFF" cx="22.5" cy="22.5" r="22.5"></circle>
                            <path d="M18.666,29 L18.666,27.488 C19.3980037,26.8039966 20.066997,26.165003 20.673,25.571 C21.279003,24.976997 21.8009978,24.4190026 22.239,23.897 C22.6770022,23.3749974 23.0189988,22.8890022 23.265,22.439 C23.5110012,21.9889977 23.634,21.560002 23.634,21.152 C23.634,20.5879972 23.4900014,20.1590015 23.202,19.865 C22.9139986,19.5709985 22.5180025,19.424 22.014,19.424 C21.5939979,19.424 21.2220016,19.5409988 20.898,19.775 C20.5739984,20.0090012 20.2680014,20.2819984 19.98,20.594 L18.54,19.172 C19.1040028,18.571997 19.6799971,18.1190015 20.268,17.813 C20.8560029,17.5069985 21.5579959,17.354 22.374,17.354 C22.9380028,17.354 23.4509977,17.4409991 23.913,17.615 C24.3750023,17.7890009 24.7739983,18.0349984 25.11,18.353 C25.4460017,18.6710016 25.7039991,19.0519978 25.884,19.496 C26.0640009,19.9400022 26.154,20.4379972 26.154,20.99 C26.154,21.4700024 26.052001,21.9589975 25.848,22.457 C25.643999,22.9550025 25.3710017,23.4529975 25.029,23.951 C24.6869983,24.4490025 24.2970022,24.9469975 23.859,25.445 C23.4209978,25.9430025 22.9680023,26.4319976 22.5,26.912 C22.7880014,26.8759998 23.1089982,26.8430002 23.463,26.813 C23.8170018,26.7829998 24.1319986,26.768 24.408,26.768 L26.712,26.768 L26.712,29 L18.666,29 Z" id="2" fill="#FFFFFF"></path>
                        </g>
                    </g>
                </g>
            </g>
        </g>
    </g>
</svg>