<?xml version="1.0" encoding="UTF-8"?>
<svg width="45px" height="45px" viewBox="0 0 45 45" version="1.1" xmlns="http://www.w3.org/2000/svg" xmlns:xlink="http://www.w3.org/1999/xlink">
    <!-- Generator: Sketch 50.2 (55047) - http://www.bohemiancoding.com/sketch -->
    <title>step3-icon</title>
    <desc>Created with Sketch.</desc>
    <defs></defs>
    <g id="Landing-Page---Purchase-Flow" stroke="none" stroke-width="1" fill="none" fill-rule="evenodd">
        <g id="Purchase-Page---Wallet-Transfer-2---Started" transform="translate(-429.000000, -774.000000)">
            <g id="Payment-Modal" transform="translate(303.000000, 289.000000)">
                <g id="Group-9" transform="translate(126.000000, 47.000000)">
                    <g id="Purchase-Wallet-Flow" transform="translate(0.000000, 115.000000)">
                        <g id="step3-icon" transform="translate(0.000000, 323.000000)">
                            <circle id="Oval-2" fill="#61AAFF" cx="22.5" cy="22.5" r="22.5"></circle>
                            <path d="M22.374,29.216 C21.4379953,29.216 20.6460032,29.0690015 19.998,28.775 C19.3499968,28.4809985 18.8160021,28.0880025 18.396,27.596 L19.62,25.922 C19.9680017,26.2580017 20.3489979,26.5339989 20.763,26.75 C21.1770021,26.9660011 21.6299975,27.074 22.122,27.074 C22.6860028,27.074 23.1359983,26.9570012 23.472,26.723 C23.8080017,26.4889988 23.976,26.1560022 23.976,25.724 C23.976,25.4719987 23.9310004,25.244001 23.841,25.04 C23.7509995,24.835999 23.5920011,24.6650007 23.364,24.527 C23.1359989,24.3889993 22.824002,24.2810004 22.428,24.203 C22.031998,24.1249996 21.5220031,24.086 20.898,24.086 L20.898,22.214 C21.4140026,22.214 21.8429983,22.1780004 22.185,22.106 C22.5270017,22.0339996 22.8029989,21.9290007 23.013,21.791 C23.2230011,21.6529993 23.3729995,21.4910009 23.463,21.305 C23.5530004,21.1189991 23.598,20.9120011 23.598,20.684 C23.598,20.287998 23.4780012,19.9790011 23.238,19.757 C22.9979988,19.5349989 22.6500023,19.424 22.194,19.424 C21.785998,19.424 21.4170016,19.5139991 21.087,19.694 C20.7569983,19.8740009 20.4120018,20.1199984 20.052,20.432 L18.72,18.812 C19.2480026,18.3559977 19.8029971,17.9990013 20.385,17.741 C20.9670029,17.4829987 21.6119965,17.354 22.32,17.354 C22.9080029,17.354 23.4449976,17.4229993 23.931,17.561 C24.4170024,17.6990007 24.8309983,17.9029987 25.173,18.173 C25.5150017,18.4430013 25.781999,18.7699981 25.974,19.154 C26.166001,19.5380019 26.262,19.9819975 26.262,20.486 C26.262,21.086003 26.0970017,21.5929979 25.767,22.007 C25.4369984,22.4210021 24.9660031,22.7599987 24.354,23.024 L24.354,23.096 C25.0140033,23.288001 25.5569979,23.6149977 25.983,24.077 C26.4090021,24.5390023 26.622,25.1419963 26.622,25.886 C26.622,26.4140026 26.5080011,26.8849979 26.28,27.299 C26.0519989,27.7130021 25.7460019,28.0609986 25.362,28.343 C24.9779981,28.6250014 24.5280026,28.8409992 24.012,28.991 C23.4959974,29.1410007 22.9500029,29.216 22.374,29.216 Z" id="3" fill="#FFFFFF"></path>
                        </g>
                    </g>
                </g>
            </g>
        </g>
    </g>
</svg>