<?xml version="1.0" encoding="UTF-8"?>
<svg width="217px" height="43px" viewBox="0 0 217 43" version="1.1" xmlns="http://www.w3.org/2000/svg" xmlns:xlink="http://www.w3.org/1999/xlink">
    <!-- Generator: Sketch 50.2 (55047) - http://www.bohemiancoding.com/sketch -->
    <title>stripe-and-coinbase</title>
    <desc>Created with Sketch.</desc>
    <defs></defs>
    <g id="Landing-Page---Token-Sale" stroke="none" stroke-width="1" fill="none" fill-rule="evenodd">
        <g id="Desktop-HD" transform="translate(-618.000000, -1035.000000)" fill="#FFFFFF">
            <g id="Header">
                <g id="Proudly-Available-Through" transform="translate(363.000000, 1035.000000)">
                    <g id="stripe-and-coinbase" transform="translate(255.000000, 0.000000)">
                        <g id="icons8-stripe" fill-rule="nonzero">
                            <path d="M6,0 C2.7,0 0,2.6875 0,5.97222222 L0,37.0277778 C0,40.3125 2.7,43 6,43 L54,43 C57.3,43 60,40.3125 60,37.0277778 L60,5.97222222 C60,2.6875 57.3,0 54,0 L6,0 Z M6,2.38888889 L54,2.38888889 C56.0015628,2.38888889 57.6,3.97992592 57.6,5.97222222 L57.6,37.0277778 C57.6,39.0200741 56.0015628,40.6111111 54,40.6111111 L6,40.6111111 C3.9984372,40.6111111 2.4,39.0200741 2.4,37.0277778 L2.4,5.97222222 C2.4,3.97992592 3.9984372,2.38888889 6,2.38888889 Z M31.0875,13.1388889 C30.3421872,13.2881944 29.775,13.9554039 29.775,14.7439236 C29.775,15.6350914 30.5156256,16.3489583 31.425,16.3489583 C32.3203128,16.3489583 33.0375,15.6350914 33.0375,14.7439236 C33.0375,13.8387593 32.3203128,13.1388889 31.425,13.1388889 C31.3125,13.1388889 31.1953128,13.1155602 31.0875,13.1388889 Z M20.175,14.5572917 L17.55,15.0052083 L17.175,17.3194444 L16.2375,17.46875 L15.9,19.5963542 L17.175,19.5963542 L17.175,24.0755208 C17.175,25.2373044 17.4656256,26.0071621 18.075,26.5017361 C18.5859372,26.9123264 19.29375,27.1362847 20.325,27.1362847 C21.1218756,27.1362847 21.6375,26.9963114 21.975,26.9123264 L21.975,24.4861111 C21.7875,24.5327697 21.3609372,24.6354167 21.075,24.6354167 C20.4656256,24.6354167 20.175,24.3321401 20.175,23.6276042 L20.175,19.5963542 L21.7875,19.5963542 L22.1625,17.3194444 L20.175,17.3194444 L20.175,14.5572917 Z M12.1875,17.1328125 C11.1421872,17.1328125 10.2984372,17.4080949 9.675,17.9166667 C9.0281256,18.4485683 8.7,19.1904294 8.7,20.1189236 C8.7,21.7986111 9.7218756,22.5358079 11.4,23.1423611 C12.4828128,23.5249572 12.825,23.8049051 12.825,24.2248264 C12.825,24.6354167 12.4828128,24.859375 11.85,24.859375 C11.0671872,24.859375 9.76875,24.4581169 8.925,23.9635417 L8.55,26.2777778 C9.2718756,26.6883681 10.6078128,27.1362847 12,27.1362847 C13.10625,27.1362847 14.04375,26.8470058 14.6625,26.3524306 C15.35625,25.8065324 15.7125,24.9993496 15.7125,23.9635417 C15.7125,22.2465278 14.6765628,21.5466586 12.975,20.9401042 C12.0656256,20.6041667 11.55,20.3428819 11.55,19.9322917 C11.55,19.5870232 11.8265628,19.4097222 12.3375,19.4097222 C13.2703128,19.4097222 14.23125,19.7596574 14.8875,20.0815972 L15.2625,17.7673611 C14.7421872,17.5200741 13.6640628,17.1328125 12.1875,17.1328125 Z M39.675,17.1328125 C38.7796872,17.1328125 38.00625,17.5107419 37.275,18.2899306 L37.125,17.3194444 L34.3875,17.3194444 L34.3875,30.4956597 L37.5,29.9730903 L37.5,26.9123264 C37.9734372,27.0616319 38.4515628,27.1362847 38.8875,27.1362847 C39.65625,27.1362847 40.7531256,26.9169919 41.625,25.9791667 C42.4593756,25.0740023 42.9,23.6789282 42.9,21.8359375 C42.9,20.2029086 42.5859372,18.9711377 41.9625,18.1779514 C41.4140628,17.4734155 40.6453128,17.1328125 39.675,17.1328125 Z M48.3375,17.1328125 C45.7171872,17.1328125 44.0625,19.0784502 44.0625,22.171875 C44.0625,23.9028866 44.5171872,25.190647 45.375,26.0164931 C46.14375,26.7583553 47.2453128,27.1362847 48.675,27.1362847 C49.9921872,27.1362847 51.20625,26.8236759 51.975,26.3151042 L51.6375,24.2248264 C50.8781256,24.6354167 50.00625,24.8220486 49.0125,24.8220486 C48.4171872,24.8220486 47.9953128,24.7100694 47.7,24.4487847 C47.3765628,24.178169 47.1984372,23.7349178 47.1375,23.1050347 L52.2375,23.1050347 C52.2515628,22.9557292 52.275,22.2465278 52.275,22.0225694 C52.275,20.487522 51.91875,19.2930776 51.2625,18.4392361 C50.5921872,17.5713982 49.6171872,17.1328125 48.3375,17.1328125 Z M28.0875,17.1701389 C27.2156256,17.1701389 26.5218756,17.6227211 26.25,18.4392361 L26.0625,17.3194444 L23.3625,17.3194444 L23.3625,26.9496528 L26.4375,26.9496528 L26.4375,20.6788194 C26.8218756,20.2075741 27.3796872,20.0442708 28.125,20.0442708 C28.2890628,20.0442708 28.4390628,20.0442708 28.65,20.0815972 L28.65,17.2447917 C28.4390628,17.1981343 28.275,17.1701389 28.0875,17.1701389 Z M29.85,17.3194444 L29.85,26.9496528 L32.9625,26.9496528 L32.9625,17.3194444 L29.85,17.3194444 Z M48.0375,19.2230903 C48.1171872,19.2044271 48.1734372,19.2230903 48.2625,19.2230903 C48.95625,19.2230903 49.3406256,19.8763021 49.3875,21.2387153 L47.1,21.2387153 C47.175,20.0396053 47.4890628,19.3630648 48.0375,19.2230903 Z M38.6625,19.484375 C39.4453128,19.484375 39.825,20.3008901 39.825,21.9479167 C39.825,22.8857419 39.6984372,23.6182732 39.4125,24.1128472 C39.1640628,24.5840926 38.7703128,24.8220486 38.325,24.8220486 C38.0156256,24.8220486 37.7484372,24.756728 37.5,24.6354167 L37.5,20.0815972 C38.0203128,19.5356991 38.4890628,19.484375 38.6625,19.484375 Z" id="Shape"></path>
                        </g>
                        <g id="Coinbase" transform="translate(77.000000, 5.000000)">
                            <path d="M131.376286,12.098961 C128.170711,12.098961 126.062698,14.5538228 125.993011,18.8673657 L135.958166,17.4821223 C135.923323,13.8699685 134.128898,12.098961 131.376286,12.098961 Z M139.965134,18.8147616 L139.965134,17.8328168 C139.860605,12.4321208 136.707295,9.03038374 131.463394,9.03038374 C125.696844,9.03038374 122.195102,13.449135 122.195102,19.7791716 C122.195102,26.3897637 125.818795,30.5805636 132.317052,30.5805636 C135.139351,30.5805636 137.891964,29.9668481 139.494751,29.1251812 L138.275239,25.9689303 C136.86409,26.7404583 134.651546,27.2314306 132.595798,27.2314306 C129.128899,27.2314306 126.724718,25.3552148 126.3066,21.6203179 L139.965134,19.6914979 C139.982556,19.3934076 139.999978,19.0953172 139.999978,18.7972268 L139.965134,18.8147616 Z M111.637613,30.5805636 C109.233432,30.5805636 106.7073,29.9317786 105.226464,29.1251812 L106.637614,25.8987914 C107.700331,26.5475763 109.965139,27.2489654 111.515662,27.2489654 C113.763048,27.2489654 115.261306,26.1267428 115.261306,24.4083396 C115.261306,22.5321237 113.693362,21.7956652 111.60277,21.0241372 C108.850157,19.9895883 105.766534,18.7270879 105.766534,14.8343785 C105.766534,11.4151066 108.397195,9.03038374 112.979076,9.03038374 C115.452943,9.03038374 117.526114,9.64409919 118.972106,10.4857661 L117.682908,13.4140656 C116.759563,12.8354196 114.930295,12.1866346 113.449459,12.1866346 C111.271759,12.1866346 110.052247,13.3439266 110.052247,14.8343785 C110.052247,16.7105943 111.585348,17.3769139 113.606254,18.1309072 C116.463396,19.2005256 119.634127,20.392887 119.634127,24.4258743 C119.634127,28.1607712 116.811828,30.5805636 111.655034,30.5805636 L111.637613,30.5805636 Z M98.2752456,19.7441021 C94.07664,19.9720536 89.8780344,20.3227481 89.8780344,24.0050408 C89.8780344,26.1968817 91.550508,27.5470557 94.7212392,27.5470557 C96.0627024,27.5470557 97.6306464,27.3191043 98.2752456,27.0034792 L98.2752456,19.7441021 Z M94.8431904,30.5805636 C88.9198464,30.5805636 85.9581744,28.1607712 85.9581744,24.0927145 C85.9581744,18.3237892 92.073156,17.2892403 98.2926672,16.9560805 L98.2926672,15.6585106 C98.2926672,13.0458363 96.5679288,12.1164957 93.9372672,12.1164957 C91.986048,12.1164957 89.6167104,12.7302112 88.2578256,13.3789961 L87.195108,10.5033008 C88.8327384,9.76684229 91.6201944,9.04791847 94.3728072,9.04791847 C99.30312,9.04791847 102.282214,10.9767385 102.282214,16.0793441 L102.282214,29.1427159 C100.801378,29.9493134 97.7700192,30.5980983 94.8780336,30.5980983 L94.8431904,30.5805636 Z M73.8850056,12.4145861 C72.73518,12.4145861 71.4111384,12.677607 70.6097448,13.0984405 L70.6097448,26.7053888 C71.2195008,26.9684097 72.4041696,27.2489654 73.5888384,27.2489654 C76.916364,27.2489654 79.355388,24.9519161 79.355388,19.6388937 C79.355388,15.0973994 77.2125312,12.4145861 73.9024272,12.4145861 L73.8850056,12.4145861 Z M73.344936,30.5805636 C70.6794312,30.5805636 68.031348,29.9317786 66.4285608,29.1251812 L66.4285608,-8.05194805e-07 L70.5923232,-8.05194805e-07 L70.5923232,9.99479374 C71.5853544,9.53889083 73.1881416,9.15312683 74.5992912,9.15312683 C79.9128792,9.15312683 83.4843072,12.9932321 83.4843072,19.3408034 C83.4843072,27.143757 79.4773392,30.5980983 73.3275144,30.5980983 L73.344936,30.5805636 Z M58.0836144,30.1597301 L58.0836144,16.3248303 C58.0836144,13.9050379 56.6376216,12.4145861 53.7630576,12.4145861 C52.2299568,12.4145861 50.8188072,12.677607 49.9825704,13.0283016 L49.9825704,30.1597301 L45.818808,30.1597301 L45.818808,10.4857661 C47.8745568,9.64409919 50.5052184,9.03038374 53.7107928,9.03038374 C59.4773424,9.03038374 62.2647984,11.5729192 62.2647984,15.9390663 L62.2647984,30.1597301 L58.0661928,30.1597301 L58.0836144,30.1597301 Z M37.369332,30.1597301 L37.369332,9.45121719 L41.5679376,9.45121719 L41.5679376,30.1597301 L37.369332,30.1597301 Z M39.459924,5.68125083 C38.0836176,5.68125083 36.9860568,4.61163247 36.9860568,3.29652792 C36.9860568,1.9989581 38.1010392,0.911805013 39.459924,0.911805013 C40.8362304,0.911805013 41.9337912,1.98142338 41.9337912,3.29652792 C41.9337912,4.59409774 40.8188088,5.68125083 39.459924,5.68125083 Z M24.8083584,12.3795166 C21.5679408,12.3795166 19.9651536,15.3078161 19.9651536,19.7616368 C19.9651536,24.2154576 21.5679408,27.1788265 24.8083584,27.1788265 C28.048776,27.1788265 29.6515632,24.2154576 29.6515632,19.7616368 C29.6515632,15.3078161 28.048776,12.3795166 24.8083584,12.3795166 Z M24.8083584,30.5805636 C18.9721224,30.5805636 15.766548,25.9338608 15.766548,19.7791716 C15.766548,13.6244823 18.9721224,9.03038374 24.8083584,9.03038374 C30.6445944,9.03038374 33.8501688,13.642017 33.8501688,19.7791716 C33.8501688,25.9338608 30.6445944,30.5805636 24.8083584,30.5805636 Z M9.0418104,30.5805636 C4.4599296,30.5805636 0,27.2840348 0,19.7791716 C0,12.291843 4.4599296,9.03038374 9.0418104,9.03038374 C11.2891968,9.03038374 13.0487784,9.60902974 14.3031336,10.4506966 L12.9268272,13.4842045 C12.0905904,12.870489 10.8362352,12.484725 9.5644584,12.484725 C6.8118456,12.484725 4.3031352,14.6765659 4.3031352,19.7441021 C4.3031352,24.8116383 6.8989536,27.0385486 9.5644584,27.0385486 C10.8188136,27.0385486 12.0905904,26.6527846 12.9268272,26.0390692 L14.3031336,29.1427159 C13.0139352,30.0194523 11.2891968,30.5630288 9.0418104,30.5630288 L9.0418104,30.5805636 Z" id="Shape"></path>
                        </g>
                    </g>
                </g>
            </g>
        </g>
    </g>
</svg>