<?xml version="1.0" encoding="UTF-8"?>
<svg width="30px" height="23px" viewBox="0 0 30 23" version="1.1" xmlns="http://www.w3.org/2000/svg" xmlns:xlink="http://www.w3.org/1999/xlink">
    <!-- Generator: Sketch 50.2 (55047) - http://www.bohemiancoding.com/sketch -->
    <title>icons8-twitter</title>
    <desc>Created with Sketch.</desc>
    <defs></defs>
    <g id="Landing-Page---Token-Sale" stroke="none" stroke-width="1" fill="none" fill-rule="evenodd">
        <g id="Desktop-HD" transform="translate(-486.000000, -5557.000000)" fill="#03A9F4" fill-rule="nonzero">
            <g id="Group-46" transform="translate(139.000000, 5346.000000)">
                <g id="Group-2-Copy" transform="translate(242.000000, 0.000000)">
                    <g id="Group-45" transform="translate(69.000000, 210.000000)">
                        <g id="icons8-twitter" transform="translate(36.000000, 1.000000)">
                            <path d="M30,2.71955172 C28.9272973,3.18431034 27.7735135,3.49441379 26.5564865,3.64113793 C27.7937838,2.92258621 28.7456757,1.77655172 29.1924324,0.422724138 C28.0345946,1.08655172 26.7518919,1.57431034 25.3872973,1.83127586 C24.2975676,0.701103448 22.7432432,0 21.0210811,0 C17.712973,0 15.0316216,2.5997931 15.0316216,5.80551724 C15.0316216,6.25917241 15.0859459,6.70093103 15.1881081,7.13 C10.2113514,6.88572414 5.7972973,4.57144828 2.84432432,1.05958621 C2.32540541,1.91772414 2.03351351,2.92258621 2.03351351,3.98296552 C2.03351351,5.99824138 3.08837838,7.77241379 4.69702703,8.81772414 C3.71513514,8.78837931 2.79081081,8.52110345 1.98162162,8.09282759 C1.98162162,8.11027586 1.98162162,8.13644828 1.98162162,8.16103448 C1.98162162,10.9773448 4.04675676,13.3225517 6.78405405,13.8563103 C6.28378378,13.9903448 5.75513514,14.0648966 5.21027027,14.0648966 C4.82351351,14.0648966 4.44648649,14.022069 4.08162162,13.9578276 C4.84378378,16.2594138 7.05486486,17.9415862 9.67459459,17.9915517 C7.62486486,19.5460345 5.04324324,20.4771379 2.23621622,20.4771379 C1.75135135,20.4771379 1.27702703,20.4501724 0.808378378,20.3946552 C3.46054054,22.0371724 6.60972973,23 9.99,23 C21.0048649,23 27.0308108,14.1521379 27.0308108,6.47648276 C27.0308108,6.22506897 27.0227027,5.97444828 27.0105405,5.727 C28.1862162,4.91486207 29.1997297,3.89017241 30,2.71955172" id="Shape"></path>
                        </g>
                    </g>
                </g>
            </g>
        </g>
    </g>
</svg>