<?xml version="1.0" encoding="UTF-8"?>
<svg width="28px" height="24px" viewBox="0 0 28 24" version="1.1" xmlns="http://www.w3.org/2000/svg" xmlns:xlink="http://www.w3.org/1999/xlink">
    <!-- Generator: Sketch 50.2 (55047) - http://www.bohemiancoding.com/sketch -->
    <title>twitter-icon-dark</title>
    <desc>Created with Sketch.</desc>
    <defs></defs>
    <g id="Landing-Page---Token-Sale" stroke="none" stroke-width="1" fill="none" fill-rule="evenodd">
        <g id="Desktop-HD" transform="translate(-755.000000, -6225.000000)" fill="#27254B" fill-rule="nonzero">
            <g id="Footer" transform="translate(0.000000, 6194.000000)">
                <g id="Group-40" transform="translate(140.000000, 23.000000)">
                    <g id="Group-24" transform="translate(467.000000, 0.000000)">
                        <g id="twitter-icon-dark" transform="translate(148.000000, 8.054054)">
                            <path d="M28,2.78734489 C26.9700527,3.25818017 25.8626305,3.57834816 24.7005208,3.71959815 C25.8854167,2.9850951 26.796875,1.82213285 27.225261,0.437876513 C26.1178388,1.11587932 24.8873695,1.61025607 23.5794277,1.87863309 C22.53125,0.725085736 21.0364583,0 19.3867193,0 C16.2148443,0 13.6399737,2.66021906 13.6399737,5.93723264 C13.6399737,6.40335987 13.6901042,6.85536174 13.7903652,7.28853021 C9.0143235,7.04369586 4.78059867,4.68010213 1.95052083,1.08762981 C1.45377633,1.96338284 1.17122367,2.9850951 1.17122367,4.07272491 C1.17122367,6.1302748 2.182943,7.94769961 3.72786517,9.01178675 C2.7845055,8.97882918 1.90039033,8.71516142 1.12565133,8.2678676 C1.12565133,8.29611711 1.12565133,8.31965978 1.12565133,8.34320124 C1.12565133,11.2200051 3.10351533,13.6212645 5.7330735,14.1627254 C5.25,14.2992673 4.74414033,14.3746009 4.22005267,14.3746009 C3.85091117,14.3746009 3.48632783,14.3369341 3.13997367,14.2663085 C3.86914033,16.6251942 5.99283883,18.3390346 8.50390683,18.3908256 C6.53971383,19.9822495 4.06054717,20.9286281 1.3717445,20.9286281 C0.906901333,20.9286281 0.451172167,20.9003786 0,20.8438784 C2.54296933,22.5294681 5.55989583,23.5135135 8.8046875,23.5135135 C19.3730472,23.5135135 25.151693,14.468768 25.151693,6.62465276 C25.151693,6.3704011 25.1425778,6.11144139 25.1334638,5.85719094 C26.254557,5.01910353 27.229818,3.9738498 28,2.78734489 Z" id="Shape"></path>
                        </g>
                    </g>
                </g>
            </g>
        </g>
    </g>
</svg>