<?xml version="1.0" encoding="UTF-8"?>
<svg width="138px" height="138px" viewBox="0 0 138 138" version="1.1" xmlns="http://www.w3.org/2000/svg" xmlns:xlink="http://www.w3.org/1999/xlink">
    <!-- Generator: Sketch 50.2 (55047) - http://www.bohemiancoding.com/sketch -->
    <title>xem-logo</title>
    <desc>Created with Sketch.</desc>
    <defs></defs>
    <g id="Landing-Page---Token-Sale" stroke="none" stroke-width="1" fill="none" fill-rule="evenodd">
        <g id="Desktop-HD" transform="translate(-463.000000, -2689.000000)" fill-rule="nonzero">
            <g id="Developer-Focused" transform="translate(200.000000, 2502.000000)">
                <g id="Group-30" transform="translate(0.000000, 141.000000)">
                    <g id="xem-logo" transform="translate(263.000000, 46.000000)">
                        <path d="M69.0703448,137.930931 L68.28,137.535165 C37.4696552,119.474294 14.1641379,89.6792793 4.68413793,54.0810811 C3.17241379,48.480961 2.05034483,42.7461562 1.26068966,36.945045 C0.535844606,31.1265456 0.140040643,25.2716579 0.0751724138,19.4084084 C0.0751724138,18.4193393 -0.0565517241,18.5512613 0.865517241,18.0898799 C16.6685326,9.07842025 34.1006566,3.2986633 52.1510345,1.08576577 C58.8576307,0.294776479 65.6104301,-0.0354550563 72.362069,0.0973873874 C76.1806897,0.166456456 79.9331034,0.426846847 83.6855172,0.822612613 C102.582069,2.86613614 120.313563,8.5350951 136.88,17.8294895 C137.143448,17.9614114 137.34069,18.0933333 137.604138,18.2252553 C137.867586,18.3571772 137.99931,18.5547147 137.99931,18.8841742 L137.99931,19.8732432 C137.930345,23.3011411 137.802069,26.6627327 137.538621,30.0906306 C137.143748,34.9578034 136.48438,39.7998145 135.563448,44.5951351 C133.588276,54.9444444 130.494483,64.897988 126.215172,74.4557658 C119.434023,89.6827327 110.173333,103.23984 98.4331034,115.127087 C90.0237341,123.693501 80.5281732,131.117583 70.1896552,137.209159 C69.7944828,137.473003 69.4655172,137.670541 69.0703448,137.934384 L69.0703448,137.930931 Z" id="Shape" fill="#000000"></path>
                        <path d="M6.39586207,22.7727628 C14.7583951,17.9179488 23.6636186,14.068139 32.9268966,11.3031532 C45.5668966,7.5457958 58.4048276,5.76588589 71.5724138,6.02972973 C77.6951724,6.16165165 87.8993103,7.15003003 89.6110345,7.80963964 C89.68,7.94156156 89.542069,8.00717718 89.4137931,8.00717718 C88.8213793,8.27102102 88.1627586,8.46855856 87.5703448,8.7324024 C76.7075862,13.2806006 69.0048276,22.8390691 66.7662069,34.4399099 C66.4387822,36.3351035 66.2408513,38.2504622 66.1737931,40.1726426 C66.1048276,43.0735435 65.8448276,45.9744444 64.9889655,48.8062763 C62.0924138,59.0236637 53.7310345,66.9997598 43.3951724,69.3722823 C29.8331034,72.4748649 16.137931,65.7537538 10.2137931,53.1610811 C9.88482759,52.4358559 9.62137931,51.7106306 9.48965517,50.9860961 C8.514741,46.7223077 7.76747383,42.4095017 7.25103448,38.066036 C6.65862069,33.253994 6.32965517,28.441952 6.32965517,23.6306006 C6.38532157,23.3484697 6.40846158,23.0608709 6.39862069,22.7734535 L6.39586207,22.7727628 Z" id="Shape" fill="#F7A800"></path>
                        <path d="M103.502069,101.742192 C103.633793,100.48997 103.765517,99.368979 103.831034,98.1823724 C104.16,91.6567267 102.777931,85.4605405 99.6834483,79.7257357 C96.717931,74.2547748 92.5731034,69.9041141 87.2406897,66.6081381 C86.78,66.2786787 86.2531034,66.0148348 85.7924138,65.6853754 C78.482069,61.0708709 74.0075862,54.5452252 72.4275862,46.0421321 C69.6,30.7495495 79.2082759,15.983964 94.2848276,12.3585285 C99.6172414,11.1063063 104.818621,11.2382282 110.01931,12.8855255 C114.295172,14.2040541 118.38069,15.983964 122.462069,17.8951051 C125.289655,19.2136336 127.992414,20.6633934 130.691724,22.1773874 C131.02069,22.3749249 131.284138,22.5068468 131.67931,22.7706907 C131.67931,23.0345345 131.748276,23.2320721 131.748276,23.4959159 C131.748276,26.9894294 131.551034,30.5492492 131.287586,34.0427628 C130.81957,39.1811228 130.050195,44.2874673 128.983448,49.3353453 C125.757241,64.2328529 120.029655,78.0093694 111.734483,90.7975075 C109.430345,94.3573273 106.928276,97.7845345 104.295172,101.080511 C104.028966,101.280811 103.897241,101.544655 103.502069,101.742192" id="Shape" fill="#67B2E8"></path>
                        <path d="M69.0703448,131.207057 C68.0827586,130.811291 65.0544828,128.965766 61.8289655,126.790781 C54.650985,121.975214 47.9883428,116.430685 41.9468966,110.245285 C35.8901012,104.066116 30.5052307,97.2606148 25.8827586,89.9431231 C21.5490515,83.1863964 17.9095718,76.0075844 15.02,68.5165165 C14.9359169,68.3028057 14.869937,68.0823887 14.8227586,67.8575976 C15.1517241,68.0551351 15.2834483,68.1214414 15.4813793,68.2533634 C17.7855172,70.0332733 20.2213793,71.5493393 22.8551724,72.6696396 C26.2131034,74.1200901 29.702069,75.1084685 33.3889655,75.4379279 C40.8282759,76.1631532 47.8068966,74.6470871 54.3903448,70.9553453 C57.791076,69.0441388 61.5209994,67.7919346 65.3848276,67.2642943 C79.1441379,65.5506907 92.837931,73.7243243 97.1172414,87.9622222 C99.2896552,95.2793994 98.6344828,102.397658 95.2737931,109.31976 C94.8131034,110.242523 94.417931,111.09967 93.9572414,111.956126 C93.6937931,112.483814 93.3648276,113.010811 92.9041379,113.406577 C85.9255172,119.998529 78.2889655,125.798949 69.9937931,130.673844 C69.6648276,130.871381 69.3351724,131.06961 69.0724138,131.201532 L69.0703448,131.207057 Z" id="Shape" fill="#00C4B3"></path>
                    </g>
                </g>
            </g>
        </g>
    </g>
</svg>