<?xml version="1.0" encoding="UTF-8"?>
<svg width="45px" height="45px" viewBox="0 0 45 45" version="1.1" xmlns="http://www.w3.org/2000/svg" xmlns:xlink="http://www.w3.org/1999/xlink">
    <!-- Generator: Sketch 50.2 (55047) - http://www.bohemiancoding.com/sketch -->
    <title>xem-logo</title>
    <desc>Created with Sketch.</desc>
    <defs></defs>
    <g id="Landing-Page---Token-Sale" stroke="none" stroke-width="1" fill="none" fill-rule="evenodd">
        <g id="Cache-Homepage" transform="translate(-612.000000, -1042.000000)" fill-rule="nonzero">
            <g id="Header">
                <g id="Group-14" transform="translate(428.000000, 1042.000000)">
                    <g id="Group-35" transform="translate(184.000000, 0.000000)">
                        <g id="xem-logo">
                            <path d="M22.5229385,44.9774775 L22.2652174,44.8484234 C12.2183658,38.959009 4.61874063,29.2432432 1.52743628,17.6351351 C1.03448276,15.809009 0.668590705,13.938964 0.411094453,12.0472973 C0.174731937,10.1499605 0.0456654271,8.24075802 0.0245127436,6.32882883 C0.0245127436,6.00630631 -0.0184407796,6.04932432 0.282233883,5.89887387 C5.43539108,2.96035443 11.1197793,1.07565108 17.0057721,0.354054054 C19.1927057,0.0961227649 21.3947055,-0.0115614314 23.5963268,0.0317567568 C24.8415292,0.0542792793 26.0651424,0.139189189 27.2887556,0.268243243 C33.4506747,0.93460961 39.2326837,2.78318318 44.6347826,5.81396396 C44.7206897,5.85698198 44.7850075,5.9 44.8709145,5.94301802 C44.9568216,5.98603604 44.9997751,6.05045045 44.9997751,6.15788288 L44.9997751,6.48040541 C44.9772864,7.5981982 44.9354573,8.69436937 44.8495502,9.81216216 C44.7207874,11.3992837 44.5057761,12.9782004 44.2054723,14.5418919 C43.5613943,17.9166667 42.5525487,21.1623874 41.1571214,24.2790541 C38.9458771,29.2443694 35.926087,33.6651652 32.0977511,37.5414414 C29.3555655,40.3348374 26.2591869,42.7557336 22.887931,44.7421171 C22.7590705,44.8281532 22.6517991,44.8925676 22.5229385,44.9786036 L22.5229385,44.9774775 Z" id="Shape" fill="#000000"></path>
                            <path d="M2.0856072,7.4259009 C4.81252015,5.8428094 7.71639737,4.58743663 10.7370315,3.68581081 C14.8587706,2.46058559 19.0450525,1.88018018 23.3388306,1.96621622 C25.3353823,2.00923423 28.6628186,2.33153153 29.2209895,2.54662162 C29.2434783,2.58963964 29.1985007,2.61103604 29.1566717,2.61103604 C28.9634933,2.69707207 28.7487256,2.76148649 28.5555472,2.84752252 C25.0133433,4.33063063 22.5015742,7.44752252 21.7715892,11.2304054 C21.6648203,11.8484033 21.6002776,12.4729768 21.5784108,13.0997748 C21.555922,14.0457207 21.4711394,14.9916667 21.192054,15.9150901 C20.2475262,19.2468468 17.5209895,21.8477477 14.1505997,22.6213964 C9.72818591,23.6331081 5.26236882,21.4414414 3.33058471,17.3351351 C3.22331334,17.0986486 3.1374063,16.8621622 3.09445277,16.6259009 C2.77654598,15.2355351 2.5328719,13.8291853 2.36446777,12.4128378 C2.17128936,10.8436937 2.06401799,9.27454955 2.06401799,7.70563063 C2.08217008,7.61363141 2.08971573,7.51984921 2.08650675,7.42612613 L2.0856072,7.4259009 Z" id="Shape" fill="#F7A800"></path>
                            <path d="M33.7506747,33.1768018 C33.7936282,32.7684685 33.8365817,32.4029279 33.857946,32.015991 C33.9652174,29.8880631 33.5145427,27.8675676 32.5054723,25.9975225 C31.5384558,24.2135135 30.1868816,22.7948198 28.448051,21.720045 C28.2978261,21.6126126 28.126012,21.5265766 27.9757871,21.4191441 C25.591979,19.9144144 24.1329085,17.7864865 23.6176912,15.0137387 C22.6956522,10.027027 25.8287856,5.21216216 30.7450525,4.02995495 C32.4838831,3.62162162 34.179985,3.66463964 35.8758621,4.2018018 C37.2701649,4.63175676 38.6023988,5.21216216 39.9332834,5.83536036 C40.8553223,6.26531532 41.7366567,6.73806306 42.6168666,7.23175676 C42.7241379,7.29617117 42.810045,7.33918919 42.9389055,7.42522523 C42.9389055,7.51126126 42.9613943,7.57567568 42.9613943,7.66171171 C42.9613943,8.8009009 42.8970765,9.96171171 42.8111694,11.1009009 C42.6585553,12.7764531 42.4076724,14.4415654 42.0598201,16.0876126 C41.0077961,20.9454955 39.1401049,25.4378378 36.4351574,29.6078829 C35.6838081,30.7686937 34.867916,31.8862613 34.0092954,32.961036 C33.9224888,33.0263514 33.8795352,33.1123874 33.7506747,33.1768018" id="Shape" fill="#67B2E8"></path>
                            <path d="M22.5229385,42.7849099 C22.2008996,42.6558559 21.2134183,42.0540541 20.1616192,41.3448198 C17.8209734,39.7745263 15.6483726,37.9665276 13.6783358,35.9495495 C11.7032939,33.9346031 9.94735783,31.7154179 8.44002999,29.3292793 C7.02686463,27.1259988 5.84007775,24.7850819 4.89782609,22.3423423 C4.87040767,22.272654 4.84889251,22.2007789 4.83350825,22.1274775 C4.94077961,22.1918919 4.98373313,22.2135135 5.04827586,22.2565315 C5.79962519,22.8369369 6.59392804,23.3313063 7.45277361,23.6966216 C8.54775112,24.1695946 9.68545727,24.4918919 10.8877061,24.5993243 C13.3135682,24.8358108 15.5892054,24.3414414 17.735982,23.1376126 C18.8449161,22.5143931 20.0611955,22.1060656 21.3211394,21.934009 C25.8078711,21.3752252 30.2732384,24.0405405 31.6686657,28.6833333 C32.3770615,31.0693694 32.1634183,33.3905405 31.0675412,35.6477477 C30.9173163,35.9486486 30.7884558,36.2281532 30.6382309,36.5074324 C30.5523238,36.6795045 30.4450525,36.8513514 30.2948276,36.9804054 C28.0191904,39.129955 25.5290105,41.0213964 22.824063,42.611036 C22.7167916,42.6754505 22.6092954,42.7400901 22.5236132,42.7831081 L22.5229385,42.7849099 Z" id="Shape" fill="#00C4B3"></path>
                        </g>
                    </g>
                </g>
            </g>
        </g>
    </g>
</svg>