<?xml version="1.0" encoding="UTF-8"?>
<svg width="218px" height="276px" viewBox="0 0 218 276" version="1.1" xmlns="http://www.w3.org/2000/svg" xmlns:xlink="http://www.w3.org/1999/xlink">
    <!-- Generator: Sketch 50.2 (55047) - http://www.bohemiancoding.com/sketch -->
    <title>xem-on-platform</title>
    <desc>Created with Sketch.</desc>
    <defs>
        <path d="M181.907545,10.2382439 L165.467121,57.9012439 C164.23603,61.4714146 161.108394,64.0142927 157.409576,64.45 L67.0556364,75.1492439 C61.9076061,75.7596098 56.7059697,74.5970976 52.2843939,71.8495122 L4.65263636,44.0299756 C2.03887879,42.4035854 0.412212121,39.6879268 0.0702424242,36.7469024 L0,29.2910488 C0.138636364,30.9474878 0.676545455,29.5351951 1.56566667,28.1210244 C2.34018182,26.8927805 3.3790303,25.6645366 4.65263636,26.4551951 L52.2843939,54.2784878 C56.7059697,57.0260732 61.9076061,58.1867073 67.0556364,57.5763415 L157.409576,46.8789756 C161.108394,46.4413902 164.23603,43.8966341 165.467121,40.3283415 L181.907545,0.417926829 C182.06097,-0.0271707317 182.24397,1.72504878 182.456545,5.67834146 C182.332697,8.01839024 182.149697,9.53773171 181.907545,10.2382439 Z" id="path-1"></path>
        <path d="M116.596383,0.571006854 L116.849815,0.571006854 C120.822291,0.592880479 124.737711,1.64309067 128.204731,3.643829 L175.979274,31.2058906 C179.000425,32.9479119 180.766721,36.1209107 180.802155,39.4477743 L180.802155,39.6518939 C180.791201,40.6802164 180.614523,41.7207039 180.258138,42.7358367 L163.968781,89.1813878 C162.748865,92.6605033 159.647788,95.1385266 155.982545,95.5667818 L66.4487804,105.991317 C61.3456489,106.586116 56.1930613,105.453253 51.80979,102.775743 L4.61040274,75.6638986 C0.793128481,73.328627 -0.915852749,68.6708948 0.487233663,64.4212861 L15.9541549,17.5749321 C17.1337732,14.0061393 20.2788116,11.4512496 24.0154908,11.0229945 L114.111589,0.719249018 C114.939613,0.624742376 115.769054,0.575562215 116.596384,0.571006851 L116.596383,0.571006854 Z" id="path-3"></path>
    </defs>
    <g id="Landing-Page---Token-Sale" stroke="none" stroke-width="1" fill="none" fill-rule="evenodd">
        <g id="Cache-Homepage" transform="translate(-922.000000, -3383.000000)">
            <g id="Developer-Focused" transform="translate(140.000000, 2612.000000)">
                <g id="xem-on-platform" transform="translate(782.000000, 771.000000)">
                    <g id="Group-5" transform="translate(17.000000, 162.000000)">
                        <g id="Group-347" transform="translate(0.000000, 38.000000)">
                            <mask id="mask-2" fill="white">
                                <use xlink:href="#path-1"></use>
                            </mask>
                            <g id="Clip-346"></g>
                            <polygon id="Fill-345" fill="#3D3B80" mask="url(#mask-2)" points="-0.221818182 75.4365854 182.556364 75.4365854 182.556364 0.389756098 -0.221818182 0.389756098"></polygon>
                        </g>
                        <g id="Group-350">
                            <mask id="mask-4" fill="white">
                                <use xlink:href="#path-3"></use>
                            </mask>
                            <g id="Clip-349"></g>
                            <polygon id="Fill-348" fill="#615FC1" mask="url(#mask-4)" points="0 106.258519 180.899235 106.258519 180.899235 0.402633038 0 0.402633038"></polygon>
                        </g>
                    </g>
                    <g id="xem-logo" fill-rule="nonzero">
                        <path d="M109.057461,217.994539 L107.808317,217.368734 C59.1124288,188.809977 22.2779542,141.6966 7.2947717,85.4069379 C4.90548492,76.5517462 3.13204988,67.4835843 1.88399634,58.3105755 C0.738375484,49.1100714 0.112805544,39.8520284 0.0102810168,30.5807633 C0.0102810168,29.0167975 -0.197909574,29.2253991 1.25942456,28.4958397 C26.2361613,14.2464663 53.7877115,5.10722381 82.3164147,1.6080789 C92.9162201,0.357326839 103.58905,-0.16485188 114.260045,0.0452052761 C120.295393,0.154420763 126.226099,0.56616315 132.156806,1.19196789 C162.022891,4.4232901 190.047597,13.3873332 216.230925,28.0840973 C216.647306,28.2926989 216.959047,28.5013004 217.375428,28.709902 C217.791809,28.9185036 218,29.2308599 218,29.7518178 L218,31.3157835 C217.891,36.7361482 217.688259,42.0516659 217.271878,47.4720306 C216.64778,55.168249 215.605646,62.8246806 214.150109,70.4072829 C211.02834,86.7721314 206.138586,102.511175 199.375117,117.624414 C188.65748,141.702061 174.020918,163.139241 155.465432,181.935954 C142.174386,195.481599 127.16661,207.220931 110.826536,216.853237 C110.201964,217.270441 109.682032,217.582797 109.057461,218 L109.057461,217.994539 Z" id="Shape" fill="#000000"></path>
                        <path d="M10.4856742,36.1043389 C23.7129913,28.4257602 37.7987013,22.3367384 52.4507588,17.96352 C72.4438982,12.0207249 92.7501121,9.20554424 113.577753,9.62285081 C123.262339,9.83150409 139.402589,11.3947651 142.110084,12.4380315 C142.219169,12.6466848 142.000999,12.7504652 141.7981,12.7504652 C140.861058,13.1677718 139.819294,13.4802055 138.882252,13.897512 C121.700239,21.0911344 109.516511,36.2092118 105.975604,54.5575916 C105.457705,57.5551098 105.144631,60.584522 105.038562,63.6247237 C104.929477,68.2129111 104.518226,72.8010985 103.164478,77.2800433 C98.5828989,93.4402947 85.3574066,106.055625 69.0088045,109.808107 C47.5571958,114.715283 25.8950525,104.084889 16.524632,84.1677865 C16.0042955,83.0207396 15.58759,81.8736928 15.3792372,80.7277384 C13.8371807,73.9839506 12.6552015,67.1626345 11.8383309,60.2928258 C10.9012889,52.6818969 10.3809524,45.070968 10.3809524,37.4611315 C10.4690019,37.0149013 10.5056033,36.5600229 10.4900376,36.1054313 L10.4856742,36.1043389 Z" id="Shape" fill="#F7A800"></path>
                        <path d="M163.121532,160.505495 C163.329043,158.532686 163.536554,156.766625 163.639766,154.89719 C164.158,144.616386 161.980765,134.854628 157.105888,125.819752 C152.434176,117.200547 145.904643,110.346315 137.504252,105.153682 C136.778507,104.634637 135.948464,104.218965 135.222719,103.699919 C123.706405,96.4300157 116.657552,86.1492121 114.168507,72.7530463 C109.714083,48.6604052 124.850431,25.3980194 148.601199,19.6863409 C157.001589,17.7135322 165.195555,17.9213681 173.388434,20.5165963 C180.124392,22.5938671 186.56049,25.3980194 192.99007,28.4089195 C197.444493,30.4861902 201.70227,32.7702087 205.954614,35.1554248 C206.472848,35.4666346 206.88787,35.6744705 207.510403,36.0901423 C207.510403,36.505814 207.619048,36.8170238 207.619048,37.2326956 C207.619048,42.7365382 207.308324,48.3448428 206.893303,53.8486854 C206.156015,61.9438953 204.943985,69.9886662 203.263491,77.9413266 C198.181103,101.411548 189.158179,123.115709 176.090422,143.262733 C172.460611,148.871037 168.518989,154.270418 164.370943,159.463051 C163.951576,159.778613 163.744065,160.194285 163.121532,160.505495" id="Shape" fill="#67B2E8"></path>
                        <path d="M108.702527,207.619048 C107.145166,206.993563 102.369766,204.076816 97.2833289,200.639378 C85.964107,193.028652 75.4575409,184.265843 65.9305617,174.490176 C56.379378,164.724355 47.8877772,153.968652 40.5984307,142.403779 C33.7644483,131.725162 28.0252185,120.379463 23.4685464,108.540262 C23.3359526,108.202505 23.2319065,107.854148 23.1575092,107.498879 C23.676267,107.811076 23.8839877,107.915869 24.1961124,108.124364 C27.8295924,110.937409 31.670793,113.333464 35.8241184,115.104034 C41.1193636,117.396387 46.6212419,118.958462 52.4352449,119.479154 C64.1665675,120.625331 75.1714116,118.229276 85.5530938,112.394691 C90.9158321,109.374139 96.7976858,107.395102 102.890699,106.561197 C124.588262,103.852945 146.182509,116.770902 152.930711,139.273079 C156.356471,150.837456 155.323305,162.087453 150.02371,173.027436 C149.297231,174.485809 148.674069,175.840481 147.947591,177.194061 C147.53215,178.028041 147.013392,178.860929 146.286913,179.486414 C135.282069,189.904614 123.239709,199.071845 110.158746,206.776335 C109.639989,207.088532 109.120143,207.40182 108.705789,207.610315 L108.702527,207.619048 Z" id="Shape" fill="#00C4B3"></path>
                    </g>
                </g>
            </g>
        </g>
    </g>
</svg>