<?xml version="1.0" encoding="UTF-8"?>
<svg width="50px" height="34px" viewBox="0 0 50 34" version="1.1" xmlns="http://www.w3.org/2000/svg" xmlns:xlink="http://www.w3.org/1999/xlink">
    <!-- Generator: Sketch 50.2 (55047) - http://www.bohemiancoding.com/sketch -->
    <title>answer-questions</title>
    <desc>Created with Sketch.</desc>
    <defs></defs>
    <g id="Landing-Page--Products" stroke="none" stroke-width="1" fill="none" fill-rule="evenodd">
        <g id="Products" transform="translate(-151.000000, -5414.000000)" fill="#FFFFFF" fill-rule="nonzero">
            <g id="Q&amp;A" transform="translate(0.000000, 4864.000000)">
                <g id="answer-questions" transform="translate(151.000000, 549.000000)">
                    <path d="M16.875,1 C16.691406,1.023438 16.523438,1.097656 16.375,1.21875 L0.375,14.21875 C0.140625,14.410156 0,14.699219 0,15 C0,15.300781 0.140625,15.589844 0.375,15.78125 L16.375,28.78125 C16.554688,28.929688 16.773438,29 17,29 C17.144531,29 17.300781,28.972656 17.4375,28.90625 C17.785156,28.742188 18,28.386719 18,28 L18,26.1875 L7.125,17.34375 C6.417969,16.773438 6,15.910156 6,15 C6,14.089844 6.390625,13.257813 7.09375,12.6875 L18,3.8125 L18,2 C18,1.613281 17.785156,1.257813 17.4375,1.09375 C17.265625,1.011719 17.058594,0.976563 16.875,1 Z M24.875,1 C24.691406,1.023438 24.523438,1.097656 24.375,1.21875 L8.375,14.21875 C8.140625,14.410156 8,14.699219 8,15 C8,15.300781 8.140625,15.589844 8.375,15.78125 L24.375,28.78125 C24.675781,29.023438 25.089844,29.070313 25.4375,28.90625 C25.785156,28.742188 26,28.386719 26,28 L26,21 C46.820313,21.378906 47.960938,33.515625 48,34.0625 C48.035156,34.589844 48.476563,35 49,35 L49.03125,35 C49.585938,35 50.03125,34.554688 50.03125,34 C50.03125,33.917969 50.019531,33.824219 50,33.75 C49.882813,31.289063 48.203125,9.632813 26,9 L26,2 C26,1.613281 25.785156,1.257813 25.4375,1.09375 C25.261719,1.011719 25.058594,0.976563 24.875,1 Z" id="Shape"></path>
                </g>
            </g>
        </g>
    </g>
</svg>