<?xml version="1.0" encoding="UTF-8"?>
<svg width="95px" height="95px" viewBox="0 0 95 95" version="1.1" xmlns="http://www.w3.org/2000/svg" xmlns:xlink="http://www.w3.org/1999/xlink">
    <!-- Generator: Sketch 50.2 (55047) - http://www.bohemiancoding.com/sketch -->
    <title>build-expertise</title>
    <desc>Created with Sketch.</desc>
    <defs></defs>
    <g id="Landing-Page--Products" stroke="none" stroke-width="1" fill="none" fill-rule="evenodd">
        <g id="Products" transform="translate(-749.000000, -6106.000000)">
            <g id="Group-14" transform="translate(138.000000, 5930.000000)">
                <g id="Updates-&amp;-Upvotes-Copy" transform="translate(611.000000, 176.000000)">
                    <g id="build-expertise">
                        <circle id="Oval" fill="#3A80A0" cx="47.5" cy="47.5" r="47.5"></circle>
                        <g id="icons8-trophy" transform="translate(28.000000, 28.000000)" fill="#FFFFFF" fill-rule="nonzero">
                            <path d="M6,0 C4.488282,0 2.947266,0.375 1.78125,1.40625 C0.615234,2.4375 0,4.0546875 0,6 C0,11.7949215 2.947266,15.146484 5.953125,17.484375 C8.724609,19.640625 11.378907,21.175782 12.703125,23.53125 C13.7167965,26.1386715 14.9179695,28.306641 16.21875,29.71875 C16.2832035,29.7890625 16.3417965,29.8828125 16.40625,29.953125 C21.099609,35.0917965 10.640625,34.552734 10.640625,38.390625 C10.640625,38.6894535 15,39 19.5,39 C24,39 28.359375,38.6894535 28.359375,38.390625 C28.359375,34.552734 17.900391,35.0917965 22.59375,29.953125 C22.6640625,29.8710945 22.6992195,29.800782 22.78125,29.71875 C24.082032,28.306641 25.2832035,26.1386715 26.296875,23.53125 C27.6210945,21.175782 30.275391,19.640625 33.046875,17.484375 C36.052734,15.146484 39,11.7949215 39,6 C39,4.0546875 38.384766,2.4375 37.21875,1.40625 C36.052734,0.375 34.5117195,0 33,0 C31.3769535,0 30.0585945,0.755859 29.109375,1.546875 C28.505859,2.050782 28.0898445,2.537109 27.75,3 L11.25,3 C10.910157,2.537109 10.494141,2.050782 9.890625,1.546875 C8.941407,0.755859 7.6230465,0 6,0 Z M6,3 C6.6269535,3 7.3417965,3.369141 7.96875,3.890625 C8.443359,4.2890625 8.8242195,4.681641 9.046875,4.96875 C9.2050785,8.958984 9.8144535,13.306641 10.78125,17.296875 C9.75,16.535157 8.71875,15.8203125 7.78125,15.09375 C5.0449215,12.9667965 3,10.8515625 3,6 C3,4.646484 3.3515625,4.0488285 3.796875,3.65625 C4.2421875,3.2636715 4.962891,3 6,3 Z M33,3 C34.037109,3 34.7578125,3.2636715 35.203125,3.65625 C35.6484375,4.0488285 36,4.646484 36,6 C36,10.8515625 33.9550785,12.9667965 31.21875,15.09375 C30.28125,15.8203125 29.25,16.535157 28.21875,17.296875 C29.1855465,13.306641 29.7949215,8.958984 29.953125,4.96875 C30.175782,4.681641 30.556641,4.2890625 31.03125,3.890625 C31.6582035,3.369141 32.3730465,3 33,3 Z M18.609375,9 L21,9 L21,19.5 L18,19.5 L18,13.5 L15,13.5 L15,11.53125 C17.847657,11.53125 18.609375,9.597657 18.609375,9 Z" id="Shape"></path>
                        </g>
                    </g>
                </g>
            </g>
        </g>
    </g>
</svg>