<?xml version="1.0" encoding="UTF-8"?>
<svg width="95px" height="95px" viewBox="0 0 95 95" version="1.1" xmlns="http://www.w3.org/2000/svg" xmlns:xlink="http://www.w3.org/1999/xlink">
    <!-- Generator: Sketch 50.2 (55047) - http://www.bohemiancoding.com/sketch -->
    <title>cryptocurrency</title>
    <desc>Created with Sketch.</desc>
    <defs>
        <linearGradient x1="50%" y1="0%" x2="50%" y2="100%" id="linearGradient-1">
            <stop stop-color="#80F3E4" offset="0%"></stop>
            <stop stop-color="#4A54E2" offset="100%"></stop>
        </linearGradient>
    </defs>
    <g id="Landing-Page--Products" stroke="none" stroke-width="1" fill="none" fill-rule="evenodd">
        <g id="Products" transform="translate(-143.000000, -2224.000000)">
            <g id="Group-7" transform="translate(140.000000, 1908.000000)">
                <g id="Group-6" transform="translate(3.000000, 133.000000)">
                    <g id="Cryptocurrency" transform="translate(0.000000, 183.000000)">
                        <g id="cryptocurrency">
                            <circle id="Oval" fill="#34317E" cx="47.5" cy="47.5" r="47.5"></circle>
                            <g id="icons8-coins" transform="translate(30.000000, 30.000000)" fill="url(#linearGradient-1)" fill-rule="nonzero">
                                <path d="M24.75,0 C18.5390625,0 13.5,2.6835945 13.5,6 C13.5,9.316407 18.5390625,12 24.75,12 C30.9609375,12 36,9.316407 36,6 C36,2.6835945 30.9609375,0 24.75,0 Z M13.59375,8.25 C13.535157,8.4960945 13.5,8.7421875 13.5,9 L13.5,10.5 C13.5,11.771484 14.244141,12.9492195 15.515625,13.921875 C17.707032,14.3671875 19.599609,15.1523445 21.046875,16.171875 C22.2011715,16.3886715 23.4550785,16.5 24.75,16.5 C30.9609375,16.5 36,13.816407 36,10.5 L36,9 C36,8.7421875 35.9648445,8.4960945 35.90625,8.25 C35.2148445,11.208984 30.4863285,13.5 24.75,13.5 C19.0136715,13.5 14.285157,11.208984 13.59375,8.25 Z M35.90625,12.75 C35.2148445,15.708984 30.4863285,18 24.75,18 C24.1171875,18 23.525391,17.958984 22.921875,17.90625 C23.619141,18.837891 23.994141,19.8984375 24,21 C24.2460945,21.005859 24.4980465,21 24.75,21 C30.9609375,21 36,18.316407 36,15 L36,13.5 C36,13.2421875 35.9648445,12.9960945 35.90625,12.75 Z M11.25,15 C5.0390625,15 0,17.6835945 0,21 C0,24.316407 5.0390625,27 11.25,27 C17.4609375,27 22.5,24.316407 22.5,21 C22.5,17.6835945 17.4609375,15 11.25,15 Z M35.90625,17.25 C35.2148445,20.208984 30.4863285,22.5 24.75,22.5 C24.4980465,22.5 24.2460945,22.505859 24,22.5 L24,25.5 C24.2460945,25.505859 24.4980465,25.5 24.75,25.5 C30.9609375,25.5 36,22.816407 36,19.5 L36,18 C36,17.7421875 35.9648445,17.4960945 35.90625,17.25 Z M35.90625,21.75 C35.2148445,24.708984 30.4863285,27 24.75,27 C24.4980465,27 24.2460945,27.005859 24,27 L24,30 C24.2460945,30.005859 24.4980465,30 24.75,30 C30.9609375,30 36,27.316407 36,24 L36,22.5 C36,22.2421875 35.9648445,21.9960945 35.90625,21.75 Z M0.09375,23.25 C0.03515625,23.4960945 0,23.7421875 0,24 L0,25.5 C0,28.816407 5.0390625,31.5 11.25,31.5 C17.4609375,31.5 22.5,28.816407 22.5,25.5 L22.5,24 C22.5,23.7421875 22.4648445,23.4960945 22.40625,23.25 C21.7148445,26.208984 16.9863285,28.5 11.25,28.5 C5.5136715,28.5 0.785157,26.208984 0.09375,23.25 Z M0.09375,27.75 C0.03515625,27.9960945 0,28.2421875 0,28.5 L0,30 C0,33.316407 5.0390625,36 11.25,36 C17.4609375,36 22.5,33.316407 22.5,30 L22.5,28.5 C22.5,28.2421875 22.4648445,27.9960945 22.40625,27.75 C21.7148445,30.708984 16.9863285,33 11.25,33 C5.5136715,33 0.785157,30.708984 0.09375,27.75 Z" id="Shape"></path>
                            </g>
                        </g>
                    </g>
                </g>
            </g>
        </g>
    </g>
</svg>