<?xml version="1.0" encoding="UTF-8"?>
<svg width="95px" height="95px" viewBox="0 0 95 95" version="1.1" xmlns="http://www.w3.org/2000/svg" xmlns:xlink="http://www.w3.org/1999/xlink">
    <!-- Generator: Sketch 50.2 (55047) - http://www.bohemiancoding.com/sketch -->
    <title>escrow</title>
    <desc>Created with Sketch.</desc>
    <defs>
        <linearGradient x1="50%" y1="0%" x2="50%" y2="100%" id="linearGradient-1">
            <stop stop-color="#80F3E4" offset="0%"></stop>
            <stop stop-color="#4A54E2" offset="100%"></stop>
        </linearGradient>
    </defs>
    <g id="Landing-Page--Products" stroke="none" stroke-width="1" fill="none" fill-rule="evenodd">
        <g id="Products" transform="translate(-143.000000, -2402.000000)">
            <g id="Group-7" transform="translate(140.000000, 1908.000000)">
                <g id="Group-6" transform="translate(3.000000, 133.000000)">
                    <g id="Escrow" transform="translate(0.000000, 361.000000)">
                        <g id="escrow">
                            <circle id="Oval" fill="#34317E" cx="47.5" cy="47.5" r="47.5"></circle>
                            <g id="icons8-back_sorting_filled" transform="translate(32.000000, 31.000000)" fill="url(#linearGradient-1)" fill-rule="nonzero">
                                <path d="M5.88829574,0 C4.39371489,0 3.18189202,1.21143639 3.18189202,2.70243453 L3.18189202,17.1744346 C3.18189202,18.6654328 4.39371489,19.8799752 5.88829574,19.8799752 L20.3618058,19.8799752 C21.8532796,19.8799752 23.0682095,18.6654328 23.0682095,17.1744346 L23.0682095,2.70243453 C23.0682095,1.21143639 21.8532796,0 20.3618058,0 L5.88829574,0 Z M24.6591149,11.9279851 L24.6591149,13.5183831 L32.2935963,13.5183831 C32.9212586,13.5183831 33.4090946,14.0060636 33.4090946,14.6335257 L33.4090946,29.1024198 C33.4090946,29.7298819 32.9212586,30.2175623 32.2935963,30.2175623 L17.8200862,30.2175623 C17.1924239,30.2175623 16.7045879,29.7298819 16.7045879,29.1024198 L16.7045879,21.4703732 L15.1136825,21.4703732 L15.1136825,29.1024198 C15.1136825,30.5872058 16.3348265,31.8079603 17.8200862,31.8079603 L32.2935963,31.8079603 C33.778856,31.8079603 35,30.5872058 35,29.1024198 L35,14.6335257 C35,13.1487397 33.778856,11.9279851 32.2935963,11.9279851 L24.6591149,11.9279851 Z M0.783104978,21.4579482 C0.344984744,21.4672672 -0.00613284977,21.8275917 8.12267145e-05,22.2655722 L8.12267145e-05,29.4223633 C8.12267145e-05,30.7300927 1.0782927,31.8079603 2.38643932,31.8079603 L10.0115996,31.8079603 L8.1876512,33.631327 C7.97946612,33.8301268 7.89557052,34.1283264 7.97014421,34.4047821 C8.04161086,34.6843446 8.25911785,34.9017815 8.5387688,34.9732253 C8.8153127,35.0477752 9.11360746,34.9639064 9.31247064,34.7557877 L12.4259226,31.6464355 C12.6216788,31.4942297 12.7366463,31.261261 12.7366463,31.0127613 C12.7366463,30.7642616 12.6216788,30.5281869 12.4228156,30.3790871 L9.31247064,27.2697349 C9.16332326,27.1144222 8.95824601,27.0305542 8.74073901,27.0274474 C8.41758635,27.0305542 8.1286135,27.2262471 8.00432401,27.5244467 C7.88314157,27.8257532 7.95460822,28.1674399 8.1876512,28.3941956 L10.0115996,30.2175623 L2.38643932,30.2175623 C1.93589014,30.2175623 1.59098663,29.8727688 1.59098663,29.4223633 L1.59098663,22.2655722 C1.59409366,22.0512415 1.51019886,21.8431228 1.35794364,21.6909169 C1.20568922,21.538711 0.997504139,21.4548422 0.783104978,21.4579482 Z" id="Shape"></path>
                            </g>
                        </g>
                    </g>
                </g>
            </g>
        </g>
    </g>
</svg>