<?xml version="1.0" encoding="UTF-8"?>
<svg width="95px" height="95px" viewBox="0 0 95 95" version="1.1" xmlns="http://www.w3.org/2000/svg" xmlns:xlink="http://www.w3.org/1999/xlink">
    <!-- Generator: Sketch 50.2 (55047) - http://www.bohemiancoding.com/sketch -->
    <title>kyc-aml</title>
    <desc>Created with Sketch.</desc>
    <defs>
        <linearGradient x1="50%" y1="0%" x2="50%" y2="100%" id="linearGradient-1">
            <stop stop-color="#80F3E4" offset="0%"></stop>
            <stop stop-color="#4A54E2" offset="100%"></stop>
        </linearGradient>
    </defs>
    <g id="Landing-Page--Products" stroke="none" stroke-width="1" fill="none" fill-rule="evenodd">
        <g id="Products" transform="translate(-740.000000, -2577.000000)">
            <g id="Group-7" transform="translate(140.000000, 1908.000000)">
                <g id="Group-6" transform="translate(3.000000, 133.000000)">
                    <g id="KYC-&amp;-AML" transform="translate(597.000000, 536.000000)">
                        <g id="kyc-aml">
                            <circle id="Oval" fill="#34317E" cx="47.5" cy="47.5" r="47.5"></circle>
                            <g id="icons8-id_verified_filled" transform="translate(33.000000, 30.000000)" fill="url(#linearGradient-1)" fill-rule="nonzero">
                                <path d="M11.25,0 C10.0078125,0 9,1.0078125 9,2.25 L9,5.25 L13.5,5.25 L13.5,2.25 C13.5,1.0078125 12.4921875,0 11.25,0 Z M11.25,2.25 C11.666016,2.25 12,2.58691425 12,3 C12,3.41308575 11.666016,3.75 11.25,3.75 C10.8369142,3.75 10.5,3.41308575 10.5,3 C10.5,2.58691425 10.8369142,2.25 11.25,2.25 Z M2.25,3 C1.010742,3 0,4.010742 0,5.25 L0,29.25 C0,30.489258 1.010742,31.5 2.25,31.5 L15.6328125,31.5 C16.7958983,34.1396483 19.4355472,36 22.5,36 C26.6337892,36 30,32.6337892 30,28.5 C30,24.3662108 26.6337892,21 22.5,21 L22.5,5.25 C22.5,4.010742 21.489258,3 20.25,3 L15,3 L15,6 C15,6.41308575 14.666016,6.75 14.25,6.75 L8.25,6.75 C7.83691425,6.75 7.5,6.41308575 7.5,6 L7.5,3 L2.25,3 Z M11.2265625,10.5 C11.9619142,10.5 12.5273437,10.6962893 12.75,11.0859375 C14.8974607,11.384766 14.2324222,14.276367 13.921875,15.2109375 C14.036133,15.28125 14.2265625,15.495117 14.1796875,15.890625 C14.0917972,16.6259768 13.807617,16.8134768 13.6171875,16.828125 C13.5439455,17.5136723 13.1103517,18.3164063 12.8671875,18.4453125 C12.8671875,18.9345705 12.84375,19.3154295 12.890625,19.8515625 C13.379883,21.1640625 16.587891,21.0380858 17.15625,23.2734375 C16.9306642,23.5019535 16.7167972,23.7421875 16.5234375,24 L5.25,24 C5.25,23.8828125 5.26171875,23.7773438 5.2734375,23.671875 L5.25,23.6484375 C5.54003925,21.0234375 9.0703125,21.234375 9.5859375,19.8515625 C9.588867,19.822266 9.609375,19.7841795 9.6328125,19.7578125 C9.67089825,19.2685545 9.65625,18.9082035 9.65625,18.4453125 C9.41308575,18.3164063 8.9560545,17.5136723 8.8828125,16.828125 C8.692383,16.8134768 8.384766,16.6259768 8.296875,15.890625 C8.25,15.495117 8.4404295,15.28125 8.5546875,15.2109375 C7.91015625,12.7265625 8.28222675,10.5527348 11.2265625,10.5 Z M22.5,22.5 C25.822266,22.5 28.5,25.1777348 28.5,28.5 C28.5,31.822266 25.822266,34.5 22.5,34.5 C19.1777348,34.5 16.5,31.822266 16.5,28.5 C16.5,25.1777348 19.1777348,22.5 22.5,22.5 Z M25.0546875,24.890625 L21.796875,29.9296875 L19.828125,28.125 L18.8203125,29.25 L21.4453125,31.6171875 L22.1015625,32.2265625 L22.59375,31.4765625 L26.3203125,25.6875 L25.0546875,24.890625 Z" id="Shape"></path>
                            </g>
                        </g>
                    </g>
                </g>
            </g>
        </g>
    </g>
</svg>