<?xml version="1.0" encoding="UTF-8"?>
<svg width="95px" height="95px" viewBox="0 0 95 95" version="1.1" xmlns="http://www.w3.org/2000/svg" xmlns:xlink="http://www.w3.org/1999/xlink">
    <!-- Generator: Sketch 50.2 (55047) - http://www.bohemiancoding.com/sketch -->
    <title>level-field</title>
    <desc>Created with Sketch.</desc>
    <defs></defs>
    <g id="Landing-Page--Products" stroke="none" stroke-width="1" fill="none" fill-rule="evenodd">
        <g id="Products" transform="translate(-749.000000, -5930.000000)">
            <g id="Group-14" transform="translate(138.000000, 5930.000000)">
                <g id="Fair-playing-field" transform="translate(611.000000, 0.000000)">
                    <g id="level-field">
                        <circle id="Oval" fill="#3A80A0" cx="47.5" cy="47.5" r="47.5"></circle>
                        <g id="icons8-morale_filled" transform="translate(25.000000, 26.000000)" fill="#FFFFFF" fill-rule="nonzero">
                            <path d="M23,0 C21.894531,0 21,0.894531 21,2 C21,2.714844 21.382813,3.371094 22,3.726563 L22,9.144531 C20.785156,9.464844 19.785156,10.332031 19.308594,11.476563 C15.941406,11.007813 12.570313,10.476563 9.175781,10.015625 C9.128906,10.007813 9.082031,10 9.035156,10 C8.597656,9.984375 8.199219,10.257813 8.054688,10.671875 L0.054688,33.671875 C0.019531,33.777344 0,33.886719 0,34 C0,35.828125 1.175781,37.378906 2.820313,38.402344 C4.46875,39.421875 6.632813,40 9,40 C11.367188,40 13.53125,39.421875 15.175781,38.402344 C16.824219,37.378906 18,35.828125 18,34 C18,33.886719 17.980469,33.777344 17.945313,33.671875 L10.484375,12.222656 C13.328125,12.628906 16.183594,13.058594 19.046875,13.457031 C19.28125,15.441406 20.960938,17 23,17 C24.660156,17 26.089844,15.972656 26.691406,14.523438 C29.667969,14.9375 32.65625,15.394531 35.65625,15.816406 L28.054688,37.671875 C28.019531,37.777344 28,37.886719 28,38 C28,39.828125 29.175781,41.378906 30.824219,42.402344 C32.46875,43.421875 34.632813,44 37,44 C39.367188,44 41.53125,43.421875 43.175781,42.402344 C44.824219,41.378906 46,39.828125 46,38 C46,37.886719 45.980469,37.777344 45.945313,37.671875 L37.945313,14.671875 C37.816406,14.304688 37.488281,14.046875 37.105469,14.003906 C33.734375,13.550781 30.351563,13.015625 26.953125,12.542969 C26.761719,10.898438 25.570313,9.554688 24,9.144531 L24,3.730469 C24.617188,3.375 25,2.714844 25,2 C25,0.894531 24.105469,0 23,0 Z M23,11 C24.117188,11 25,11.882813 25,13 C25,14.117188 24.117188,15 23,15 C21.882813,15 21,14.117188 21,13 C21,11.882813 21.882813,11 23,11 Z M9,14.046875 L15.59375,33 L2.40625,33 L9,14.046875 Z M37,18.046875 L43.59375,37 L30.40625,37 L37,18.046875 Z" id="Shape"></path>
                        </g>
                    </g>
                </g>
            </g>
        </g>
    </g>
</svg>