<?xml version="1.0" encoding="UTF-8"?>
<svg width="95px" height="95px" viewBox="0 0 95 95" version="1.1" xmlns="http://www.w3.org/2000/svg" xmlns:xlink="http://www.w3.org/1999/xlink">
    <!-- Generator: Sketch 50.2 (55047) - http://www.bohemiancoding.com/sketch -->
    <title>nodes-super-nodes</title>
    <desc>Created with Sketch.</desc>
    <defs>
        <linearGradient x1="50%" y1="0%" x2="50%" y2="100%" id="linearGradient-1">
            <stop stop-color="#5F92E3" offset="0%"></stop>
            <stop stop-color="#4A54E2" offset="100%"></stop>
        </linearGradient>
        <linearGradient x1="50%" y1="0%" x2="50%" y2="100%" id="linearGradient-2">
            <stop stop-color="#80F3E4" offset="0%"></stop>
            <stop stop-color="#4A54E2" offset="100%"></stop>
        </linearGradient>
    </defs>
    <g id="Landing-Page--Products" stroke="none" stroke-width="1" fill="none" fill-rule="evenodd">
        <g id="Products" transform="translate(-743.000000, -2761.000000)">
            <g id="Group-7" transform="translate(140.000000, 1908.000000)">
                <g id="Group-6" transform="translate(3.000000, 133.000000)">
                    <g id="CryptoMail" transform="translate(600.000000, 720.000000)">
                        <g id="nodes-super-nodes">
                            <circle id="Oval" fill="#34317E" cx="47.5" cy="47.5" r="47.5"></circle>
                            <g id="icons8-share" transform="translate(28.000000, 35.000000)" fill-rule="nonzero">
                                <ellipse id="Oval" fill="url(#linearGradient-1)" cx="17.6724138" cy="22.7857143" rx="3.53448276" ry="3.45238095"></ellipse>
                                <path d="M32.5172414,0 C27.8397069,0 24.0344828,3.71683333 24.0344828,8.28571429 C24.0344828,10.3219286 24.7936897,12.1862143 26.0456034,13.6306905 L21.6388103,17.935119 C20.5501897,17.0837619 19.1724483,16.5714286 17.6724138,16.5714286 C16.1723793,16.5714286 14.7946379,17.0837619 13.7060172,17.935119 L10.1171034,14.4295714 C10.8621724,13.4932857 11.3103448,12.3222381 11.3103448,11.047619 C11.3103448,8.00192857 8.7732931,5.52380952 5.65517241,5.52380952 C2.53705172,5.52380952 0,8.00192857 0,11.047619 C0,14.0933095 2.53705172,16.5714286 5.65517241,16.5714286 C6.96010345,16.5714286 8.159,16.1336667 9.11684483,15.4059048 L12.7057586,18.9114524 C11.8348621,19.9747857 11.3103448,21.3205238 11.3103448,22.7857143 C11.3103448,26.2125476 14.1640862,29 17.6724138,29 C21.1807414,29 24.0344828,26.2125476 24.0344828,22.7857143 C24.0344828,21.3205238 23.5099655,19.9747857 22.6383621,18.9114524 L27.0451552,14.6070238 C28.5239828,15.8298571 30.4326034,16.5714286 32.5172414,16.5714286 C37.1947759,16.5714286 41,12.8545952 41,8.28571429 C41,3.71683333 37.1947759,0 32.5172414,0 Z M5.65517241,15.1904762 C3.31605172,15.1904762 1.4137931,13.3324048 1.4137931,11.047619 C1.4137931,8.76283333 3.31605172,6.9047619 5.65517241,6.9047619 C7.9942931,6.9047619 9.89655172,8.76283333 9.89655172,11.047619 C9.89655172,13.3324048 7.9942931,15.1904762 5.65517241,15.1904762 Z M17.6724138,27.6190476 C14.9445,27.6190476 12.7241379,25.4502619 12.7241379,22.7857143 C12.7241379,20.1211667 14.9445,17.952381 17.6724138,17.952381 C20.4003276,17.952381 22.6206897,20.1211667 22.6206897,22.7857143 C22.6206897,25.4502619 20.4003276,27.6190476 17.6724138,27.6190476 Z M32.5172414,15.1904762 C28.6194138,15.1904762 25.4482759,12.093 25.4482759,8.28571429 C25.4482759,4.47842857 28.6194138,1.38095238 32.5172414,1.38095238 C36.415069,1.38095238 39.5862069,4.47842857 39.5862069,8.28571429 C39.5862069,12.093 36.415069,15.1904762 32.5172414,15.1904762 Z" id="Shape" fill="url(#linearGradient-2)"></path>
                                <path d="M32.5172414,2.76190476 C29.3991207,2.76190476 26.862069,5.24002381 26.862069,8.28571429 C26.862069,11.3314048 29.3991207,13.8095238 32.5172414,13.8095238 C35.6353621,13.8095238 38.1724138,11.3314048 38.1724138,8.28571429 C38.1724138,5.24002381 35.6353621,2.76190476 32.5172414,2.76190476 Z M32.5172414,12.4285714 C30.1781207,12.4285714 28.2758621,10.5705 28.2758621,8.28571429 C28.2758621,6.00092857 30.1781207,4.14285714 32.5172414,4.14285714 C34.8563621,4.14285714 36.7586207,6.00092857 36.7586207,8.28571429 C36.7586207,10.5705 34.8563621,12.4285714 32.5172414,12.4285714 Z" id="Shape" fill="url(#linearGradient-2)"></path>
                            </g>
                        </g>
                    </g>
                </g>
            </g>
        </g>
    </g>
</svg>