<?xml version="1.0" encoding="UTF-8"?>
<svg width="95px" height="95px" viewBox="0 0 95 95" version="1.1" xmlns="http://www.w3.org/2000/svg" xmlns:xlink="http://www.w3.org/1999/xlink">
    <!-- Generator: Sketch 50.2 (55047) - http://www.bohemiancoding.com/sketch -->
    <title>updates-upvotes</title>
    <desc>Created with Sketch.</desc>
    <defs></defs>
    <g id="Landing-Page--Products" stroke="none" stroke-width="1" fill="none" fill-rule="evenodd">
        <g id="Products" transform="translate(-138.000000, -6106.000000)">
            <g id="Group-14" transform="translate(138.000000, 5930.000000)">
                <g id="Updates-&amp;-Upvotes" transform="translate(0.000000, 176.000000)">
                    <g id="updates-upvotes">
                        <circle id="Oval" fill="#3A80A0" cx="47.5" cy="47.5" r="47.5"></circle>
                        <g id="icons8-thumb_up_filled" transform="translate(31.000000, 29.000000)" fill="#FFFFFF" fill-rule="nonzero">
                            <path d="M25.6,37 L8.22857143,37 C3.6928576,37 0,33.3585178 0,28.8780488 L0,20.3965325 C0,18.644531 0.517856914,17.0441123 1.54285714,15.6305264 L11.7857143,1.72379932 C12.4250002,0.669779415 13.5035712,0 14.6285714,0 C16.1464283,0 18.2857143,1.28668041 18.2857143,4.15263002 C18.2857143,4.97046539 18.0607141,5.52038917 17.8392859,6.05268651 C17.7857143,6.179592 17.7321426,6.31002332 17.6785719,6.45102941 C17.3357147,7.3992952 15.5250002,11.4391194 14.5749998,13.5365854 C17.3892855,13.5401103 23.6250002,13.5577367 25.9928576,13.6282398 C28.6,13.6282398 30.1714286,15.3696646 30.1714286,17.054688 C30.1714286,17.632813 30.0749998,18.4224471 29.9928576,18.9794207 C30.7964288,19.4517916 32,20.4670355 32,22.2895391 C32,23.558594 31.3821431,24.4962841 30.7892855,25.109661 C31.3928576,25.6595848 32,26.523247 32,27.7958268 C32,29.6077556 30.7357147,30.7040782 29.8321426,31.2610518 C30.0107145,31.7334227 30.1714286,32.3679501 30.1714286,33.1188074 C30.1714286,34.7403775 28.4321426,37 25.6,37 Z" id="Shape"></path>
                        </g>
                    </g>
                </g>
            </g>
        </g>
    </g>
</svg>